<?xml version="1.0" encoding="utf-8" standalone="no"?>
<!DOCTYPE svg PUBLIC "-//W3C//DTD SVG 1.1//EN"
  "http://www.w3.org/Graphics/SVG/1.1/DTD/svg11.dtd">
<!-- Created with matplotlib (http://matplotlib.org/) -->
<svg height="345pt" version="1.1" viewBox="0 0 460 345" width="460pt" xmlns="http://www.w3.org/2000/svg" xmlns:xlink="http://www.w3.org/1999/xlink">
 <defs>
  <style type="text/css">
*{stroke-linecap:butt;stroke-linejoin:round;}
  </style>
 </defs>
 <g id="figure_1">
  <g id="patch_1">
   <path d="M 0 345.6 
L 460.8 345.6 
L 460.8 0 
L 0 0 
z
" style="fill:#ffffff;"/>
  </g>
  <g id="axes_1">
   <g id="patch_2">
    <path d="M 57.6 307.584 
L 414.72 307.584 
L 414.72 41.472 
L 57.6 41.472 
z
" style="fill:#ffffff;"/>
   </g>
   <g id="PathCollection_1">
    <defs>
     <path d="M 0 1.5 
C 0.397805 1.5 0.77937 1.341951 1.06066 1.06066 
C 1.341951 0.77937 1.5 0.397805 1.5 0 
C 1.5 -0.397805 1.341951 -0.77937 1.06066 -1.06066 
C 0.77937 -1.341951 0.397805 -1.5 0 -1.5 
C -0.397805 -1.5 -0.77937 -1.341951 -1.06066 -1.06066 
C -1.341951 -0.77937 -1.5 -0.397805 -1.5 0 
C -1.5 0.397805 -1.341951 0.77937 -1.06066 1.06066 
C -0.77937 1.341951 -0.397805 1.5 0 1.5 
z
" id="C0_0_e3784a970c"/>
    </defs>
    <g clip-path="url(#p95d12cc2ba)">
     <use style="stroke:#000000;" x="237.375361" xlink:href="#C0_0_e3784a970c" y="154.257663"/>
    </g>
    <g clip-path="url(#p95d12cc2ba)">
     <use style="stroke:#000000;" x="278.582414" xlink:href="#C0_0_e3784a970c" y="141.1096"/>
    </g>
    <g clip-path="url(#p95d12cc2ba)">
     <use style="stroke:#000000;" x="398.259375" xlink:href="#C0_0_e3784a970c" y="137.216099"/>
    </g>
    <g clip-path="url(#p95d12cc2ba)">
     <use style="stroke:#000000;" x="245.566042" xlink:href="#C0_0_e3784a970c" y="185.873711"/>
    </g>
    <g clip-path="url(#p95d12cc2ba)">
     <use style="stroke:#000000;" x="195.007914" xlink:href="#C0_0_e3784a970c" y="161.297512"/>
    </g>
    <g clip-path="url(#p95d12cc2ba)">
     <use style="stroke:#000000;" x="240.399532" xlink:href="#C0_0_e3784a970c" y="152.195679"/>
    </g>
    <g clip-path="url(#p95d12cc2ba)">
     <use style="stroke:#000000;" x="331.683079" xlink:href="#C0_0_e3784a970c" y="71.407434"/>
    </g>
    <g clip-path="url(#p95d12cc2ba)">
     <use style="stroke:#000000;" x="382.42488" xlink:href="#C0_0_e3784a970c" y="79.044814"/>
    </g>
    <g clip-path="url(#p95d12cc2ba)">
     <use style="stroke:#000000;" x="316.96884" xlink:href="#C0_0_e3784a970c" y="107.087828"/>
    </g>
    <g clip-path="url(#p95d12cc2ba)">
     <use style="stroke:#000000;" x="291.013666" xlink:href="#C0_0_e3784a970c" y="176.669443"/>
    </g>
    <g clip-path="url(#p95d12cc2ba)">
     <use style="stroke:#000000;" x="322.070593" xlink:href="#C0_0_e3784a970c" y="150.21725"/>
    </g>
    <g clip-path="url(#p95d12cc2ba)">
     <use style="stroke:#000000;" x="282.412352" xlink:href="#C0_0_e3784a970c" y="120.817567"/>
    </g>
    <g clip-path="url(#p95d12cc2ba)">
     <use style="stroke:#000000;" x="315.854591" xlink:href="#C0_0_e3784a970c" y="53.778943"/>
    </g>
    <g clip-path="url(#p95d12cc2ba)">
     <use style="stroke:#000000;" x="265.136641" xlink:href="#C0_0_e3784a970c" y="121.539979"/>
    </g>
    <g clip-path="url(#p95d12cc2ba)">
     <use style="stroke:#000000;" x="124.167844" xlink:href="#C0_0_e3784a970c" y="295.277057"/>
    </g>
    <g clip-path="url(#p95d12cc2ba)">
     <use style="stroke:#000000;" x="286.57437" xlink:href="#C0_0_e3784a970c" y="138.806209"/>
    </g>
    <g clip-path="url(#p95d12cc2ba)">
     <use style="stroke:#000000;" x="285.54935" xlink:href="#C0_0_e3784a970c" y="93.067319"/>
    </g>
    <g clip-path="url(#p95d12cc2ba)">
     <use style="stroke:#000000;" x="228.560164" xlink:href="#C0_0_e3784a970c" y="126.870419"/>
    </g>
    <g clip-path="url(#p95d12cc2ba)">
     <use style="stroke:#000000;" x="276.632879" xlink:href="#C0_0_e3784a970c" y="124.091434"/>
    </g>
    <g clip-path="url(#p95d12cc2ba)">
     <use style="stroke:#000000;" x="287.055053" xlink:href="#C0_0_e3784a970c" y="142.502679"/>
    </g>
    <g clip-path="url(#p95d12cc2ba)">
     <use style="stroke:#000000;" x="215.359856" xlink:href="#C0_0_e3784a970c" y="158.965001"/>
    </g>
    <g clip-path="url(#p95d12cc2ba)">
     <use style="stroke:#000000;" x="326.580744" xlink:href="#C0_0_e3784a970c" y="128.945241"/>
    </g>
    <g clip-path="url(#p95d12cc2ba)">
     <use style="stroke:#000000;" x="295.841726" xlink:href="#C0_0_e3784a970c" y="127.317962"/>
    </g>
    <g clip-path="url(#p95d12cc2ba)">
     <use style="stroke:#000000;" x="352.855565" xlink:href="#C0_0_e3784a970c" y="92.059697"/>
    </g>
    <g clip-path="url(#p95d12cc2ba)">
     <use style="stroke:#000000;" x="196.668214" xlink:href="#C0_0_e3784a970c" y="234.949692"/>
    </g>
    <g clip-path="url(#p95d12cc2ba)">
     <use style="stroke:#000000;" x="221.262275" xlink:href="#C0_0_e3784a970c" y="115.95797"/>
    </g>
    <g clip-path="url(#p95d12cc2ba)">
     <use style="stroke:#000000;" x="309.417757" xlink:href="#C0_0_e3784a970c" y="142.968043"/>
    </g>
    <g clip-path="url(#p95d12cc2ba)">
     <use style="stroke:#000000;" x="226.141944" xlink:href="#C0_0_e3784a970c" y="170.713041"/>
    </g>
    <g clip-path="url(#p95d12cc2ba)">
     <use style="stroke:#000000;" x="222.293848" xlink:href="#C0_0_e3784a970c" y="225.484949"/>
    </g>
    <g clip-path="url(#p95d12cc2ba)">
     <use style="stroke:#000000;" x="238.934736" xlink:href="#C0_0_e3784a970c" y="158.259614"/>
    </g>
    <g clip-path="url(#p95d12cc2ba)">
     <use style="stroke:#000000;" x="268.970472" xlink:href="#C0_0_e3784a970c" y="164.490287"/>
    </g>
    <g clip-path="url(#p95d12cc2ba)">
     <use style="stroke:#000000;" x="202.231978" xlink:href="#C0_0_e3784a970c" y="147.507449"/>
    </g>
    <g clip-path="url(#p95d12cc2ba)">
     <use style="stroke:#000000;" x="235.530246" xlink:href="#C0_0_e3784a970c" y="158.698808"/>
    </g>
    <g clip-path="url(#p95d12cc2ba)">
     <use style="stroke:#000000;" x="224.151856" xlink:href="#C0_0_e3784a970c" y="179.394735"/>
    </g>
    <g clip-path="url(#p95d12cc2ba)">
     <use style="stroke:#000000;" x="285.969247" xlink:href="#C0_0_e3784a970c" y="118.973172"/>
    </g>
    <g clip-path="url(#p95d12cc2ba)">
     <use style="stroke:#000000;" x="123.800558" xlink:href="#C0_0_e3784a970c" y="219.71192"/>
    </g>
    <g clip-path="url(#p95d12cc2ba)">
     <use style="fill:#ff0000;stroke:#ff0000;" x="233.858476" xlink:href="#C0_0_e3784a970c" y="126.295018"/>
    </g>
    <g clip-path="url(#p95d12cc2ba)">
     <use style="fill:#ff0000;stroke:#ff0000;" x="150.63534" xlink:href="#C0_0_e3784a970c" y="182.652085"/>
    </g>
    <g clip-path="url(#p95d12cc2ba)">
     <use style="fill:#ff0000;stroke:#ff0000;" x="374.827462" xlink:href="#C0_0_e3784a970c" y="60.736776"/>
    </g>
    <g clip-path="url(#p95d12cc2ba)">
     <use style="fill:#ff0000;stroke:#ff0000;" x="74.060625" xlink:href="#C0_0_e3784a970c" y="218.163807"/>
    </g>
   </g>
   <g id="matplotlib.axis_1">
    <g id="xtick_1">
     <g id="line2d_1">
      <defs>
       <path d="M 0 0 
L 0 3.5 
" id="m1b2dbf549b" style="stroke:#000000;stroke-width:0.8;"/>
      </defs>
      <g>
       <use style="stroke:#000000;stroke-width:0.8;" x="94.748098" xlink:href="#m1b2dbf549b" y="307.584"/>
      </g>
     </g>
     <g id="text_1">
      <!-- 1 -->
      <defs>
       <path d="M 12.40625 8.296875 
L 28.515625 8.296875 
L 28.515625 63.921875 
L 10.984375 60.40625 
L 10.984375 69.390625 
L 28.421875 72.90625 
L 38.28125 72.90625 
L 38.28125 8.296875 
L 54.390625 8.296875 
L 54.390625 0 
L 12.40625 0 
z
" id="DejaVuSans-31"/>
      </defs>
      <g transform="translate(91.566848 322.182437)scale(0.1 -0.1)">
       <use xlink:href="#DejaVuSans-31"/>
      </g>
     </g>
    </g>
    <g id="xtick_2">
     <g id="line2d_2">
      <g>
       <use style="stroke:#000000;stroke-width:0.8;" x="170.106288" xlink:href="#m1b2dbf549b" y="307.584"/>
      </g>
     </g>
     <g id="text_2">
      <!-- 2 -->
      <defs>
       <path d="M 19.1875 8.296875 
L 53.609375 8.296875 
L 53.609375 0 
L 7.328125 0 
L 7.328125 8.296875 
Q 12.9375 14.109375 22.625 23.890625 
Q 32.328125 33.6875 34.8125 36.53125 
Q 39.546875 41.84375 41.421875 45.53125 
Q 43.3125 49.21875 43.3125 52.78125 
Q 43.3125 58.59375 39.234375 62.25 
Q 35.15625 65.921875 28.609375 65.921875 
Q 23.96875 65.921875 18.8125 64.3125 
Q 13.671875 62.703125 7.8125 59.421875 
L 7.8125 69.390625 
Q 13.765625 71.78125 18.9375 73 
Q 24.125 74.21875 28.421875 74.21875 
Q 39.75 74.21875 46.484375 68.546875 
Q 53.21875 62.890625 53.21875 53.421875 
Q 53.21875 48.921875 51.53125 44.890625 
Q 49.859375 40.875 45.40625 35.40625 
Q 44.1875 33.984375 37.640625 27.21875 
Q 31.109375 20.453125 19.1875 8.296875 
" id="DejaVuSans-32"/>
      </defs>
      <g transform="translate(166.925038 322.182437)scale(0.1 -0.1)">
       <use xlink:href="#DejaVuSans-32"/>
      </g>
     </g>
    </g>
    <g id="xtick_3">
     <g id="line2d_3">
      <g>
       <use style="stroke:#000000;stroke-width:0.8;" x="245.464479" xlink:href="#m1b2dbf549b" y="307.584"/>
      </g>
     </g>
     <g id="text_3">
      <!-- 3 -->
      <defs>
       <path d="M 40.578125 39.3125 
Q 47.65625 37.796875 51.625 33 
Q 55.609375 28.21875 55.609375 21.1875 
Q 55.609375 10.40625 48.1875 4.484375 
Q 40.765625 -1.421875 27.09375 -1.421875 
Q 22.515625 -1.421875 17.65625 -0.515625 
Q 12.796875 0.390625 7.625 2.203125 
L 7.625 11.71875 
Q 11.71875 9.328125 16.59375 8.109375 
Q 21.484375 6.890625 26.8125 6.890625 
Q 36.078125 6.890625 40.9375 10.546875 
Q 45.796875 14.203125 45.796875 21.1875 
Q 45.796875 27.640625 41.28125 31.265625 
Q 36.765625 34.90625 28.71875 34.90625 
L 20.21875 34.90625 
L 20.21875 43.015625 
L 29.109375 43.015625 
Q 36.375 43.015625 40.234375 45.921875 
Q 44.09375 48.828125 44.09375 54.296875 
Q 44.09375 59.90625 40.109375 62.90625 
Q 36.140625 65.921875 28.71875 65.921875 
Q 24.65625 65.921875 20.015625 65.03125 
Q 15.375 64.15625 9.8125 62.3125 
L 9.8125 71.09375 
Q 15.4375 72.65625 20.34375 73.4375 
Q 25.25 74.21875 29.59375 74.21875 
Q 40.828125 74.21875 47.359375 69.109375 
Q 53.90625 64.015625 53.90625 55.328125 
Q 53.90625 49.265625 50.4375 45.09375 
Q 46.96875 40.921875 40.578125 39.3125 
" id="DejaVuSans-33"/>
      </defs>
      <g transform="translate(242.283229 322.182437)scale(0.1 -0.1)">
       <use xlink:href="#DejaVuSans-33"/>
      </g>
     </g>
    </g>
    <g id="xtick_4">
     <g id="line2d_4">
      <g>
       <use style="stroke:#000000;stroke-width:0.8;" x="320.82267" xlink:href="#m1b2dbf549b" y="307.584"/>
      </g>
     </g>
     <g id="text_4">
      <!-- 4 -->
      <defs>
       <path d="M 37.796875 64.3125 
L 12.890625 25.390625 
L 37.796875 25.390625 
z
M 35.203125 72.90625 
L 47.609375 72.90625 
L 47.609375 25.390625 
L 58.015625 25.390625 
L 58.015625 17.1875 
L 47.609375 17.1875 
L 47.609375 0 
L 37.796875 0 
L 37.796875 17.1875 
L 4.890625 17.1875 
L 4.890625 26.703125 
z
" id="DejaVuSans-34"/>
      </defs>
      <g transform="translate(317.64142 322.182437)scale(0.1 -0.1)">
       <use xlink:href="#DejaVuSans-34"/>
      </g>
     </g>
    </g>
    <g id="xtick_5">
     <g id="line2d_5">
      <g>
       <use style="stroke:#000000;stroke-width:0.8;" x="396.180861" xlink:href="#m1b2dbf549b" y="307.584"/>
      </g>
     </g>
     <g id="text_5">
      <!-- 5 -->
      <defs>
       <path d="M 10.796875 72.90625 
L 49.515625 72.90625 
L 49.515625 64.59375 
L 19.828125 64.59375 
L 19.828125 46.734375 
Q 21.96875 47.46875 24.109375 47.828125 
Q 26.265625 48.1875 28.421875 48.1875 
Q 40.625 48.1875 47.75 41.5 
Q 54.890625 34.8125 54.890625 23.390625 
Q 54.890625 11.625 47.5625 5.09375 
Q 40.234375 -1.421875 26.90625 -1.421875 
Q 22.3125 -1.421875 17.546875 -0.640625 
Q 12.796875 0.140625 7.71875 1.703125 
L 7.71875 11.625 
Q 12.109375 9.234375 16.796875 8.0625 
Q 21.484375 6.890625 26.703125 6.890625 
Q 35.15625 6.890625 40.078125 11.328125 
Q 45.015625 15.765625 45.015625 23.390625 
Q 45.015625 31 40.078125 35.4375 
Q 35.15625 39.890625 26.703125 39.890625 
Q 22.75 39.890625 18.8125 39.015625 
Q 14.890625 38.140625 10.796875 36.28125 
z
" id="DejaVuSans-35"/>
      </defs>
      <g transform="translate(392.999611 322.182437)scale(0.1 -0.1)">
       <use xlink:href="#DejaVuSans-35"/>
      </g>
     </g>
    </g>
   </g>
   <g id="matplotlib.axis_2">
    <g id="ytick_1">
     <g id="line2d_6">
      <defs>
       <path d="M 0 0 
L -3.5 0 
" id="m23cca4f52d" style="stroke:#000000;stroke-width:0.8;"/>
      </defs>
      <g>
       <use style="stroke:#000000;stroke-width:0.8;" x="57.6" xlink:href="#m23cca4f52d" y="261.188467"/>
      </g>
     </g>
     <g id="text_6">
      <!-- 1 -->
      <g transform="translate(44.2375 264.987686)scale(0.1 -0.1)">
       <use xlink:href="#DejaVuSans-31"/>
      </g>
     </g>
    </g>
    <g id="ytick_2">
     <g id="line2d_7">
      <g>
       <use style="stroke:#000000;stroke-width:0.8;" x="57.6" xlink:href="#m23cca4f52d" y="209.212177"/>
      </g>
     </g>
     <g id="text_7">
      <!-- 2 -->
      <g transform="translate(44.2375 213.011395)scale(0.1 -0.1)">
       <use xlink:href="#DejaVuSans-32"/>
      </g>
     </g>
    </g>
    <g id="ytick_3">
     <g id="line2d_8">
      <g>
       <use style="stroke:#000000;stroke-width:0.8;" x="57.6" xlink:href="#m23cca4f52d" y="157.235886"/>
      </g>
     </g>
     <g id="text_8">
      <!-- 3 -->
      <g transform="translate(44.2375 161.035105)scale(0.1 -0.1)">
       <use xlink:href="#DejaVuSans-33"/>
      </g>
     </g>
    </g>
    <g id="ytick_4">
     <g id="line2d_9">
      <g>
       <use style="stroke:#000000;stroke-width:0.8;" x="57.6" xlink:href="#m23cca4f52d" y="105.259596"/>
      </g>
     </g>
     <g id="text_9">
      <!-- 4 -->
      <g transform="translate(44.2375 109.058814)scale(0.1 -0.1)">
       <use xlink:href="#DejaVuSans-34"/>
      </g>
     </g>
    </g>
    <g id="ytick_5">
     <g id="line2d_10">
      <g>
       <use style="stroke:#000000;stroke-width:0.8;" x="57.6" xlink:href="#m23cca4f52d" y="53.283305"/>
      </g>
     </g>
     <g id="text_10">
      <!-- 5 -->
      <g transform="translate(44.2375 57.082524)scale(0.1 -0.1)">
       <use xlink:href="#DejaVuSans-35"/>
      </g>
     </g>
    </g>
   </g>
   <g id="patch_3">
    <path d="M 57.6 307.584 
L 57.6 41.472 
" style="fill:none;stroke:#000000;stroke-linecap:square;stroke-linejoin:miter;stroke-width:0.8;"/>
   </g>
   <g id="patch_4">
    <path d="M 414.72 307.584 
L 414.72 41.472 
" style="fill:none;stroke:#000000;stroke-linecap:square;stroke-linejoin:miter;stroke-width:0.8;"/>
   </g>
   <g id="patch_5">
    <path d="M 57.6 307.584 
L 414.72 307.584 
" style="fill:none;stroke:#000000;stroke-linecap:square;stroke-linejoin:miter;stroke-width:0.8;"/>
   </g>
   <g id="patch_6">
    <path d="M 57.6 41.472 
L 414.72 41.472 
" style="fill:none;stroke:#000000;stroke-linecap:square;stroke-linejoin:miter;stroke-width:0.8;"/>
   </g>
   <g id="text_11">
    <!-- $x_{13}$ -->
    <defs>
     <path d="M 60.015625 54.6875 
L 34.90625 27.875 
L 50.296875 0 
L 39.984375 0 
L 28.421875 21.6875 
L 8.296875 0 
L -2.59375 0 
L 24.3125 28.8125 
L 10.015625 54.6875 
L 20.3125 54.6875 
L 30.8125 34.90625 
L 49.125 54.6875 
z
" id="DejaVuSans-Oblique-78"/>
    </defs>
    <g style="fill:#ff0000;" transform="translate(233.858476 126.295018)scale(0.1 -0.1)">
     <use transform="translate(0 0.3125)" xlink:href="#DejaVuSans-Oblique-78"/>
     <use transform="translate(59.179688 -16.09375)scale(0.7)" xlink:href="#DejaVuSans-31"/>
     <use transform="translate(103.71582 -16.09375)scale(0.7)" xlink:href="#DejaVuSans-33"/>
    </g>
   </g>
   <g id="text_12">
    <!-- $x_{17}$ -->
    <defs>
     <path d="M 8.203125 72.90625 
L 55.078125 72.90625 
L 55.078125 68.703125 
L 28.609375 0 
L 18.3125 0 
L 43.21875 64.59375 
L 8.203125 64.59375 
z
" id="DejaVuSans-37"/>
    </defs>
    <g style="fill:#ff0000;" transform="translate(150.63534 182.652085)scale(0.1 -0.1)">
     <use transform="translate(0 0.3125)" xlink:href="#DejaVuSans-Oblique-78"/>
     <use transform="translate(59.179688 -16.09375)scale(0.7)" xlink:href="#DejaVuSans-31"/>
     <use transform="translate(103.71582 -16.09375)scale(0.7)" xlink:href="#DejaVuSans-37"/>
    </g>
   </g>
   <g id="text_13">
    <!-- $x_{6}$ -->
    <defs>
     <path d="M 33.015625 40.375 
Q 26.375 40.375 22.484375 35.828125 
Q 18.609375 31.296875 18.609375 23.390625 
Q 18.609375 15.53125 22.484375 10.953125 
Q 26.375 6.390625 33.015625 6.390625 
Q 39.65625 6.390625 43.53125 10.953125 
Q 47.40625 15.53125 47.40625 23.390625 
Q 47.40625 31.296875 43.53125 35.828125 
Q 39.65625 40.375 33.015625 40.375 
M 52.59375 71.296875 
L 52.59375 62.3125 
Q 48.875 64.0625 45.09375 64.984375 
Q 41.3125 65.921875 37.59375 65.921875 
Q 27.828125 65.921875 22.671875 59.328125 
Q 17.53125 52.734375 16.796875 39.40625 
Q 19.671875 43.65625 24.015625 45.921875 
Q 28.375 48.1875 33.59375 48.1875 
Q 44.578125 48.1875 50.953125 41.515625 
Q 57.328125 34.859375 57.328125 23.390625 
Q 57.328125 12.15625 50.6875 5.359375 
Q 44.046875 -1.421875 33.015625 -1.421875 
Q 20.359375 -1.421875 13.671875 8.265625 
Q 6.984375 17.96875 6.984375 36.375 
Q 6.984375 53.65625 15.1875 63.9375 
Q 23.390625 74.21875 37.203125 74.21875 
Q 40.921875 74.21875 44.703125 73.484375 
Q 48.484375 72.75 52.59375 71.296875 
" id="DejaVuSans-36"/>
    </defs>
    <g style="fill:#ff0000;" transform="translate(374.827462 60.736776)scale(0.1 -0.1)">
     <use transform="translate(0 0.3125)" xlink:href="#DejaVuSans-Oblique-78"/>
     <use transform="translate(59.179688 -16.09375)scale(0.7)" xlink:href="#DejaVuSans-36"/>
    </g>
   </g>
   <g id="text_14">
    <!-- $x_{8}$ -->
    <defs>
     <path d="M 31.78125 34.625 
Q 24.75 34.625 20.71875 30.859375 
Q 16.703125 27.09375 16.703125 20.515625 
Q 16.703125 13.921875 20.71875 10.15625 
Q 24.75 6.390625 31.78125 6.390625 
Q 38.8125 6.390625 42.859375 10.171875 
Q 46.921875 13.96875 46.921875 20.515625 
Q 46.921875 27.09375 42.890625 30.859375 
Q 38.875 34.625 31.78125 34.625 
M 21.921875 38.8125 
Q 15.578125 40.375 12.03125 44.71875 
Q 8.5 49.078125 8.5 55.328125 
Q 8.5 64.0625 14.71875 69.140625 
Q 20.953125 74.21875 31.78125 74.21875 
Q 42.671875 74.21875 48.875 69.140625 
Q 55.078125 64.0625 55.078125 55.328125 
Q 55.078125 49.078125 51.53125 44.71875 
Q 48 40.375 41.703125 38.8125 
Q 48.828125 37.15625 52.796875 32.3125 
Q 56.78125 27.484375 56.78125 20.515625 
Q 56.78125 9.90625 50.3125 4.234375 
Q 43.84375 -1.421875 31.78125 -1.421875 
Q 19.734375 -1.421875 13.25 4.234375 
Q 6.78125 9.90625 6.78125 20.515625 
Q 6.78125 27.484375 10.78125 32.3125 
Q 14.796875 37.15625 21.921875 38.8125 
M 18.3125 54.390625 
Q 18.3125 48.734375 21.84375 45.5625 
Q 25.390625 42.390625 31.78125 42.390625 
Q 38.140625 42.390625 41.71875 45.5625 
Q 45.3125 48.734375 45.3125 54.390625 
Q 45.3125 60.0625 41.71875 63.234375 
Q 38.140625 66.40625 31.78125 66.40625 
Q 25.390625 66.40625 21.84375 63.234375 
Q 18.3125 60.0625 18.3125 54.390625 
" id="DejaVuSans-38"/>
    </defs>
    <g style="fill:#ff0000;" transform="translate(74.060625 218.163807)scale(0.1 -0.1)">
     <use transform="translate(0 0.3125)" xlink:href="#DejaVuSans-Oblique-78"/>
     <use transform="translate(59.179688 -16.09375)scale(0.7)" xlink:href="#DejaVuSans-38"/>
    </g>
   </g>
  </g>
 </g>
 <defs>
  <clipPath id="p95d12cc2ba">
   <rect height="266.112" width="357.12" x="57.6" y="41.472"/>
  </clipPath>
 </defs>
</svg>
