<svg xmlns="http://www.w3.org/2000/svg" id="mainsvg" width="130" height="130">




<defs>
  <marker id="arrow" viewBox="0 -5 10 10" refX="5" refY="0" markerWidth="8" markerHeight="8" orient="auto">
    <path d="M0,-5L10,0L0,5" class="arrowHead"></path>
  </marker>


  <style type="text/css">
    <![CDATA[
    svg {
      font: 10px sans-serif;
    }

    .background path {
      fill: none;
      stroke: #ddd;
      shape-rendering: crispEdges;
    }

    .foreground path {
      fill: none;
      stroke: steelblue;
    }

    .brush .extent {
      fill-opacity: .3;
      stroke: #fff;
      shape-rendering: crispEdges;
    }

    .clusterbrush_panel {
      background-color: #f8efc0;
    }

    .axis line,
    .axis path {
      fill: none;
      stroke: #000;
      shape-rendering: crispEdges;
    }

    .axis text {
      text-shadow: 0 1px 0 #fff, 1px 0 0 #fff, 0 -1px 0 #fff, -1px 0 0 #fff;
      cursor: move;
    }

    .cluster_brush_c2 {
      opacity: 0.6;
      fill: green;
      background-color: #f8efc0;
    }

    .cluster_brush_c1 {
      opacity: 0.8;
      fill: green;
      background-color: #f8efc0;
    }

    .radial_brush_b {
      opacity: 0.2;
      background-color: #f8efc0;
      fill: green;
    }

    .radial_brush_h2 {
      opacity: 0.2;
      fill: green;
      background-color: #f8efc0;

    }

    .radial_brush_h1 {
      opacity: 0.2;
      fill: green;
      background-color: #f8efc0;

    }

    .ss_point_active {
      background-color: red;
      fill: red !important;
    }

    .OA_buttons {
      height: 30px;
      background-color: #f8efc0;
      -moz-border-radius: 20px;
      -webkit-border-radius: 20px;
      -khtml-border-radius: 20px;
      border-radius: 20px;
      margin-bottom: 10px;
      overflow: hidden;
    }

    .OA_button {
      display: table;
      margin: 3px;

    }

    .OA_twowayselect_container {
      display: flex;
    }

    .OA_twowayselect_container > div {
      flex: 1;
    }

    .OA_twowayselect_left {
      width: 150px !important;
      min-width: 150px;

    }

    .OA_twowayselect_right {
      width: 150px !important;
      min-width: 150px;

    }

    .OA_twowayselect_middle {
      width: 30px !important;
      max-width: 30px;
      margin: auto;
    }

    .debrmanager_dialog_q {
      margin-top: 30px;
    }

    .debrmanager_dialog_q_text {
      font-weight: bold;
      font-size: 14px;
    }

    .debrmanager_dialog_q_choice {
      margin-top: 7px;
    }

    .debrmanager_dialog_container {
      background-color: #f8efc0;
    }

    .sslmanager_dialog_container {
      background-color: #f8efc0;
    }

    .sslmanager_dialog_q {
      margin-top: 30px;
    }

    .sslmanager_dialog_q_text {
      font-weight: bold;
      font-size: 14px;
    }

    .sslmanager_dialog_q_choice {
      margin-top: 7px;
    }

    .corrbrush_panel .extent {
      fill: #d95f0e;

      opacity: 0.8;
    }

    .body_{
      width: 150px;
      height: 150px;

    }

    .panelbackground {
      fill:#ffffbf;
    }

    .ellipseline{
      stroke:#fc8d59;
      stroke-width: 1.5px;
    }


    .arrow{
      stroke-width:0.5;
      stroke:#000;

    }


    #arrow{
      stroke-width:0.5;
    }

    .gaussianline{
      stroke: #00f;
      fill:none;
    }
      ]]>
  </style>
</defs>


<g transform="translate(15,5)" id="ellipsebrush">
  <!--<path id="lambda1" transform="translate(0,0)scale(0.006,-0.006)" xmlns="http://www.w3.org/2000/svg"  stroke="none" fill="rgb(0,0,0)" d="M967,302 C956,196,914,144,840,144 C730,144,680,268,636,474L565,791 C515,1017,478,1165,454,1236 C409,1374,342,1433,268,1433 C149,1433,73,1295,69,1109H105 C114,1253,194,1287,252,1287 C333,1287,404,1200,453,936 L25,14H214L512,690L598,302 C630,164,664,79,702,47 C741,15,781,0,823,0 C895,0,1003,48,1003,302Z"/>-->


  <!--<g transform="translate(50,0)scale(1,1)" id="xgaussian"  ></g>-->
  <g transform="translate(80,-50)rotate(90,0,100)" id="brush_ygaussian">
    <path class="gaussianline"
          d="M-18.72546167639132,99.99559615062344L-18.714636440714084,99.99555580735988L-18.6829095093359,99.9954355652669L-18.438824491638183,99.99440337347552L-18.38927416711863,99.99416879886762L-18.38880106598523,99.99416651553837L-18.30374442838615,99.9937421557807L-18.105471013069188,99.99263850681533L-18.10271496735976,99.99262195943422L-17.647766674647304,99.98936168549088L-17.54018225773488,99.98841582726146L-17.39079172433902,99.98697262677851L-17.242478464294,99.98537656069377L-17.21931551790343,99.98511154621538L-17.146665008838987,99.98425123604237L-17.111804490821754,99.98382231354984L-16.792805334206776,99.97936512497355L-16.77214734439091,99.97904067285792L-16.755797619944357,99.97878056213935L-16.755318320566126,99.978772892223L-16.509361063079233,99.97448243488344L-16.478876792224455,99.97389848009263L-16.37712651976831,99.97185939754586L-16.271424532768904,99.96958726799139L-16.248736228759476,99.96907816864083L-16.075949802238245,99.96493754295656L-15.920352632819645,99.9607815234943L-15.885511555514094,99.95979138150484L-15.81422490341875,99.95769411739862L-15.502488393255065,99.94730166766686L-15.47742887878845,99.94637306296677L-15.463062186769804,99.94583402034041L-15.261238432940019,99.93772418565098L-15.205216530780879,99.93528610849964L-15.164054812517099,99.93344011684027L-15.119095597216628,99.93136957555912L-15.077791310842473,99.92941629497611L-14.707947143005146,99.90956230613726L-14.64205069993136,99.90553990139051L-14.621796962925968,99.90427176327195L-14.529725272887498,99.89831254090107L-14.494925866847788,99.8959751412824L-14.488386460885042,99.89553057929675L-14.360454756161179,99.88648502846188L-14.34023383587909,99.88499303306075L-14.331624246980398,99.88435248524208L-14.176049581378827,99.87221668023899L-14.164469081658446,99.87126957927855L-14.14098528156881,99.86932979267543L-14.01400570500477,99.85838436435522L-13.95454887653731,99.85298533682275L-13.910256193201226,99.8488455761836L-13.833300220774515,99.84140715151337L-13.725430349392118,99.83043654154488L-13.691924056132866,99.82689524074497L-13.575030223099086,99.81402503291793L-13.524340299129248,99.80818726792552L-13.520524232322373,99.80774133959271L-13.439107166340975,99.7980079031779L-13.353151818376762,99.78726554969636L-13.35227687812405,99.78715367999983L-13.338344591775526,99.7853653492101L-13.131757970892192,99.75726371976383L-12.970834688549157,99.73320323934783L-12.96844203420246,99.7328304150894L-12.938027061626576,99.72805159560846L-12.869712043288189,99.71704691050665L-12.861329373412596,99.71567036378589L-12.854980423903854,99.71462392668681L-12.743391774576681,99.69568028558385L-12.712624473672825,99.69026994387285L-12.615461986447462,99.67263613846823L-12.563927935859143,99.66293756251116L-12.520233707963815,99.65452201157775L-12.463755947448487,99.64337766845335L-12.413335334323031,99.63316964751276L-12.40330221697527,99.63110881029567L-12.38750697431639,99.62784434254975L-12.306441006039034,99.61069870782353L-12.19263031047834,99.5854932157913L-12.063615160151938,99.55525487616327L-12.040995812824077,99.54976527835517L-11.988113880727525,99.53670688582847L-11.901182017266636,99.51454499661921L-11.88176340039763,99.50947422781132L-11.856241325985774,99.50274185853503L-11.848589115040326,99.50070821529407L-11.841396202292326,99.49879025624281L-11.840336776472013,99.49850724177146L-11.821631696024614,99.49348818756164L-11.79258717245794,99.48561110770105L-11.71005722491377,99.46266475107464L-11.546662298275411,99.41470097297255L-11.534833291355742,99.4110942962725L-11.519584030634746,99.40641748310016L-11.489216573043985,99.39701193053693L-11.459801298020986,99.38778344139293L-11.40089240736952,99.36894893824001L-11.363054375378104,99.35659975375387L-11.275819228720406,99.32736531241537L-11.2564040364679,99.32071186610597L-11.078221371465395,99.25708075048202L-11.019930987105015,99.23523405901157L-11.012061995615007,99.23224502234031L-10.920885394727728,99.196911031041L-10.917492099170323,99.19557089050117L-10.727552043133693,99.11760816451454L-10.715389261747049,99.11241495160165L-10.70880742368629,99.10959440442L-10.69070819671337,99.10180098427902L-10.678812156155916,99.09664875796848L-10.668187871961932,99.09202724420192L-10.634895719713223,99.07742197957464L-10.573932424106626,99.05018849542914L-10.544368333218284,99.03675164635905L-10.454826564600545,98.99512529811993L-10.431920318434347,98.98424955831608L-10.424101328411812,98.98051577892943L-10.419913441177673,98.97851146409L-10.416027451539572,98.9766488348093L-10.404455401678367,98.97108613020504L-10.395556391018687,98.96679203643991L-10.326856858663382,98.93316113705998L-10.270160351608263,98.90475841108972L-10.259302555353365,98.89925158646084L-10.203975320466938,98.87085094825677L-10.191791940936449,98.86452018240091L-10.163520078738035,98.84972198382404L-10.156597574556033,98.84607560125026L-10.151813388344143,98.84355026809342L-10.053700590155849,98.79079976879474L-10.007512513880371,98.76532543645959L-9.96219860836206,98.73992933828212L-9.933853218033766,98.72383826225695L-9.88570115097603,98.69613900081548L-9.880245420756223,98.6929715396553L-9.860070287393514,98.68120671754595L-9.85545215567762,98.67850226868555L-9.820599211055676,98.65795371743879L-9.733120514944158,98.60529553667054L-9.69947281514886,98.58462511120358L-9.698278715299653,98.5838872762689L-9.633917684083285,98.54368248219292L-9.600899455360791,98.52272268393676L-9.600668152586339,98.52257505082456L-9.585993337524767,98.51318568249381L-9.572212893758401,98.50432743449234L-9.526391406430019,98.47458526950686L-9.4429829619549,98.41930288350478L-9.327523108871135,98.34031328301025L-9.197068711093387,98.24757124556294L-9.1816514225859,98.23636316397979L-9.119548670371204,98.19068097311467L-9.119210245753075,98.19042967741515L-9.096433272964404,98.17345790529689L-9.077363029829405,98.15915881170186L-9.052423132141527,98.14033544911337L-9.03393146358201,98.1262885862626L-8.913160824396826,98.03264595061285L-8.888095759738441,98.01279568355604L-8.818941649667531,97.95728386869511L-8.816452696475395,97.9552654701931L-8.805072345878227,97.9460185151248L-8.751822424750758,97.90235471935651L-8.730195074428476,97.88443389355635L-8.70040220444239,97.85956975376062L-8.698724736029662,97.85816368029508L-8.69860290085011,97.85806153122837L-8.688477983089905,97.84956056905791L-8.63422810964747,97.80360652304601L-8.62056801249417,97.7919274496052L-8.582775673228003,97.75938929612279L-8.509498628959648,97.69534942745072L-8.479343061589976,97.66863017363931L-8.428425784309763,97.62303087765913L-8.27467675318983,97.4816394124286L-8.227934576627598,97.43754980363416L-8.177391592317962,97.38929492917325L-8.129827605049108,97.34333348997141L-8.12698885167293,97.34057349544526L-8.103323803057483,97.31749100062694L-8.083759984705935,97.29830899094351L-8.083356228470224,97.29791216332436L-8.081088589547452,97.29568272337598L-8.080571406906186,97.29517408291355L-8.0508413394891,97.26582899473253L-8.02688937831651,97.24203557462097L-7.979901910296734,97.19496631182949L-7.966460632355246,97.18140597621547L-7.9122916188325165,97.12632627356678L-7.830686601776689,97.04204798985388L-7.819871699859014,97.03076164559367L-7.787394047715311,96.99670373966383L-7.759804567223359,96.96757821450583L-7.740141660878301,96.94671217871513L-7.655693257899851,96.85607367169061L-7.586094430264212,96.78013098779445L-7.5744723726889145,96.76734069950429L-7.448845646669891,96.62710966779748L-7.418929532263309,96.59318537028614L-7.415754134847637,96.58957262311144L-7.399581524880591,96.57113715745128L-7.337832739907032,96.50020615449831L-7.3308790159662784,96.49216473238006L-7.313606070156066,96.4721431363719L-7.284125312675389,96.43781724711566L-7.242556031533681,96.38908781563067L-7.230238636793971,96.37457532420872L-7.221959941377435,96.36480245862835L-7.201091913360017,96.34010112081097L-7.189462575938071,96.3262940353049L-7.151093780865268,96.2805302260634L-7.136147219085657,96.26261604401424L-7.052104046609347,96.16098636869916L-7.04906305668622,96.15728057071837L-7.000920136430347,96.09835030223168L-6.958627644084707,96.04617642394656L-6.912377648295928,95.98869101504667L-6.852022852066965,95.91300721620793L-6.796392512872887,95.8425873427057L-6.793739198974448,95.83921296153764L-6.727707104522988,95.75478120497893L-6.715869768563993,95.73955368610868L-6.698435293199119,95.717075677672L-6.69802837606374,95.71655033134292L-6.642322573065537,95.64432662731814L-6.617017978344307,95.61132012806559L-6.59926058282692,95.58808462859683L-6.5451542944707635,95.51691772112495L-6.528006522391543,95.49424815156041L-6.486374878777466,95.4389835877174L-6.419495919161758,95.34954088847587L-6.407187469374286,95.33299204435217L-6.262718883837335,95.1367728059173L-6.230083059485682,95.09195453983777L-6.199706074974392,95.05008042839557L-6.178981753266964,95.02142614145602L-6.139273080758538,94.96633090246861L-6.129235566763123,94.95236442381814L-6.108564743176874,94.92355277042664L-6.107935170555172,94.92267420804819L-6.0262567507753895,94.80817906298617L-5.987730583800898,94.75382793383034L-5.913764563220016,94.64888168078609L-5.886087849028441,94.6094164390195L-5.871297026608581,94.58828294597453L-5.842777910015816,94.54745148520523L-5.837155781863619,94.53938946195424L-5.8072326109607255,94.49641093494122L-5.805612171818835,94.49408020579253L-5.7719517818899275,94.4455899864508L-5.770702701642092,94.44378785305861L-5.746978275413761,94.4095222929827L-5.6863001649427725,94.32157383950371L-5.672624980443937,94.30169275397944L-5.666400662334935,94.29263666308002L-5.625753020457822,94.23338852726518L-5.6142922058945155,94.21665003650288L-5.613951188113905,94.2161517609941L-5.516028085861273,94.0725648778995L-5.511989662938428,94.06662228207033L-5.473815171700816,94.01036998483222L-5.470867534815821,94.00602070548028L-5.45068592710899,93.97622077288986L-5.442382645472243,93.96394938853231L-5.415031929833448,93.92348414155559L-5.372408417051048,93.86029343280138L-5.34699180354833,93.82254054924488L-5.274609291938051,93.7147507225364L-5.21790311652091,93.63004258608494L-5.1997900836775734,93.60294041736384L-5.169062591366082,93.5569170565353L-5.165868049511715,93.55212906133805L-5.1242594947251545,93.48971307766445L-5.121606666862141,93.48573041794201L-5.081995375577245,93.42621945311372L-5.00022385360541,93.30313867981957L-4.9872106839876515,93.28352649329752L-4.9489698250447365,93.22585931375725L-4.916471357055326,93.17681558062287L-4.8868491054557746,93.13208747663897L-4.874593675589427,93.11357628149553L-4.855716840193316,93.08505757190846L-4.771580052266209,92.95787577784812L-4.765234212625483,92.9482801292303L-4.694096534606708,92.84070062210867L-4.678645028890228,92.81733387486125L-4.604844885792322,92.70575336188708L-4.586435928575853,92.67793092688763L-4.570866828130509,92.65440513805892L-4.516592260158561,92.5724341193194L-4.511654031586881,92.56497956880823L-4.445399088012074,92.46503692587123L-4.444623577637909,92.46386799773776L-4.430261591899124,92.44222431556052L-4.428413902480628,92.43944041156288L-4.376987186491652,92.36201407181663L-4.37004109207301,92.35156543895359L-4.368515043396529,92.34927019793533L-4.364903975048541,92.34383945205397L-4.339620139576732,92.30583300519973L-4.325606537293725,92.28478227009073L-4.29283366882673,92.23559479086254L-4.292473735641736,92.23505492788232L-4.2811507782472455,92.21807563366688L-4.261978000484025,92.18934322500135L-4.243644100899509,92.1618900153748L-4.220490361340726,92.12725180664758L-4.199225028840889,92.09547183122496L-4.190672935592675,92.082700440662L-4.179241480773266,92.06563766515838L-4.1410689119768875,92.00873427287237L-4.10691075612613,91.95791630163069L-4.064459256681398,91.89490260686254L-4.059665606690626,91.8877974453543L-4.058657218194825,91.88630308443416L-4.044672489876906,91.86558867126737L-4.016700659347786,91.82421341137663L-3.981649069452224,91.77247767227796L-3.9740464014133345,91.76127320233415L-3.926067673430948,91.69071005655233L-3.9160344593772134,91.67598681344182L-3.8811776631128434,91.62492800606432L-3.8647115746302516,91.60085911385185L-3.844288996630195,91.57105367892153L-3.8274954900099107,91.54658428504415L-3.6668911310507526,91.3145232872475L-3.6206138392989877,91.24836690616705L-3.6134764937251416,91.23819401116432L-3.5620654152495588,91.16516570884345L-3.5228764157696517,91.1098002820749L-3.5120470915104987,91.09454827337309L-3.5036053063432235,91.08267336620277L-3.4981999102906127,91.07507640922361L-3.4131123887795765,90.95620161818681L-3.383239959125394,90.91479477363355L-3.3401908067503197,90.85543561871378L-3.3211282418515093,90.82927140623362L-3.3203232601499955,90.82816818784066L-3.278909526503007,90.77159477143711L-3.269670428306811,90.75902343261055L-3.241487820939506,90.7207905828619L-3.1262765241276704,90.5663487693069L-3.105073261308913,90.53826257742146L-3.0155605519882513,90.42090420676352L-2.9973460422402107,90.39726982790306L-2.985214174921086,90.38157535866053L-2.9442198598559375,90.32882669128975L-2.9415660124755534,90.32542716499819L-2.9200409411529176,90.2979233963796L-2.9162174095697697,90.29305085608028L-2.8407646717872415,90.19771436113245L-2.7666479195184146,90.10562257275426L-2.7530152336156837,90.08885644800395L-2.752276362589206,90.08794930632224L-2.752211947834719,90.08787022934231L-2.7421761844842982,90.07556502930791L-2.682787447988151,90.00336052415597L-2.645557167559516,89.95864124976077L-2.64210864589478,89.95452064410964L-2.6273303675529327,89.93690405042382L-2.6082246818574695,89.91423004192691L-2.5278998473603145,89.82017237479303L-2.4945978320719275,89.78179010473657L-2.4919774927584455,89.77878554324992L-2.4705240939327524,89.75427222838486L-2.4094384758598353,89.68532162880705L-2.359658737740558,89.63007733564879L-2.158499318596998,89.4158336827941L-2.148258415206259,89.40532511834209L-2.1165909502509357,89.37308124715761L-2.1108547523289567,89.3672814804037L-1.8640381767743706,89.12996454509143L-1.8523853262547463,89.1193675566934L-1.8344017013536404,89.10312382069368L-1.7870502809475144,89.06099897050207L-1.7761805239796935,89.05146193898253L-1.6608149994024004,88.95334762308399L-1.6540189135681231,88.94774690250617L-1.6462967948471117,88.94140747815716L-1.6460256975844487,88.94118539570908L-1.6437772168039977,88.93934468178604L-1.4708671093241341,88.80450238350792L-1.4343103825846661,88.77771780057735L-1.3659092170407618,88.72924976109728L-1.3462858022324051,88.71574487568496L-1.2473641242620128,88.65041491543309L-1.1796873281202196,88.60839220662713L-1.1241636490255718,88.5755580930601L-1.1172924658551224,88.57159846376345L-1.0929302479140819,88.55774418319643L-0.9651497933100448,88.48983846020134L-0.9166050749988608,88.46615662457505L-0.9109290575485531,88.46346436786088L-0.8786348477461807,88.44845327892111L-0.8782182404767416,88.44826304475315L-0.8451023000625859,88.43342038177863L-0.8222384580070692,88.42349499780082L-0.8142901635692947,88.42010639170192L-0.7869829988402629,88.40870802097398L-0.7396533596472343,88.3898482579349L-0.7200219237101404,88.38236020771546L-0.695999858110222,88.37346518804442L-0.682398586432414,88.36855973970314L-0.6781959165409452,88.36706316658078L-0.6767733535777258,88.36655864209445L-0.6413183627745831,88.35431975074968L-0.6075032687743969,88.34324931460965L-0.4495835919818199,88.29938384180659L-0.44833331681549,88.2990882866843L-0.32760397444849143,88.27439951658965L-0.31747976657704247,88.27267635236389L-0.2516739470408112,88.26278949407681L-0.1951497330930487,88.25611771697895L-0.17152017262522423,88.25382807567802L-0.08431490058702892,88.24793026668515L-0.059799359269552405,88.24699601781231L-0.02921185463912772,88.2462760161888L-0.01816865027888112,88.24613764191459L0.04627560226535978,88.24661666033208L0.05247435884221536,88.24677853688351L0.12653470081872142,88.25028391918846L0.15057340732695998,88.25204483127158L0.2110434081351966,88.25782348347796L0.2400505360171768,88.2612800022532L0.26929284481779403,88.2652132637269L0.3515889289526147,88.2786965631542L0.35865985227672553,88.28002096725007L0.4207740036451725,88.29278073164586L0.48293744796299365,88.30756931863895L0.49008474181646583,88.30939875676916L0.5575386719055652,88.3279719511117L0.565648362747852,88.33036383843962L0.5674992782328941,88.33091452271356L0.5693325153952257,88.3314616949085L0.5705819483792111,88.33183561366155L0.6036852184726652,88.34203638387767L0.651495592751447,88.35776680975422L0.6568982238431536,88.35961832832457L0.6864978682941498,88.37002821611826L0.6869651093992262,88.3701961413837L0.7179675091935553,88.38158795644986L0.7439342441122688,88.39150721859379L0.7468505114481451,88.39264269833296L0.7619675718586013,88.39859806718603L0.7868146864708973,88.40863893647793L0.8042373318807935,88.41586630166543L0.8102026327072994,88.4183761835059L0.844869304630538,88.4333179071843L0.8637311915026711,88.44170206672067L0.8768729275512381,88.44764933314076L0.8810525874716186,88.4495590034659L0.9289022948371507,88.47204463284969L1.0626029217050703,88.54090184295589L1.10286598185408,88.56335956862944L1.1358457800100896,88.58234263992463L1.1819656709961053,88.60977124522945L1.208668361099391,88.6261194934257L1.2385861492361292,88.6448410574144L1.2646881523987503,88.66152270001777L1.2885267645497211,88.67703971760588L1.311606788540709,88.69231823606934L1.3331525323622366,88.70680680074375L1.3348704647181455,88.70797138927854L1.3652300978482954,88.72877939689232L1.47905064243764,88.81058175565629L1.5093724316072068,88.83337175332872L1.5239531640867177,88.84447850023184L1.5667338582006851,88.87761673729058L1.5889330119043334,88.89513397895159L1.6012715671143256,88.90496472280459L1.6223286519792626,88.92189714250372L1.6299481453581524,88.9280721919537L1.663284061503252,88.95538738311404L1.714049028745642,88.99791133391915L1.7217996585119595,89.0045015336565L1.7749786898544277,89.05041052395896L1.8746160723363274,89.13963250524104L1.9186658344170135,89.1803864446806L1.9481680718077938,89.20812267807675L2.0204093017513314,89.27751309814687L2.0414979945334464,89.29815925664111L2.0553819385443677,89.31184691675178L2.058474932868219,89.3149064228137L2.1049345339483274,89.36130885323385L2.147772022498068,89.40482699743914L2.149374008955016,89.40646794948695L2.215342592894877,89.47487651478173L2.282507301914203,89.54617505876413L2.331693639739446,89.59942147001304L2.34263009542251,89.61137746320792L2.381658789707507,89.65438656817184L2.4061319667293577,89.68162561595402L2.4411072477450437,89.720910133071L2.5197221381162387,89.81071342058529L2.523605637929924,89.81520264266057L2.606011950942367,89.91161145323088L2.6706247734272672,89.9887045569929L2.68189840197114,90.00228770038788L2.7249949253019974,90.05456765531828L2.75750174032483,90.094368155534L2.815902856748821,90.16664798083421L2.8281174054302016,90.18188897557759L2.8305863497046353,90.18497479455098L2.8354407864473177,90.1910471481717L2.8478758524725993,90.20663225800129L2.8693374708214883,90.23363215397518L2.921890566976165,90.30028189032903L2.9687533711223044,90.3603417945069L2.9993702139737097,90.39989210628855L3.001817088789859,90.40306339530137L3.0078849643041283,90.41093433514654L3.0281674736123736,90.43731194765441L3.063467104764321,90.48346669019848L3.1183890153064877,90.55588827886253L3.1604308492070197,90.61181433894667L3.1935032087932256,90.65609823005164L3.1936223051293857,90.65625815304773L3.1944851984378184,90.65741694570568L3.255811813514403,90.74020104372855L3.2848935062722613,90.77974674837391L3.299493419720706,90.79966821909125L3.4133173705109203,90.9564863495689L3.450614231878106,91.00842788303854L3.4792104799419916,91.04842987406599L3.4990907411978927,91.07632805592802L3.535407587953623,91.12747501217066L3.602927930233643,91.22317427478318L3.6516512142885293,91.29269958581885L3.6867454781436027,91.34300858815413L3.687265775847319,91.34375587349824L3.6892570528727116,91.3466162527803L3.717869422885238,91.38778209537838L3.8080607527195736,91.51831210278087L3.838853465194466,91.56312974653568L3.862861508617869,91.59815691327665L3.8824470535199427,91.62678488104218L3.884102159204246,91.62920627688699L3.88917253144843,91.63662621811481L3.897931373962528,91.64945110411136L3.9592705457238835,91.73951500484833L4.033558764209481,91.84914028410694L4.040227981470601,91.85900932667514L4.1183531315945565,91.97492838047253L4.144677528357745,92.01410860333635L4.1799232479891115,92.06665500417472L4.182615602332063,92.07067290511719L4.190115629765694,92.08186836870837L4.194322047628108,92.08814923120232L4.196786936576677,92.09183031983592L4.22516302330305,92.13423917596569L4.239689466856545,92.1559712566328L4.2820256854660474,92.21938731945579L4.282655420687041,92.22033146542799L4.3698556874155985,92.35128657657108L4.375478687249782,92.35974472222492L4.401450252973556,92.39883041862684L4.411740859427829,92.414325507206L4.448762761703513,92.47010725757606L4.478548223409402,92.51502291891235L4.505300410056635,92.55538940907039L4.51117676939505,92.56425914912681L4.512028695872472,92.56554512307065L4.517802768857441,92.57426155706229L4.529860488114195,92.5924665643662L4.537926314237785,92.60464661235522L4.540951903016443,92.60921590885178L4.549355535668348,92.62190835949193L4.55336463253325,92.62796408268909L4.610135739048769,92.71375069006838L4.633371306071509,92.74887660569757L4.647554056746031,92.77032015180471L4.654822438778817,92.78131028457692L4.662063352617865,92.79225931028942L4.691678853159085,92.83704439512874L4.770382532814956,92.95606501191479L4.948119767965489,93.2245768844757L5.005591208623655,93.31122599283232L5.047113527239681,93.37375129012653L5.066619908295408,93.40309904814318L5.0701062338018295,93.40834247815627L5.083034200490848,93.42778115139205L5.084172338193035,93.42949209011243L5.190913747684371,93.58965141690638L5.201364182157418,93.60529653169492L5.203935515375559,93.60914497565219L5.240180593253432,93.66334681334583L5.253674694476715,93.68350399540336L5.2798676197886225,93.72259437369475L5.298277675419267,93.75004019318516L5.320924710441168,93.78376803217374L5.328644031214048,93.79525536625677L5.339076916042353,93.81077347662605L5.3553080403577065,93.83489893094425L5.368094971656652,93.8538901092448L5.410045694594901,93.91609992062719L5.417772175129661,93.92754130458462L5.46286583823293,93.99421000007396L5.508898062633578,94.06207186802823L5.526744461611248,94.08832637025384L5.541257791390894,94.10965410255987L5.551757472317218,94.12507040021933L5.578593729065102,94.16442155042402L5.581938580572123,94.1693209832208L5.626511306944026,94.23449549449516L5.680534525688837,94.31319434632039L5.693671182119282,94.33228087704939L5.73895481406929,94.39791823676676L5.767750755160039,94.43952810566707L5.771958795957268,94.44560010557538L5.792545526008226,94.47527378375715L5.809118521098779,94.4991230756189L5.8215045486666925,94.51692413394933L5.862214914991688,94.57529162791097L5.914135815398525,94.64941034788897L5.9219501704388975,94.66053364651854L5.936339262160695,94.68099349437352L5.946323669424171,94.69517327704483L5.97631518344438,94.7376820542276L6.049917727362962,94.8414503019236L6.097501114097489,94.90810464902155L6.117907889094331,94.93658379910806L6.122345012780036,94.94276756076518L6.154862321699474,94.98799068450512L6.211411462292129,95.06623396927287L6.242504378138963,95.10903339028849L6.288719258985058,95.17235123024972L6.31429973323406,95.20724333564615L6.31459658217923,95.20764758607508L6.317394529711856,95.21145710356647L6.362135442142678,95.27219016152722L6.417036720661611,95.34623663081547L6.4287333473371175,95.36194292365549L6.461034638119642,95.4051894205833L6.506594013923915,95.46586377089238L6.541137607483853,95.51161253455727L6.592755967254907,95.57955830468043L6.612259866598082,95.60510006516412L6.623586338161605,95.61989951625182L6.68316823007356,95.69734304091291L6.728786938933827,95.75616892128079L6.7387455446000555,95.76895602137346L6.775673492316763,95.81620001254817L6.841939551361255,95.90028997090283L6.926846063407287,96.00672216386192L7.004882328973459,96.1032188928987L7.007193241143497,96.1060569180723L7.0238283727106525,96.12645304766396L7.025465023692683,96.12845654865538L7.07585765789047,96.1898647421055L7.090144156694496,96.2071751613159L7.141071457908485,96.26852335052051L7.170582120228795,96.30381485291416L7.171621832181795,96.305054769052L7.2393650967576075,96.38533143712277L7.263858318784735,96.41410721165494L7.269167228951725,96.42032683843L7.300537940162756,96.45695117920798L7.343400413757975,96.50663690998708L7.385042397829418,96.55451329638171L7.44365605194564,96.62123932448964L7.460855514882284,96.6406714680059L7.504511634426993,96.68969215185396L7.52550711110824,96.71311260516144L7.536360273258584,96.72517973599393L7.679729443914429,96.88204035585656L7.698581077689432,96.90231227989933L7.705170588255459,96.90937877379616L7.706524609813481,96.9108295563999L7.75673439291417,96.96432612276014L7.78742303196375,96.996734244134L7.852345188642309,97.06456834647557L7.946221069088258,97.16090691082874L7.964955437936528,97.179884801176L7.973998072685788,97.18901541884584L7.975679829305912,97.19071141552136L8.048274104224348,97.26328522483661L8.122682268027763,97.33638276304221L8.173483826708473,97.38553895960163L8.17781600386525,97.38970263758304L8.297001103417431,97.5025150370738L8.355116272676034,97.55630791136373L8.40327601176142,97.60028314999786L8.414724433786656,97.61065657416756L8.41986232295302,97.61530200245294L8.439457889775086,97.63296240826497L8.462620580130013,97.65372135948446L8.483927589783114,97.67270602203062L8.484585326767865,97.67329037503568L8.566467419051717,97.74524541800922L8.582847425495602,97.75945138847467L8.603753004760083,97.77749131670228L8.637967359538285,97.8067959244786L8.662444072420731,97.82759307319357L8.67641627786534,97.83940242603775L8.698192395296916,97.85771732978193L8.70135066012351,97.86036447166869L8.736298485044372,97.88950224459178L8.74625695318365,97.8977533954072L8.850977710298217,97.98313630114208L8.86399851136125,97.99357655010057L8.90218427454901,98.02397072234305L8.972654182917031,98.07918887894931L9.004119793563367,98.10348038112977L9.008034262553512,98.10648669225587L9.016128053097132,98.11269174339157L9.04347650988789,98.13354892103888L9.124314666062068,98.19421722645761L9.185602251022752,98.23924036085111L9.216668838633149,98.26174423885746L9.224678062442115,98.26751134339511L9.252895607023778,98.28771696185541L9.264097697265301,98.29568982930414L9.302367210976767,98.322719853153L9.30262429077656,98.32290034691009L9.30902066852075,98.32738654801364L9.332622352917346,98.3438627622766L9.385628197741765,98.38042470683682L9.415643416806152,98.40085893020904L9.419168528868683,98.40324607718392L9.438312577990867,98.41616348481904L9.460518470393698,98.43104843035408L9.463705392847881,98.43317601574168L9.571244667418476,98.50370354613462L9.593133387565807,98.51775972763016L9.658585399861481,98.5591932398578L9.721761207584382,98.59834328736886L9.732860904902381,98.60513694251038L9.739647662113187,98.60927839593391L9.787137399710295,98.63799482220544L9.792579923100202,98.64125654805265L9.81584714331922,98.65513305235454L9.842586931842442,98.67094564089618L9.84886581775424,98.67463781071748L9.868913717787937,98.68637364743819L9.913542577402685,98.71221076047297L9.918171484199267,98.7148679195918L9.939744486093003,98.72719565082258L9.974505662004242,98.74686657695884L9.978253042222946,98.74897299845541L9.987525525184715,98.75417328515613L10.04961152341691,98.7885611803994L10.07257764663417,98.80109233259049L10.141236785625452,98.83795202348996L10.181955588885684,98.85938865771074L10.206722530970685,98.87227461930532L10.225992873861832,98.8822213201215L10.247401547658178,98.89319060273823L10.274438580220984,98.90692224904754L10.322198895658811,98.93084988350392L10.367743780815344,98.95327962325675L10.462148218199902,98.99858194049422L10.542571795112307,99.03593024409301L10.584391446762618,99.05490599151912L10.597747098744357,99.06090267265614L10.638480162598183,99.07900348685197L10.64436394978019,99.08159477344391L10.65335119521722,99.0855415417677L10.682939604820337,99.09843906286645L10.717222749650446,99.11319938064716L10.766118454416747,99.13391313788584L10.811757444756454,99.15289269440984L10.857290101872437,99.17149094506674L10.87952149603176,99.18045043814162L11.022589166439003,99.23624161766512L11.242826915438222,99.31602691290551L11.272573939225188,99.32625693314542L11.275526977263956,99.32726556006537L11.276801895824793,99.32770063047663L11.320503219803603,99.34247403204142L11.334729173305016,99.34722488539889L11.344792000500508,99.35056826308939L11.45278519071478,99.38556502229162L11.47711963048903,99.39323084354287L11.569570790915398,99.42163346129284L11.608209050234482,99.43317083407307L11.675046951521685,99.45267467240784L11.693613401653181,99.45799174583146L11.703875786162724,99.4609120852624L11.821352748392734,99.49341302020213L11.871914431887129,99.50688536228405L11.88457146340816,99.51021024402836L11.924648767938491,99.52061380807406L12.038177959967236,99.54907739793657L12.071895586595717,99.55725026177092L12.079569207073206,99.55909264280469L12.232344154281554,99.5944419073038L12.257707629154073,99.6000705378667L12.278589079241566,99.60465443357428L12.286162488501574,99.60630584224022L12.340405912495806,99.61796271933233L12.343534777273973,99.61862602279109L12.347781297635278,99.61952468987828L12.414046406776007,99.63331532965056L12.423346520234936,99.63521615160374L12.424141569803615,99.63537825730927L12.473064416354772,99.64523537351047L12.483920689940529,99.64739149207134L12.572766214002126,99.66461823734079L12.678739513900828,99.68421556857841L12.679693107386376,99.684387335991L12.73277817874748,99.69382320370654L12.737846331225832,99.69471120481192L12.844268630405939,99.71285084646075L12.90362631516509,99.72255735356836L13.141808143163235,99.75870159187808L13.169377726211366,99.76260791625485L13.187935026410393,99.76520614338902L13.193405662579499,99.76596734377435L13.220960077579056,99.76976870518645L13.252563811769294,99.77406224669778L13.281324984449277,99.77790865661771L13.331033706144,99.78442168343493L13.408679379697519,99.79426082141336L13.482653395449443,99.80326632785224L13.836691320309832,99.84174162162715L13.920773057848551,99.8498377543448L13.967572834425845,99.85418334290836L14.087076768972956,99.86477830232482L14.119792073066092,99.86755695288427L14.237389872095358,99.87713072063951L14.263199118093384,99.8791475355257L14.308091069861675,99.88258536866395L14.383251290046498,99.88814633477634L14.414767563493594,99.89040734934842L14.478668307934516,99.89486678137557L14.485203673818207,99.89531359303729L14.700323986878026,99.90910497361499L14.70045520987715,99.90911286353479L14.720378309710243,99.9103036561428L14.729580056165567,99.91084889759769L14.788143573553485,99.91424985120948L14.796124571831006,99.91470419265909L14.845890841771906,99.91748881010771L14.870411065410364,99.91883052231613L14.897178205406487,99.92027274970192L15.206369440832976,99.93533714057557L15.207754010177768,99.93539837867623L15.28957622193052,99.93892553052886L15.29223698298033,99.93903724612944L15.361584850292994,99.94188445993485L15.375706134676728,99.94244926115022L15.375994751312158,99.94246075275178L15.659016808918974,99.95277910727484L15.670376678478142,99.9531557281199L15.728726574022708,99.95504752987094L15.736080840913633,99.95528096728L15.737865496102188,99.95533744875509L15.82934906167686,99.95814722761448L15.868777502896481,99.9593077617932L15.923901117826272,99.960881108812L15.96537240049283,99.96202798288724L16.040176363816563,99.9640193496374L16.049440186825972,99.96425920790655L16.210611986057213,99.96820509895365L16.311114441465445,99.9704594356397L16.348122073207268,99.97125194940881L16.39740600114222,99.97227709896217L16.515478048799512,99.97459815618394L16.546306188272418,99.97517406151064L16.619644932533877,99.9764962224215L16.660110297283776,99.97719771126619L16.690922894291113,99.97771889087062L16.740502897654252,99.9785345478573L16.776501566153584,99.97910944806675L17.016068695869023,99.98258823299652L17.022045447667498,99.98266775045643L17.039673285114286,99.98290033065615L17.073158106435248,99.98333420808527L17.074465756266584,99.98335094372337L17.07829419506382,99.98339985184478L17.08664499728887,99.983506072783L17.11777000366741,99.98389647034139L17.13423074915066,99.98409946624093L17.30827047444013,99.98610568865291L17.341815696770393,99.98646435275845L17.45018290084018,99.98756525300941L17.494316683890847,99.98798934120072L17.511414927332048,99.98815000533826L17.512221735006936,99.9881575370533"></path>
  </g>
  <g transform="translate(0,0)" width="100" height="100" class="main">
    <g transform="translate(0,100)" class="main axis date">
      <path class="domain" d="M0,6V0H100V6"></path>
    </g>
    <g transform="translate(0,0)" class="main axis date">
      <path class="domain" d="M-6,0H0V100H-6"></path>
    </g>
  </g>
  <ellipse class="ellipseeigen" cx="50" cy="50" rx="12" ry="40" fill="none" stroke="#f00"
           transform="rotate(45,50,50)"></ellipse>
  <line x1="50" y1="34" x2="50" y2="67" stroke-width="1.5" stroke="#00f" stroke-dasharray="1, 1"></line>
  <line x1="50" y1="67" x2="50" y2="100" stroke-width="0.5" stroke="#000"></line>
  <line x1="50" y1="34" x2="86" y2="34" stroke-width="0.5" stroke="#000" stroke-dasharray="1, 1"></line>
  <line x1="50" y1="67" x2="86" y2="67" stroke-width="0.5" stroke="#000" stroke-dasharray="1, 1"></line>
  <line x1="90" y1="50" x2="0" y2="50" stroke-width="0.5" stroke="#000" stroke-dasharray="1, 1"></line>
  <text x="-15" y="50" font-size="12" font-style="italic" fill="#00f">μ</text>
  <text x="-7" y="53" font-size="5" fill="#00f">2</text>
  <text x="45" y="107" font-size="12" font-style="italic">μ</text>
  <text x="53" y="109" font-size="5">1</text>
  <path
    d="M 6 5 L 6.406531 20.35309 L 194.7323 255.1056 L 4.31761 481.6469 L 3.767654 495.9135 L 373 494 C 376.606 448.306 386.512 401.054 395 356 L 383 353 C 371.817 378.228 363.867 405.207 340 421.958 C 313.834 440.322 279.304 438 249 438 L 79 438 L 252.2885 228.6811 L 96.04328 33.3622 L 187 32.99999 C 245.309 32.99999 328.257 18.91731 351.329 89.00002 C 355.273 100.98 358.007 113.421 359 126 L 372 126 L 362 5 L 6 5 L 6 5 L 6 5 L 6 5 L 6 5 z"
    fill="#00f" transform="translate(98,47)scale(0.01,0.01)"></path>
  <text x="102" y="54" fill="#00f" font-size="4">2</text>
  <line x1="100" y1="45" x2="100" y2="36" stroke-width="0.5" class="arrow" marker-end="url(#arrow)"
        stroke="#000"></line>
  <line x1="100" y1="55" x2="100" y2="64" stroke-width="0.5" class="arrow" marker-end="url(#arrow)"
        stroke="#000"></line>
</g>


</svg>
