<svg xmlns="http://www.w3.org/2000/svg" id="mainsvg" width="650" height="320">

  <defs>


    <style type="text/css">


      svg {
      font: 10px sans-serif;
      }

      .background path {
      fill: none;
      stroke: #ddd;
      shape-rendering: crispEdges;
      }

      .foreground path {
      fill: none;
      stroke: steelblue;
      }

      .brush .extent {
      fill-opacity: .3;
      stroke: #fff;
      shape-rendering: crispEdges;
      }

      .clusterbrush_panel {
      background-color: #f8efc0;
      }

      .clusterbrush_panel .clusterrect {
      fill: #fff7bc !important;

      opacity: 0.8;
      }

      .radialbrush_panel {
      background-color: #f8efc0;
      }

      .radialbrush_panel .radialrect {
      fill: #fff7bc !important;

      opacity: 0.8;
      }

      .axis line,
      .axis path {
      fill: none;
      stroke: #000;
      shape-rendering: crispEdges;
      }

      .axis text {
      text-shadow: 0 1px 0 #fff, 1px 0 0 #fff, 0 -1px 0 #fff, -1px 0 0 #fff;
      cursor: move;
      }

      .cluster_brush_c2 {
      opacity: 0.3;
      fill: green;
      background-color: #f8efc0;
      }

      .cluster_brush_c1 {
      opacity: 0.8;
      fill: green;
      background-color: #f8efc0;
      }

      .radial_brush_b {
      opacity: 0.2;
      background-color: #f8efc0;
      fill: green;
      }

      .radial_brush_h2 {
      opacity: 0.2;
      fill: green;
      background-color: #f8efc0;

      }

      .radial_brush_h1 {
      opacity: 0.2;
      fill: green;
      background-color: #f8efc0;

      }

      .ss_point_active {
      background-color: red;
      fill: red !important;
      }

      .OA_buttons {
      height: 30px;
      background-color: #f8efc0;
      -moz-border-radius: 20px;
      -webkit-border-radius: 20px;
      -khtml-border-radius: 20px;
      border-radius: 20px;
      margin-bottom: 10px;
      overflow: hidden;
      }

      .OA_button {
      display: table;
      margin: 3px;

      }

      .OA_twowayselect_container {
      display: flex;
      }

      .OA_twowayselect_container &gt; div {
      flex: 1;
      }

      .OA_twowayselect_left {
      width: 150px !important;
      min-width: 150px;

      }

      .OA_twowayselect_right {
      width: 150px !important;
      min-width: 150px;

      }

      .OA_twowayselect_middle {
      width: 30px !important;
      max-width: 30px;
      margin: auto;
      }

      .debrmanager_dialog_q {
      margin-top: 30px;
      }

      .debrmanager_dialog_q_text {
      font-weight: bold;
      font-size: 14px;
      }

      .debrmanager_dialog_q_choice {
      margin-top: 7px;
      }

      .debrmanager_dialog_container {
      background-color: #f8efc0;
      }

      .sslmanager_dialog_container {
      background-color: #f8efc0;
      }

      .sslmanager_dialog_q {
      margin-top: 30px;
      }

      .sslmanager_dialog_q_text {
      font-weight: bold;
      font-size: 14px;
      }

      .sslmanager_dialog_q_choice {
      margin-top: 7px;
      }

      /*.corrbrush_panel .extent {*/
      /*fill: red;*/

      /*opacity: 0.4;*/
      /*}*/

      .corrbrush_panel .extent {
      fill: #d95f0e;

      opacity: 0.8;
      }

      .corrbrush_panel .ellrect {
      fill: #fff7bc !important;

      opacity: 0.8;
      }


      .gmmlinerect {
      fill: #fff7bc !important;

      opacity: 0.8;
      }

      .gmmlinebrush_panel .extent {
      fill: #d95f0e;

      opacity: 0.8;
      }




    </style>
  </defs>



  <g xmlns="http://www.w3.org/2000/svg" transform="translate(-30,30)">
    <g class="corrbrushgrid" width="750" height="400" transform="translate(0,10)">
      <g class="clusterbrush_panel clusterbrush_panel_petal_len___petal_w_1" transform="translate(390,160)">
        <rect y="0" width="100" height="100" class="clusterrect"/>
        <circle cx="6.779661016949157" cy="95.83333333333334" r="1" fill="red"/>
        <circle cx="6.779661016949157" cy="95.83333333333334" r="1" fill="red"/>
        <circle cx="5.0847457627118615" cy="95.83333333333334" r="1" fill="red"/>
        <circle cx="8.47457627118644" cy="95.83333333333334" r="1" fill="red"/>
        <circle cx="6.779661016949157" cy="95.83333333333334" r="1" fill="red"/>
        <circle cx="11.864406779661019" cy="87.5" r="1" fill="red"/>
        <circle cx="6.779661016949157" cy="91.66666666666666" r="1" fill="red"/>
        <circle cx="8.47457627118644" cy="95.83333333333334" r="1" fill="red"/>
        <circle cx="6.779661016949157" cy="95.83333333333334" r="1" fill="red"/>
        <circle cx="8.47457627118644" cy="100" r="1" fill="red"/>
        <circle cx="8.47457627118644" cy="95.83333333333334" r="1" fill="red"/>
        <circle cx="10.169491525423723" cy="95.83333333333334" r="1" fill="red"/>
        <circle cx="6.779661016949157" cy="100" r="1" fill="red"/>
        <circle cx="1.6949152542372947" cy="100" r="1" fill="red"/>
        <circle cx="3.3898305084745783" cy="95.83333333333334" r="1" fill="red"/>
        <circle cx="8.47457627118644" cy="87.5" r="1" fill="red"/>
        <circle cx="5.0847457627118615" cy="87.5" r="1" fill="red"/>
        <circle cx="6.779661016949157" cy="91.66666666666666" r="1" fill="red"/>
        <circle cx="11.864406779661019" cy="91.66666666666666" r="1" fill="red"/>
        <circle cx="8.47457627118644" cy="91.66666666666666" r="1" fill="red"/>
        <circle cx="11.864406779661019" cy="95.83333333333334" r="1" fill="red"/>
        <circle cx="8.47457627118644" cy="87.5" r="1" fill="red"/>
        <circle cx="0" cy="95.83333333333334" r="1" fill="red"/>
        <circle cx="11.864406779661019" cy="83.33333333333333" r="1" fill="red"/>
        <circle cx="15.254237288135597" cy="95.83333333333334" r="1" fill="red"/>
        <circle cx="10.169491525423723" cy="95.83333333333334" r="1" fill="red"/>
        <circle cx="10.169491525423723" cy="87.5" r="1" fill="red"/>
        <circle cx="8.47457627118644" cy="95.83333333333334" r="1" fill="red"/>
        <circle cx="6.779661016949157" cy="95.83333333333334" r="1" fill="red"/>
        <circle cx="10.169491525423723" cy="95.83333333333334" r="1" fill="red"/>
        <circle cx="10.169491525423723" cy="95.83333333333334" r="1" fill="red"/>
        <circle cx="8.47457627118644" cy="87.5" r="1" fill="red"/>
        <circle cx="8.47457627118644" cy="100" r="1" fill="red"/>
        <circle cx="6.779661016949157" cy="95.83333333333334" r="1" fill="red"/>
        <circle cx="8.47457627118644" cy="100" r="1" fill="red"/>
        <circle cx="3.3898305084745783" cy="95.83333333333334" r="1" fill="red"/>
        <circle cx="5.0847457627118615" cy="95.83333333333334" r="1" fill="red"/>
        <circle cx="8.47457627118644" cy="100" r="1" fill="red"/>
        <circle cx="5.0847457627118615" cy="95.83333333333334" r="1" fill="red"/>
        <circle cx="8.47457627118644" cy="95.83333333333334" r="1" fill="red"/>
        <circle cx="5.0847457627118615" cy="91.66666666666666" r="1" fill="red"/>
        <circle cx="5.0847457627118615" cy="91.66666666666666" r="1" fill="red"/>
        <circle cx="5.0847457627118615" cy="95.83333333333334" r="1" fill="red"/>
        <circle id="brushedcircle1" cx="10.169491525423723" cy="79.16666666666666" r="2.5" fill="red"/>
        <circle cx="15.254237288135597" cy="87.5" r="1" fill="red"/>
        <circle cx="6.779661016949157" cy="91.66666666666666" r="1" fill="red"/>
        <circle cx="10.169491525423723" cy="95.83333333333334" r="1" fill="red"/>
        <circle cx="6.779661016949157" cy="95.83333333333334" r="1" fill="red"/>
        <circle cx="8.47457627118644" cy="95.83333333333334" r="1" fill="red"/>
        <circle cx="6.779661016949157" cy="95.83333333333334" r="1" fill="red"/>
        <circle cx="62.71186440677966" cy="45.833333333333336" r="1" fill="green"/>
        <circle cx="66.10169491525424" cy="41.666666666666664" r="1" fill="green"/>
        <circle cx="61.01694915254237" cy="41.666666666666664" r="1" fill="green"/>
        <circle cx="62.71186440677966" cy="37.5" r="1" fill="green"/>
        <circle cx="62.71186440677966" cy="45.833333333333336" r="1" fill="green"/>
        <circle cx="64.40677966101694" cy="29.166666666666664" r="1" fill="green"/>
        <circle cx="66.10169491525424" cy="41.666666666666664" r="1" fill="green"/>
        <circle cx="64.40677966101694" cy="45.833333333333336" r="1" fill="green"/>
        <circle cx="67.79661016949152" cy="33.333333333333336" r="1" fill="green"/>
        <circle cx="69.4915254237288" cy="37.5" r="1" fill="green"/>
        <circle cx="62.71186440677966" cy="41.666666666666664" r="1" fill="green"/>
        <circle cx="84.7457627118644" cy="0" r="1" fill="green"/>
        <circle cx="69.4915254237288" cy="25" r="1" fill="green"/>
        <circle cx="83.05084745762711" cy="16.666666666666664" r="1" fill="green"/>
        <circle cx="77.96610169491525" cy="29.166666666666664" r="1" fill="green"/>
        <circle cx="81.35593220338983" cy="12.49999999999999" r="1" fill="green"/>
        <circle cx="94.91525423728812" cy="16.666666666666664" r="1" fill="green"/>
        <circle cx="59.32203389830508" cy="33.333333333333336" r="1" fill="green"/>
        <circle cx="89.83050847457626" cy="29.166666666666664" r="1" fill="green"/>
        <circle cx="81.35593220338983" cy="29.166666666666664" r="1" fill="green"/>
        <circle cx="86.44067796610169" cy="0" r="1" fill="green"/>
        <circle cx="69.4915254237288" cy="20.833333333333336" r="1" fill="green"/>
        <circle cx="72.88135593220339" cy="25" r="1" fill="green"/>
        <circle cx="76.27118644067797" cy="16.666666666666664" r="1" fill="green"/>
        <circle cx="67.79661016949152" cy="20.833333333333336" r="1" fill="green"/>
        <circle cx="69.4915254237288" cy="4.166666666666674" r="1" fill="green"/>
        <circle cx="72.88135593220339" cy="8.333333333333337" r="1" fill="green"/>
        <circle cx="76.27118644067797" cy="29.166666666666664" r="1" fill="green"/>
        <circle cx="96.61016949152543" cy="12.49999999999999" r="1" fill="green"/>
        <circle cx="100" cy="8.333333333333337" r="1" fill="green"/>
        <circle cx="67.79661016949152" cy="41.666666666666664" r="1" fill="green"/>
        <circle cx="79.66101694915254" cy="8.333333333333337" r="1" fill="green"/>
        <circle cx="66.10169491525424" cy="20.833333333333336" r="1" fill="green"/>
        <circle cx="96.61016949152543" cy="20.833333333333336" r="1" fill="green"/>
        <circle cx="66.10169491525424" cy="29.166666666666664" r="1" fill="green"/>
        <circle cx="79.66101694915254" cy="16.666666666666664" r="1" fill="green"/>
        <circle cx="84.7457627118644" cy="29.166666666666664" r="1" fill="green"/>
        <circle cx="64.40677966101694" cy="29.166666666666664" r="1" fill="green"/>
        <circle cx="66.10169491525424" cy="29.166666666666664" r="1" fill="green"/>
        <circle cx="77.96610169491525" cy="16.666666666666664" r="1" fill="green"/>
        <circle cx="81.35593220338983" cy="37.5" r="1" fill="green"/>
        <circle cx="86.44067796610169" cy="25" r="1" fill="green"/>
        <circle cx="91.52542372881356" cy="20.833333333333336" r="1" fill="green"/>
        <circle cx="77.96610169491525" cy="12.49999999999999" r="1" fill="green"/>
        <circle cx="69.4915254237288" cy="41.666666666666664" r="1" fill="green"/>
        <circle cx="77.96610169491525" cy="45.833333333333336" r="1" fill="green"/>
        <circle cx="86.44067796610169" cy="8.333333333333337" r="1" fill="green"/>
        <circle cx="77.96610169491525" cy="4.166666666666674" r="1" fill="green"/>
        <circle cx="76.27118644067797" cy="29.166666666666664" r="1" fill="green"/>
        <circle cx="64.40677966101694" cy="29.166666666666664" r="1" fill="green"/>
        <circle cx="74.57627118644068" cy="16.666666666666664" r="1" fill="green"/>
        <circle cx="77.96610169491525" cy="4.166666666666674" r="1" fill="green"/>
        <circle cx="69.4915254237288" cy="8.333333333333337" r="1" fill="green"/>
        <circle cx="69.4915254237288" cy="25" r="1" fill="green"/>
        <circle cx="83.05084745762711" cy="8.333333333333337" r="1" fill="green"/>
        <circle cx="79.66101694915254" cy="0" r="1" fill="green"/>
        <circle cx="71.1864406779661" cy="8.333333333333337" r="1" fill="green"/>
        <circle cx="67.79661016949152" cy="25" r="1" fill="green"/>
        <circle cx="71.1864406779661" cy="20.833333333333336" r="1" fill="green"/>
        <circle cx="74.57627118644068" cy="8.333333333333337" r="1" fill="green"/>
        <circle cx="69.4915254237288" cy="29.166666666666664" r="1" fill="green"/>
        <circle cx="59.32203389830508" cy="41.666666666666664" r="1" fill="blue"/>
        <circle cx="50.847457627118644" cy="50" r="1" fill="blue"/>
        <circle cx="59.32203389830508" cy="50" r="1" fill="blue"/>
        <circle cx="38.983050847457626" cy="62.5" r="1" fill="blue"/>
        <circle cx="61.01694915254237" cy="50" r="1" fill="blue"/>
        <circle cx="49.152542372881356" cy="45.833333333333336" r="1" fill="blue"/>
        <circle cx="42.3728813559322" cy="62.5" r="1" fill="blue"/>
        <circle cx="54.23728813559322" cy="41.666666666666664" r="1" fill="blue"/>
        <circle cx="50.847457627118644" cy="62.5" r="1" fill="blue"/>
        <circle cx="44.06779661016949" cy="50" r="1" fill="blue"/>
        <circle cx="57.6271186440678" cy="45.833333333333336" r="1" fill="blue"/>
        <circle cx="59.32203389830508" cy="41.666666666666664" r="1" fill="blue"/>
        <circle cx="52.542372881355924" cy="62.5" r="1" fill="blue"/>
        <circle cx="59.32203389830508" cy="41.666666666666664" r="1" fill="blue"/>
        <circle cx="49.152542372881356" cy="58.33333333333333" r="1" fill="blue"/>
        <circle cx="50.847457627118644" cy="50" r="1" fill="blue"/>
        <circle cx="62.71186440677966" cy="54.16666666666667" r="1" fill="blue"/>
        <circle cx="55.932203389830505" cy="50" r="1" fill="blue"/>
        <circle cx="57.6271186440678" cy="45.833333333333336" r="1" fill="blue"/>
        <circle cx="59.32203389830508" cy="41.666666666666664" r="1" fill="blue"/>
        <circle cx="42.3728813559322" cy="62.5" r="1" fill="blue"/>
        <circle cx="47.45762711864406" cy="58.33333333333333" r="1" fill="blue"/>
        <circle cx="45.76271186440678" cy="62.5" r="1" fill="blue"/>
        <circle cx="49.152542372881356" cy="54.16666666666667" r="1" fill="blue"/>
        <circle cx="59.32203389830508" cy="41.666666666666664" r="1" fill="blue"/>
        <circle cx="59.32203389830508" cy="37.5" r="1" fill="blue"/>
        <circle cx="57.6271186440678" cy="50" r="1" fill="blue"/>
        <circle cx="52.542372881355924" cy="50" r="1" fill="blue"/>
        <circle cx="50.847457627118644" cy="50" r="1" fill="blue"/>
        <circle cx="57.6271186440678" cy="54.16666666666667" r="1" fill="blue"/>
        <circle cx="61.01694915254237" cy="45.833333333333336" r="1" fill="blue"/>
        <circle cx="50.847457627118644" cy="54.16666666666667" r="1" fill="blue"/>
        <circle cx="38.983050847457626" cy="62.5" r="1" fill="blue"/>
        <circle cx="54.23728813559322" cy="50" r="1" fill="blue"/>
        <circle cx="54.23728813559322" cy="54.16666666666667" r="1" fill="blue"/>
        <circle cx="54.23728813559322" cy="50" r="1" fill="blue"/>
        <circle cx="55.932203389830505" cy="50" r="1" fill="blue"/>
        <circle id="brushedcircle2" cx="33.89830508474576" cy="58.33333333333333" r="2.5" fill="blue"/>
        <circle cx="52.542372881355924" cy="50" r="1" fill="blue"/>
        <circle class="cluster_brush cluster_brush_c2" cx="7.8644067796610155" cy="94" r="22.05543276235951" style="fill: lightgreen;"/>
        <circle class="cluster_brush cluster_brush_c1" cx="7.8644067796610155" cy="94" r="13.17360274375296" style="fill: white;"/>
        <circle class="cluster_brush cluster_brush_c1" cx="74.88191164212279" cy="23.428961748633892" r="10" style="fill: white;"/>
        <circle class="cluster_brush cluster_brush_c2" cx="52.629291612342456" cy="51.38888888888891" r="27.692208499110308" style="fill: lightgreen;"/>
        <circle class="cluster_brush cluster_brush_c1" cx="52.629291612342456" cy="51.38888888888891" r="18.497332988342453" style="fill: white;"/>
      </g>
    </g>
    <g class="background">
      <path d="M73,124.44444444444446L219,60.000000000000014L365,149.15254237288136L511,153.33333333333334L657,160"/>
      <path d="M73,133.33333333333331L219,93.33333333333334L365,149.15254237288136L511,153.33333333333334L657,160"/>
      <path d="M73,142.22222222222223L219,80L365,151.864406779661L511,153.33333333333334L657,160"/>
      <path d="M73,146.66666666666669L219,86.66666666666669L365,146.4406779661017L511,153.33333333333334L657,160"/>
      <path d="M73,128.88888888888889L219,53.33333333333334L365,149.15254237288136L511,153.33333333333334L657,160"/>
      <path d="M73,111.11111111111111L219,33.33333333333336L365,141.01694915254237L511,140L657,160"/>
      <path d="M73,146.66666666666669L219,66.66666666666669L365,149.15254237288136L511,146.66666666666666L657,160"/>
      <path d="M73,128.88888888888889L219,66.66666666666669L365,146.4406779661017L511,153.33333333333334L657,160"/>
      <path d="M73,155.55555555555554L219,100.00000000000001L365,149.15254237288136L511,153.33333333333334L657,160"/>
      <path d="M73,133.33333333333331L219,86.66666666666669L365,146.4406779661017L511,160L657,160"/>
      <path d="M73,111.11111111111111L219,46.66666666666668L365,146.4406779661017L511,153.33333333333334L657,160"/>
      <path d="M73,137.77777777777777L219,66.66666666666669L365,143.72881355932205L511,153.33333333333334L657,160"/>
      <path d="M73,137.77777777777777L219,93.33333333333334L365,149.15254237288136L511,160L657,160"/>
      <path d="M73,160L219,93.33333333333334L365,157.28813559322032L511,160L657,160"/>
      <path d="M73,93.33333333333334L219,26.66666666666668L365,154.57627118644066L511,153.33333333333334L657,160"/>
      <path d="M73,97.77777777777777L219,0L365,146.4406779661017L511,140L657,160"/>
      <path d="M73,111.11111111111111L219,33.33333333333336L365,151.864406779661L511,140L657,160"/>
      <path d="M73,124.44444444444446L219,60.000000000000014L365,149.15254237288136L511,146.66666666666666L657,160"/>
      <path d="M73,97.77777777777777L219,40.000000000000036L365,141.01694915254237L511,146.66666666666666L657,160"/>
      <path d="M73,124.44444444444446L219,40.000000000000036L365,146.4406779661017L511,146.66666666666666L657,160"/>
      <path d="M73,111.11111111111111L219,66.66666666666669L365,141.01694915254237L511,153.33333333333334L657,160"/>
      <path d="M73,124.44444444444446L219,46.66666666666668L365,146.4406779661017L511,140L657,160"/>
      <path d="M73,146.66666666666669L219,53.33333333333334L365,160L511,153.33333333333334L657,160"/>
      <path d="M73,124.44444444444446L219,73.33333333333336L365,141.01694915254237L511,133.33333333333331L657,160"/>
      <path d="M73,137.77777777777777L219,66.66666666666669L365,135.59322033898303L511,153.33333333333334L657,160"/>
      <path d="M73,128.88888888888889L219,93.33333333333334L365,143.72881355932205L511,153.33333333333334L657,160"/>
      <path d="M73,128.88888888888889L219,66.66666666666669L365,143.72881355932205L511,140L657,160"/>
      <path d="M73,120L219,60.000000000000014L365,146.4406779661017L511,153.33333333333334L657,160"/>
      <path d="M73,120L219,66.66666666666669L365,149.15254237288136L511,153.33333333333334L657,160"/>
      <path d="M73,142.22222222222223L219,80L365,143.72881355932205L511,153.33333333333334L657,160"/>
      <path d="M73,137.77777777777777L219,86.66666666666669L365,143.72881355932205L511,153.33333333333334L657,160"/>
      <path d="M73,111.11111111111111L219,66.66666666666669L365,146.4406779661017L511,140L657,160"/>
      <path d="M73,120L219,20.000000000000036L365,146.4406779661017L511,160L657,160"/>
      <path d="M73,106.66666666666669L219,13.33333333333334L365,149.15254237288136L511,153.33333333333334L657,160"/>
      <path d="M73,133.33333333333331L219,86.66666666666669L365,146.4406779661017L511,160L657,160"/>
      <path d="M73,128.88888888888889L219,80L365,154.57627118644066L511,153.33333333333334L657,160"/>
      <path d="M73,106.66666666666669L219,60.000000000000014L365,151.864406779661L511,153.33333333333334L657,160"/>
      <path d="M73,133.33333333333331L219,86.66666666666669L365,146.4406779661017L511,160L657,160"/>
      <path d="M73,155.55555555555554L219,93.33333333333334L365,151.864406779661L511,153.33333333333334L657,160"/>
      <path d="M73,124.44444444444446L219,66.66666666666669L365,146.4406779661017L511,153.33333333333334L657,160"/>
      <path d="M73,128.88888888888889L219,60.000000000000014L365,151.864406779661L511,146.66666666666666L657,160"/>
      <path d="M73,151.11111111111111L219,140.00000000000003L365,151.864406779661L511,146.66666666666666L657,160"/>
      <path d="M73,155.55555555555554L219,80L365,151.864406779661L511,153.33333333333334L657,160"/>
      <path d="M73,128.88888888888889L219,60.000000000000014L365,143.72881355932205L511,126.66666666666666L657,160"/>
      <path d="M73,124.44444444444446L219,40.000000000000036L365,135.59322033898303L511,140L657,160"/>
      <path d="M73,137.77777777777777L219,93.33333333333334L365,149.15254237288136L511,146.66666666666666L657,160"/>
      <path d="M73,124.44444444444446L219,40.000000000000036L365,143.72881355932205L511,153.33333333333334L657,160"/>
      <path d="M73,146.66666666666669L219,80L365,149.15254237288136L511,153.33333333333334L657,160"/>
      <path d="M73,115.55555555555557L219,46.66666666666668L365,146.4406779661017L511,153.33333333333334L657,160"/>
      <path d="M73,128.88888888888889L219,73.33333333333336L365,149.15254237288136L511,153.33333333333334L657,160"/>
      <path d="M73,40.000000000000014L219,80L365,59.66101694915254L511,73.33333333333334L657,80"/>
      <path d="M73,66.66666666666666L219,80L365,65.08474576271186L511,66.66666666666666L657,80"/>
      <path d="M73,44.44444444444444L219,86.66666666666669L365,54.23728813559322L511,66.66666666666666L657,80"/>
      <path d="M73,106.66666666666669L219,140.00000000000003L365,78.64406779661017L511,80L657,80"/>
      <path d="M73,62.22222222222223L219,106.66666666666669L365,62.372881355932215L511,66.66666666666666L657,80"/>
      <path d="M73,97.77777777777777L219,106.66666666666669L365,65.08474576271186L511,80L657,80"/>
      <path d="M73,71.11111111111113L219,73.33333333333336L365,59.66101694915254L511,60L657,80"/>
      <path d="M73,133.33333333333331L219,133.33333333333334L365,97.6271186440678L511,100L657,80"/>
      <path d="M73,57.7777777777778L219,100.00000000000001L365,62.372881355932215L511,80L657,80"/>
      <path d="M73,120L219,113.33333333333331L365,81.35593220338983L511,73.33333333333334L657,80"/>
      <path d="M73,128.88888888888889L219,160L365,92.20338983050848L511,100L657,80"/>
      <path d="M73,88.88888888888887L219,93.33333333333334L365,73.22033898305085L511,66.66666666666666L657,80"/>
      <path d="M73,84.44444444444444L219,146.66666666666666L365,78.64406779661017L511,100L657,80"/>
      <path d="M73,80.00000000000001L219,100.00000000000001L365,59.66101694915254L511,73.33333333333334L657,80"/>
      <path d="M73,102.22222222222226L219,100.00000000000001L365,89.49152542372883L511,80L657,80"/>
      <path d="M73,53.33333333333334L219,86.66666666666669L365,67.79661016949152L511,73.33333333333334L657,80"/>
      <path d="M73,102.22222222222226L219,93.33333333333334L365,65.08474576271186L511,66.66666666666666L657,80"/>
      <path d="M73,93.33333333333334L219,113.33333333333331L365,75.93220338983052L511,100L657,80"/>
      <path d="M73,75.55555555555556L219,146.66666666666666L365,65.08474576271186L511,66.66666666666666L657,80"/>
      <path d="M73,102.22222222222226L219,126.66666666666669L365,81.35593220338983L511,93.33333333333331L657,80"/>
      <path d="M73,88.88888888888887L219,80L365,56.949152542372886L511,46.66666666666666L657,80"/>
      <path d="M73,80.00000000000001L219,106.66666666666669L365,78.64406779661017L511,80L657,80"/>
      <path d="M73,71.11111111111113L219,126.66666666666669L365,54.23728813559322L511,66.66666666666666L657,80"/>
      <path d="M73,80.00000000000001L219,106.66666666666669L365,59.66101694915254L511,86.66666666666669L657,80"/>
      <path d="M73,66.66666666666666L219,100.00000000000001L365,70.5084745762712L511,80L657,80"/>
      <path d="M73,57.7777777777778L219,93.33333333333334L365,67.79661016949152L511,73.33333333333334L657,80"/>
      <path d="M73,48.888888888888914L219,106.66666666666669L365,56.949152542372886L511,73.33333333333334L657,80"/>
      <path d="M73,53.33333333333334L219,93.33333333333334L365,51.525423728813564L511,53.33333333333334L657,80"/>
      <path d="M73,84.44444444444444L219,100.00000000000001L365,65.08474576271186L511,66.66666666666666L657,80"/>
      <path d="M73,97.77777777777777L219,120L365,92.20338983050848L511,100L657,80"/>
      <path d="M73,106.66666666666669L219,133.33333333333334L365,84.0677966101695L511,93.33333333333331L657,80"/>
      <path d="M73,106.66666666666669L219,133.33333333333334L365,86.77966101694915L511,100L657,80"/>
      <path d="M73,93.33333333333334L219,113.33333333333331L365,81.35593220338983L511,86.66666666666669L657,80"/>
      <path d="M73,84.44444444444444L219,113.33333333333331L365,48.81355932203391L511,60L657,80"/>
      <path d="M73,111.11111111111111L219,93.33333333333334L365,65.08474576271186L511,66.66666666666666L657,80"/>
      <path d="M73,84.44444444444444L219,66.66666666666669L365,65.08474576271186L511,60L657,80"/>
      <path d="M73,53.33333333333334L219,86.66666666666669L365,59.66101694915254L511,66.66666666666666L657,80"/>
      <path d="M73,71.11111111111113L219,140.00000000000003L365,67.79661016949152L511,80L657,80"/>
      <path d="M73,102.22222222222226L219,93.33333333333334L365,75.93220338983052L511,80L657,80"/>
      <path d="M73,106.66666666666669L219,126.66666666666669L365,78.64406779661017L511,80L657,80"/>
      <path d="M73,106.66666666666669L219,120L365,67.79661016949152L511,86.66666666666669L657,80"/>
      <path d="M73,80.00000000000001L219,93.33333333333334L365,62.372881355932215L511,73.33333333333334L657,80"/>
      <path d="M73,93.33333333333334L219,120L365,78.64406779661017L511,86.66666666666669L657,80"/>
      <path d="M73,128.88888888888889L219,140.00000000000003L365,97.6271186440678L511,100L657,80"/>
      <path d="M73,102.22222222222226L219,113.33333333333331L365,73.22033898305085L511,80L657,80"/>
      <path d="M73,97.77777777777777L219,93.33333333333334L365,73.22033898305085L511,86.66666666666669L657,80"/>
      <path d="M73,97.77777777777777L219,100.00000000000001L365,73.22033898305085L511,80L657,80"/>
      <path d="M73,75.55555555555556L219,100.00000000000001L365,70.5084745762712L511,80L657,80"/>
      <path d="M73,124.44444444444446L219,126.66666666666669L365,105.76271186440678L511,93.33333333333331L657,80"/>
      <path d="M73,97.77777777777777L219,106.66666666666669L365,75.93220338983052L511,80L657,80"/>
      <path d="M73,71.11111111111113L219,73.33333333333336L365,24.406779661016955L511,0L657,0"/>
      <path d="M73,93.33333333333334L219,113.33333333333331L365,48.81355932203391L511,40L657,0"/>
      <path d="M73,35.555555555555586L219,93.33333333333334L365,27.11864406779661L511,26.66666666666666L657,0"/>
      <path d="M73,71.11111111111113L219,100.00000000000001L365,35.254237288135606L511,46.66666666666666L657,0"/>
      <path d="M73,62.22222222222223L219,93.33333333333334L365,29.83050847457628L511,19.999999999999982L657,0"/>
      <path d="M73,13.333333333333357L219,93.33333333333334L365,8.135593220338997L511,26.66666666666666L657,0"/>
      <path d="M73,133.33333333333331L219,126.66666666666669L365,65.08474576271186L511,53.33333333333334L657,0"/>
      <path d="M73,26.66666666666668L219,100.00000000000001L365,16.271186440677976L511,46.66666666666666L657,0"/>
      <path d="M73,53.33333333333334L219,126.66666666666669L365,29.83050847457628L511,46.66666666666666L657,0"/>
      <path d="M73,31.111111111111107L219,53.33333333333334L365,21.6949152542373L511,0L657,0"/>
      <path d="M73,62.22222222222223L219,80L365,48.81355932203391L511,33.33333333333334L657,0"/>
      <path d="M73,66.66666666666666L219,113.33333333333331L365,43.38983050847459L511,40L657,0"/>
      <path d="M73,48.888888888888914L219,93.33333333333334L365,37.96610169491526L511,26.66666666666666L657,0"/>
      <path d="M73,97.77777777777777L219,126.66666666666669L365,51.525423728813564L511,33.33333333333334L657,0"/>
      <path d="M73,93.33333333333334L219,106.66666666666669L365,48.81355932203391L511,6.6666666666666785L657,0"/>
      <path d="M73,66.66666666666666L219,80L365,43.38983050847459L511,13.33333333333334L657,0"/>
      <path d="M73,62.22222222222223L219,93.33333333333334L365,37.96610169491526L511,46.66666666666666L657,0"/>
      <path d="M73,8.888888888888893L219,40.000000000000036L365,5.423728813559325L511,19.999999999999982L657,0"/>
      <path d="M73,8.888888888888893L219,120L365,0L511,13.33333333333334L657,0"/>
      <path d="M73,84.44444444444444L219,146.66666666666666L365,51.525423728813564L511,66.66666666666666L657,0"/>
      <path d="M73,44.44444444444444L219,80L365,32.54237288135593L511,13.33333333333334L657,0"/>
      <path d="M73,102.22222222222226L219,106.66666666666669L365,54.23728813559322L511,33.33333333333334L657,0"/>
      <path d="M73,8.888888888888893L219,106.66666666666669L365,5.423728813559325L511,33.33333333333334L657,0"/>
      <path d="M73,71.11111111111113L219,113.33333333333331L365,54.23728813559322L511,46.66666666666666L657,0"/>
      <path d="M73,53.33333333333334L219,73.33333333333336L365,32.54237288135593L511,26.66666666666666L657,0"/>
      <path d="M73,31.111111111111107L219,80L365,24.406779661016955L511,46.66666666666666L657,0"/>
      <path d="M73,75.55555555555556L219,106.66666666666669L365,56.949152542372886L511,46.66666666666666L657,0"/>
      <path d="M73,80.00000000000001L219,93.33333333333334L365,54.23728813559322L511,46.66666666666666L657,0"/>
      <path d="M73,66.66666666666666L219,106.66666666666669L365,35.254237288135606L511,26.66666666666666L657,0"/>
      <path d="M73,31.111111111111107L219,93.33333333333334L365,29.83050847457628L511,60L657,0"/>
      <path d="M73,22.222222222222214L219,106.66666666666669L365,21.6949152542373L511,40L657,0"/>
      <path d="M73,0L219,40.000000000000036L365,13.559322033898304L511,33.33333333333334L657,0"/>
      <path d="M73,66.66666666666666L219,106.66666666666669L365,35.254237288135606L511,19.999999999999982L657,0"/>
      <path d="M73,71.11111111111113L219,106.66666666666669L365,48.81355932203391L511,66.66666666666666L657,0"/>
      <path d="M73,80.00000000000001L219,120L365,35.254237288135606L511,73.33333333333334L657,0"/>
      <path d="M73,8.888888888888893L219,93.33333333333334L365,21.6949152542373L511,13.33333333333334L657,0"/>
      <path d="M73,71.11111111111113L219,66.66666666666669L365,35.254237288135606L511,6.6666666666666785L657,0"/>
      <path d="M73,66.66666666666666L219,86.66666666666669L365,37.96610169491526L511,46.66666666666666L657,0"/>
      <path d="M73,84.44444444444444L219,93.33333333333334L365,56.949152542372886L511,46.66666666666666L657,0"/>
      <path d="M73,44.44444444444444L219,86.66666666666669L365,40.67796610169491L511,26.66666666666666L657,0"/>
      <path d="M73,53.33333333333334L219,86.66666666666669L365,35.254237288135606L511,6.6666666666666785L657,0"/>
      <path d="M73,44.44444444444444L219,86.66666666666669L365,48.81355932203391L511,13.33333333333334L657,0"/>
      <path d="M73,93.33333333333334L219,113.33333333333331L365,48.81355932203391L511,40L657,0"/>
      <path d="M73,48.888888888888914L219,80L365,27.11864406779661L511,13.33333333333334L657,0"/>
      <path d="M73,53.33333333333334L219,73.33333333333336L365,32.54237288135593L511,0L657,0"/>
      <path d="M73,53.33333333333334L219,93.33333333333334L365,46.10169491525424L511,13.33333333333334L657,0"/>
      <path d="M73,71.11111111111113L219,126.66666666666669L365,51.525423728813564L511,40L657,0"/>
      <path d="M73,62.22222222222223L219,93.33333333333334L365,46.10169491525424L511,33.33333333333334L657,0"/>
      <path d="M73,75.55555555555556L219,66.66666666666669L365,40.67796610169491L511,13.33333333333334L657,0"/>
      <path d="M73,88.88888888888887L219,93.33333333333334L365,48.81355932203391L511,46.66666666666666L657,0"/>
    </g>
    <g class="foreground">
      <path d="M73,124.44444444444446L219,60.000000000000014L365,149.15254237288136L511,153.33333333333334L657,160" style="display: none;"/>
      <path d="M73,133.33333333333331L219,93.33333333333334L365,149.15254237288136L511,153.33333333333334L657,160" style="display: none;"/>
      <path d="M73,142.22222222222223L219,80L365,151.864406779661L511,153.33333333333334L657,160" style="display: none;"/>
      <path d="M73,146.66666666666669L219,86.66666666666669L365,146.4406779661017L511,153.33333333333334L657,160" style="display: none;"/>
      <path d="M73,128.88888888888889L219,53.33333333333334L365,149.15254237288136L511,153.33333333333334L657,160" style="display: none;"/>
      <path d="M73,111.11111111111111L219,33.33333333333336L365,141.01694915254237L511,140L657,160" style="display: none;"/>
      <path d="M73,146.66666666666669L219,66.66666666666669L365,149.15254237288136L511,146.66666666666666L657,160" style="display: none;"/>
      <path d="M73,128.88888888888889L219,66.66666666666669L365,146.4406779661017L511,153.33333333333334L657,160" style="display: none;"/>
      <path d="M73,155.55555555555554L219,100.00000000000001L365,149.15254237288136L511,153.33333333333334L657,160" style="display: none;"/>
      <path d="M73,133.33333333333331L219,86.66666666666669L365,146.4406779661017L511,160L657,160" style="display: none;"/>
      <path d="M73,111.11111111111111L219,46.66666666666668L365,146.4406779661017L511,153.33333333333334L657,160" style="display: none;"/>
      <path d="M73,137.77777777777777L219,66.66666666666669L365,143.72881355932205L511,153.33333333333334L657,160" style="display: none;"/>
      <path d="M73,137.77777777777777L219,93.33333333333334L365,149.15254237288136L511,160L657,160" style="display: none;"/>
      <path d="M73,160L219,93.33333333333334L365,157.28813559322032L511,160L657,160" style="display: none;"/>
      <path d="M73,93.33333333333334L219,26.66666666666668L365,154.57627118644066L511,153.33333333333334L657,160" style="display: none;"/>
      <path d="M73,97.77777777777777L219,0L365,146.4406779661017L511,140L657,160" style="display: none;"/>
      <path d="M73,111.11111111111111L219,33.33333333333336L365,151.864406779661L511,140L657,160" style="display: none;"/>
      <path d="M73,124.44444444444446L219,60.000000000000014L365,149.15254237288136L511,146.66666666666666L657,160" style="display: none;"/>
      <path d="M73,97.77777777777777L219,40.000000000000036L365,141.01694915254237L511,146.66666666666666L657,160" style="display: none;"/>
      <path d="M73,124.44444444444446L219,40.000000000000036L365,146.4406779661017L511,146.66666666666666L657,160" style="display: none;"/>
      <path d="M73,111.11111111111111L219,66.66666666666669L365,141.01694915254237L511,153.33333333333334L657,160" style="display: none;"/>
      <path d="M73,124.44444444444446L219,46.66666666666668L365,146.4406779661017L511,140L657,160" style="display: none;"/>
      <path d="M73,146.66666666666669L219,53.33333333333334L365,160L511,153.33333333333334L657,160" style="display: none;"/>
      <path d="M73,124.44444444444446L219,73.33333333333336L365,141.01694915254237L511,133.33333333333331L657,160" style="display: none;"/>
      <path d="M73,137.77777777777777L219,66.66666666666669L365,135.59322033898303L511,153.33333333333334L657,160" style="display: none;"/>
      <path d="M73,128.88888888888889L219,93.33333333333334L365,143.72881355932205L511,153.33333333333334L657,160" style="display: none;"/>
      <path d="M73,128.88888888888889L219,66.66666666666669L365,143.72881355932205L511,140L657,160" style="display: none;"/>
      <path d="M73,120L219,60.000000000000014L365,146.4406779661017L511,153.33333333333334L657,160" style="display: none;"/>
      <path d="M73,120L219,66.66666666666669L365,149.15254237288136L511,153.33333333333334L657,160" style="display: none;"/>
      <path d="M73,142.22222222222223L219,80L365,143.72881355932205L511,153.33333333333334L657,160" style="display: none;"/>
      <path d="M73,137.77777777777777L219,86.66666666666669L365,143.72881355932205L511,153.33333333333334L657,160" style="display: none;"/>
      <path d="M73,111.11111111111111L219,66.66666666666669L365,146.4406779661017L511,140L657,160" style="display: none;"/>
      <path d="M73,120L219,20.000000000000036L365,146.4406779661017L511,160L657,160" style="display: none;"/>
      <path d="M73,106.66666666666669L219,13.33333333333334L365,149.15254237288136L511,153.33333333333334L657,160" style="display: none;"/>
      <path d="M73,133.33333333333331L219,86.66666666666669L365,146.4406779661017L511,160L657,160" style="display: none;"/>
      <path d="M73,128.88888888888889L219,80L365,154.57627118644066L511,153.33333333333334L657,160" style="display: none;"/>
      <path d="M73,106.66666666666669L219,60.000000000000014L365,151.864406779661L511,153.33333333333334L657,160" style="display: none;"/>
      <path d="M73,133.33333333333331L219,86.66666666666669L365,146.4406779661017L511,160L657,160" style=""/>
      <path d="M73,155.55555555555554L219,93.33333333333334L365,151.864406779661L511,153.33333333333334L657,160" style="display: none;"/>
      <path d="M73,124.44444444444446L219,66.66666666666669L365,146.4406779661017L511,153.33333333333334L657,160" style="display: none;"/>
      <path d="M73,128.88888888888889L219,60.000000000000014L365,151.864406779661L511,146.66666666666666L657,160" style="display: none;"/>
      <path d="M73,151.11111111111111L219,140.00000000000003L365,151.864406779661L511,146.66666666666666L657,160" style="display: none;"/>
      <path d="M73,155.55555555555554L219,80L365,151.864406779661L511,153.33333333333334L657,160" style="display: none;"/>
      <path d="M73,128.88888888888889L219,60.000000000000014L365,143.72881355932205L511,126.66666666666666L657,160" style=""/>
      <path d="M73,124.44444444444446L219,40.000000000000036L365,135.59322033898303L511,140L657,160" style="display: none;"/>
      <path d="M73,137.77777777777777L219,93.33333333333334L365,149.15254237288136L511,146.66666666666666L657,160" style="display: none;"/>
      <path d="M73,124.44444444444446L219,40.000000000000036L365,143.72881355932205L511,153.33333333333334L657,160" style="display: none;"/>
      <path d="M73,146.66666666666669L219,80L365,149.15254237288136L511,153.33333333333334L657,160" style="display: none;"/>
      <path d="M73,115.55555555555557L219,46.66666666666668L365,146.4406779661017L511,153.33333333333334L657,160" style="display: none;"/>
      <path d="M73,128.88888888888889L219,73.33333333333336L365,149.15254237288136L511,153.33333333333334L657,160" style="display: none;"/>
      <path d="M73,40.000000000000014L219,80L365,59.66101694915254L511,73.33333333333334L657,80" style="display: none;"/>
      <path d="M73,66.66666666666666L219,80L365,65.08474576271186L511,66.66666666666666L657,80" style="display: none;"/>
      <path d="M73,44.44444444444444L219,86.66666666666669L365,54.23728813559322L511,66.66666666666666L657,80" style="display: none;"/>
      <path d="M73,106.66666666666669L219,140.00000000000003L365,78.64406779661017L511,80L657,80" style="display: none;"/>
      <path d="M73,62.22222222222223L219,106.66666666666669L365,62.372881355932215L511,66.66666666666666L657,80" style="display: none;"/>
      <path d="M73,97.77777777777777L219,106.66666666666669L365,65.08474576271186L511,80L657,80" style="display: none;"/>
      <path d="M73,71.11111111111113L219,73.33333333333336L365,59.66101694915254L511,60L657,80" style="display: none;"/>
      <path d="M73,133.33333333333331L219,133.33333333333334L365,97.6271186440678L511,100L657,80" style="display: none;"/>
      <path d="M73,57.7777777777778L219,100.00000000000001L365,62.372881355932215L511,80L657,80" style="display: none;"/>
      <path d="M73,120L219,113.33333333333331L365,81.35593220338983L511,73.33333333333334L657,80" style="display: none;"/>
      <path d="M73,128.88888888888889L219,160L365,92.20338983050848L511,100L657,80" style="display: none;"/>
      <path d="M73,88.88888888888887L219,93.33333333333334L365,73.22033898305085L511,66.66666666666666L657,80" style="display: none;"/>
      <path d="M73,84.44444444444444L219,146.66666666666666L365,78.64406779661017L511,100L657,80" style="display: none;"/>
      <path d="M73,80.00000000000001L219,100.00000000000001L365,59.66101694915254L511,73.33333333333334L657,80" style="display: none;"/>
      <path d="M73,102.22222222222226L219,100.00000000000001L365,89.49152542372883L511,80L657,80" style="display: none;"/>
      <path d="M73,53.33333333333334L219,86.66666666666669L365,67.79661016949152L511,73.33333333333334L657,80" style="display: none;"/>
      <path d="M73,102.22222222222226L219,93.33333333333334L365,65.08474576271186L511,66.66666666666666L657,80" style="display: none;"/>
      <path d="M73,93.33333333333334L219,113.33333333333331L365,75.93220338983052L511,100L657,80" style="display: none;"/>
      <path d="M73,75.55555555555556L219,146.66666666666666L365,65.08474576271186L511,66.66666666666666L657,80" style="display: none;"/>
      <path d="M73,102.22222222222226L219,126.66666666666669L365,81.35593220338983L511,93.33333333333331L657,80" style="display: none;"/>
      <path d="M73,88.88888888888887L219,80L365,56.949152542372886L511,46.66666666666666L657,80" style="display: none;"/>
      <path d="M73,80.00000000000001L219,106.66666666666669L365,78.64406779661017L511,80L657,80" style="display: none;"/>
      <path d="M73,71.11111111111113L219,126.66666666666669L365,54.23728813559322L511,66.66666666666666L657,80" style="display: none;"/>
      <path d="M73,80.00000000000001L219,106.66666666666669L365,59.66101694915254L511,86.66666666666669L657,80" style="display: none;"/>
      <path d="M73,66.66666666666666L219,100.00000000000001L365,70.5084745762712L511,80L657,80" style="display: none;"/>
      <path d="M73,57.7777777777778L219,93.33333333333334L365,67.79661016949152L511,73.33333333333334L657,80" style="display: none;"/>
      <path d="M73,48.888888888888914L219,106.66666666666669L365,56.949152542372886L511,73.33333333333334L657,80" style="display: none;"/>
      <path d="M73,53.33333333333334L219,93.33333333333334L365,51.525423728813564L511,53.33333333333334L657,80" style="display: none;"/>
      <path d="M73,84.44444444444444L219,100.00000000000001L365,65.08474576271186L511,66.66666666666666L657,80" style="display: none;"/>
      <path d="M73,97.77777777777777L219,120L365,92.20338983050848L511,100L657,80" style="display: none;"/>
      <path d="M73,106.66666666666669L219,133.33333333333334L365,84.0677966101695L511,93.33333333333331L657,80" style="display: none;"/>
      <path d="M73,106.66666666666669L219,133.33333333333334L365,86.77966101694915L511,100L657,80" style="display: none;"/>
      <path d="M73,93.33333333333334L219,113.33333333333331L365,81.35593220338983L511,86.66666666666669L657,80" style="display: none;"/>
      <path d="M73,84.44444444444444L219,113.33333333333331L365,48.81355932203391L511,60L657,80" style="display: none;"/>
      <path d="M73,111.11111111111111L219,93.33333333333334L365,65.08474576271186L511,66.66666666666666L657,80" style="display: none;"/>
      <path d="M73,84.44444444444444L219,66.66666666666669L365,65.08474576271186L511,60L657,80" style="display: none;"/>
      <path d="M73,53.33333333333334L219,86.66666666666669L365,59.66101694915254L511,66.66666666666666L657,80" style="display: none;"/>
      <path d="M73,71.11111111111113L219,140.00000000000003L365,67.79661016949152L511,80L657,80" style="display: none;"/>
      <path d="M73,102.22222222222226L219,93.33333333333334L365,75.93220338983052L511,80L657,80" style="display: none;"/>
      <path d="M73,106.66666666666669L219,126.66666666666669L365,78.64406779661017L511,80L657,80" style="display: none;"/>
      <path d="M73,106.66666666666669L219,120L365,67.79661016949152L511,86.66666666666669L657,80" style="display: none;"/>
      <path d="M73,80.00000000000001L219,93.33333333333334L365,62.372881355932215L511,73.33333333333334L657,80" style="display: none;"/>
      <path d="M73,93.33333333333334L219,120L365,78.64406779661017L511,86.66666666666669L657,80" style="display: none;"/>
      <path d="M73,128.88888888888889L219,140.00000000000003L365,97.6271186440678L511,100L657,80" style="display: none;"/>
      <path d="M73,102.22222222222226L219,113.33333333333331L365,73.22033898305085L511,80L657,80" style="display: none;"/>
      <path d="M73,97.77777777777777L219,93.33333333333334L365,73.22033898305085L511,86.66666666666669L657,80" style="display: none;"/>
      <path d="M73,97.77777777777777L219,100.00000000000001L365,73.22033898305085L511,80L657,80" style="display: none;"/>
      <path d="M73,75.55555555555556L219,100.00000000000001L365,70.5084745762712L511,80L657,80" style="display: none;"/>
      <path d="M73,124.44444444444446L219,126.66666666666669L365,105.76271186440678L511,93.33333333333331L657,80" style="display: none;"/>
      <path d="M73,97.77777777777777L219,106.66666666666669L365,75.93220338983052L511,80L657,80" style="display: none;"/>
      <path d="M73,71.11111111111113L219,73.33333333333336L365,24.406779661016955L511,0L657,0" style="display: none;"/>
      <path d="M73,93.33333333333334L219,113.33333333333331L365,48.81355932203391L511,40L657,0" style="display: none;"/>
      <path d="M73,35.555555555555586L219,93.33333333333334L365,27.11864406779661L511,26.66666666666666L657,0" style="display: none;"/>
      <path d="M73,71.11111111111113L219,100.00000000000001L365,35.254237288135606L511,46.66666666666666L657,0" style="display: none;"/>
      <path d="M73,62.22222222222223L219,93.33333333333334L365,29.83050847457628L511,19.999999999999982L657,0" style="display: none;"/>
      <path d="M73,13.333333333333357L219,93.33333333333334L365,8.135593220338997L511,26.66666666666666L657,0" style="display: none;"/>
      <path d="M73,133.33333333333331L219,126.66666666666669L365,65.08474576271186L511,53.33333333333334L657,0" style="display: none;"/>
      <path d="M73,26.66666666666668L219,100.00000000000001L365,16.271186440677976L511,46.66666666666666L657,0" style="display: none;"/>
      <path d="M73,53.33333333333334L219,126.66666666666669L365,29.83050847457628L511,46.66666666666666L657,0" style="display: none;"/>
      <path d="M73,31.111111111111107L219,53.33333333333334L365,21.6949152542373L511,0L657,0" style="display: none;"/>
      <path d="M73,62.22222222222223L219,80L365,48.81355932203391L511,33.33333333333334L657,0" style="display: none;"/>
      <path d="M73,66.66666666666666L219,113.33333333333331L365,43.38983050847459L511,40L657,0" style="display: none;"/>
      <path d="M73,48.888888888888914L219,93.33333333333334L365,37.96610169491526L511,26.66666666666666L657,0" style="display: none;"/>
      <path d="M73,97.77777777777777L219,126.66666666666669L365,51.525423728813564L511,33.33333333333334L657,0" style="display: none;"/>
      <path d="M73,93.33333333333334L219,106.66666666666669L365,48.81355932203391L511,6.6666666666666785L657,0" style="display: none;"/>
      <path d="M73,66.66666666666666L219,80L365,43.38983050847459L511,13.33333333333334L657,0" style="display: none;"/>
      <path d="M73,62.22222222222223L219,93.33333333333334L365,37.96610169491526L511,46.66666666666666L657,0" style="display: none;"/>
      <path d="M73,8.888888888888893L219,40.000000000000036L365,5.423728813559325L511,19.999999999999982L657,0" style="display: none;"/>
      <path d="M73,8.888888888888893L219,120L365,0L511,13.33333333333334L657,0" style="display: none;"/>
      <path d="M73,84.44444444444444L219,146.66666666666666L365,51.525423728813564L511,66.66666666666666L657,0" style="display: none;"/>
      <path d="M73,44.44444444444444L219,80L365,32.54237288135593L511,13.33333333333334L657,0" style="display: none;"/>
      <path d="M73,102.22222222222226L219,106.66666666666669L365,54.23728813559322L511,33.33333333333334L657,0" style="display: none;"/>
      <path d="M73,8.888888888888893L219,106.66666666666669L365,5.423728813559325L511,33.33333333333334L657,0" style="display: none;"/>
      <path d="M73,71.11111111111113L219,113.33333333333331L365,54.23728813559322L511,46.66666666666666L657,0" style="display: none;"/>
      <path d="M73,53.33333333333334L219,73.33333333333336L365,32.54237288135593L511,26.66666666666666L657,0" style="display: none;"/>
      <path d="M73,31.111111111111107L219,80L365,24.406779661016955L511,46.66666666666666L657,0" style="display: none;"/>
      <path d="M73,75.55555555555556L219,106.66666666666669L365,56.949152542372886L511,46.66666666666666L657,0" style="display: none;"/>
      <path d="M73,80.00000000000001L219,93.33333333333334L365,54.23728813559322L511,46.66666666666666L657,0" style="display: none;"/>
      <path d="M73,66.66666666666666L219,106.66666666666669L365,35.254237288135606L511,26.66666666666666L657,0" style="display: none;"/>
      <path d="M73,31.111111111111107L219,93.33333333333334L365,29.83050847457628L511,60L657,0" style="display: none;"/>
      <path d="M73,22.222222222222214L219,106.66666666666669L365,21.6949152542373L511,40L657,0" style="display: none;"/>
      <path d="M73,0L219,40.000000000000036L365,13.559322033898304L511,33.33333333333334L657,0" style="display: none;"/>
      <path d="M73,66.66666666666666L219,106.66666666666669L365,35.254237288135606L511,19.999999999999982L657,0" style="display: none;"/>
      <path d="M73,71.11111111111113L219,106.66666666666669L365,48.81355932203391L511,66.66666666666666L657,0" style="display: none;"/>
      <path d="M73,80.00000000000001L219,120L365,35.254237288135606L511,73.33333333333334L657,0" style="display: none;"/>
      <path d="M73,8.888888888888893L219,93.33333333333334L365,21.6949152542373L511,13.33333333333334L657,0" style="display: none;"/>
      <path d="M73,71.11111111111113L219,66.66666666666669L365,35.254237288135606L511,6.6666666666666785L657,0" style="display: none;"/>
      <path d="M73,66.66666666666666L219,86.66666666666669L365,37.96610169491526L511,46.66666666666666L657,0" style="display: none;"/>
      <path d="M73,84.44444444444444L219,93.33333333333334L365,56.949152542372886L511,46.66666666666666L657,0" style="display: none;"/>
      <path d="M73,44.44444444444444L219,86.66666666666669L365,40.67796610169491L511,26.66666666666666L657,0" style="display: none;"/>
      <path d="M73,53.33333333333334L219,86.66666666666669L365,35.254237288135606L511,6.6666666666666785L657,0" style="display: none;"/>
      <path d="M73,44.44444444444444L219,86.66666666666669L365,48.81355932203391L511,13.33333333333334L657,0" style="display: none;"/>
      <path d="M73,93.33333333333334L219,113.33333333333331L365,48.81355932203391L511,40L657,0" style="display: none;"/>
      <path d="M73,48.888888888888914L219,80L365,27.11864406779661L511,13.33333333333334L657,0" style="display: none;"/>
      <path d="M73,53.33333333333334L219,73.33333333333336L365,32.54237288135593L511,0L657,0" style="display: none;"/>
      <path d="M73,53.33333333333334L219,93.33333333333334L365,46.10169491525424L511,13.33333333333334L657,0" style="display: none;"/>
      <path d="M73,71.11111111111113L219,126.66666666666669L365,51.525423728813564L511,40L657,0" style="display: none;"/>
      <path d="M73,62.22222222222223L219,93.33333333333334L365,46.10169491525424L511,33.33333333333334L657,0" style="display: none;"/>
      <path d="M73,75.55555555555556L219,66.66666666666669L365,40.67796610169491L511,13.33333333333334L657,0" style="display: none;"/>
      <path d="M73,88.88888888888887L219,93.33333333333334L365,48.81355932203391L511,46.66666666666666L657,0" style="display: none;"/>
    </g>
    <g class="dimension dimension_sepal_len" transform="translate(73)">
      <g class="axis axis_sepal_len">







        <path class="domain" d="M-6,0H0V160H-6"/>
        <text y="-9" style="text-anchor: middle;">Sepal-Length</text>
      </g>


    </g>
    <g class="dimension dimension_sepal_w" transform="translate(219)">
      <g class="axis axis_sepal_w">













        <path class="domain" d="M-6,0H0V160H-6"/>
        <text y="-9" style="text-anchor: middle;">Sepal-Width</text>
      </g>


    </g>
    <g class="dimension dimension_petal_len" transform="translate(365)">
      <g class="axis axis_petal_len">












        <path class="domain" d="M-6,0H0V160H-6"/>
        <text y="-9" style="text-anchor: middle;">Petal-Length</text>
      </g>


    </g>
    <g class="dimension dimension_petal_w" transform="translate(511)">
      <g class="axis axis_petal_w">












        <path class="domain" d="M-6,0H0V160H-6"/>
        <text y="-9" style="text-anchor: middle;">Petal-Width</text>
      </g>


    </g>
    <g class="dimension dimension_t_set_ver_vir" transform="translate(657)">
      <g class="axis axis_t_set_ver_vir">











        <path class="domain" d="M-6,0H0V160H-6"/>
        <text y="-9" style="text-anchor: middle;">Class</text>
      </g>


    </g>
  </g>


</svg>
