<svg xmlns="http://www.w3.org/2000/svg" id="mainsvg" width="150" height="150">
  <defs>
    <style>
    <![CDATA[

      svg {
      font: 10px sans-serif;
      }

      .background path {
      fill: none;
      stroke: #ddd;
      shape-rendering: crispEdges;
      }

      .foreground path {
      fill: none;
      stroke: steelblue;
      }

      .brush .extent {
      fill-opacity: .3;
      stroke: #fff;
      shape-rendering: crispEdges;
      }

      .clusterbrush_panel {
      background-color: #f8efc0;
      }

      .axis line,
      .axis path {
      fill: none;
      stroke: #000;
      shape-rendering: crispEdges;
      }

      .axis text {
      text-shadow: 0 1px 0 #fff, 1px 0 0 #fff, 0 -1px 0 #fff, -1px 0 0 #fff;
      cursor: move;
      }

      .cluster_brush_c2 {
      opacity: 0.6;
      fill: green;
      background-color: #f8efc0;
      }

      .cluster_brush_c1 {
      opacity: 0.8;
      fill: green;
      background-color: #f8efc0;
      }

      .radial_brush_b {
      opacity: 0.2;
      background-color: #f8efc0;
      fill: green;
      }

      .radial_brush_h2 {
      opacity: 0.2;
      fill: green;
      background-color: #f8efc0;

      }

      .radial_brush_h1 {
      opacity: 0.2;
      fill: green;
      background-color: #f8efc0;

      }

      .ss_point_active {
      background-color: red;
      fill: red !important;
      }

      .OA_buttons {
      height: 30px;
      background-color: #f8efc0;
      -moz-border-radius: 20px;
      -webkit-border-radius: 20px;
      -khtml-border-radius: 20px;
      border-radius: 20px;
      margin-bottom: 10px;
      overflow: hidden;
      }

      .OA_button {
      display: table;
      margin: 3px;

      }

      .OA_twowayselect_container {
      display: flex;
      }

      .OA_twowayselect_container > div {
      flex: 1;
      }

      .OA_twowayselect_left {
      width: 150px !important;
      min-width: 150px;

      }

      .OA_twowayselect_right {
      width: 150px !important;
      min-width: 150px;

      }

      .OA_twowayselect_middle {
      width: 30px !important;
      max-width: 30px;
      margin: auto;
      }

      .debrmanager_dialog_q {
      margin-top: 30px;
      }

      .debrmanager_dialog_q_text {
      font-weight: bold;
      font-size: 14px;
      }

      .debrmanager_dialog_q_choice {
      margin-top: 7px;
      }

      .debrmanager_dialog_container {
      background-color: #f8efc0;
      }

      .sslmanager_dialog_container {
      background-color: #f8efc0;
      }

      .sslmanager_dialog_q {
      margin-top: 30px;
      }

      .sslmanager_dialog_q_text {
      font-weight: bold;
      font-size: 14px;
      }

      .sslmanager_dialog_q_choice {
      margin-top: 7px;
      }

      .corrbrush_panel .extent {
      fill: #d95f0e;

      opacity: 0.8;
      }

      .body_ {
      width: 150px;
      height: 150px;

      }

      .panelbackground {
      fill: #ffffbf;
      }

      .ellipseline {
      stroke: #fc8d59;
      stroke-width: 1.5px;
      }

      .arrow {
      stroke-width: 0.5;
      stroke: #000;

      }

      #arrow {
      stroke-width: 0.5;
      }

      .gaussianline {
      stroke: #00f;
      fill: none;
      }

    </style>


      ]]>
    </style>
  </defs>



  <g class="clusterbrush_panel clusterbrush_panel_sepal_len___sepal_w_1" transform="translate(20,20)">
    <rect y="0" width="100" height="100" class="ellrect" fill="#fff7bc"></rect>
    <circle cx="22.22222222222221" cy="37.500000000000014" r="1" fill="black"></circle>
    <circle cx="16.666666666666675" cy="58.333333333333336" r="1" fill="black"></circle>
    <circle cx="11.111111111111116" cy="50" r="1" fill="black"></circle>
    <circle cx="8.333333333333325" cy="54.16666666666667" r="1" fill="black"></circle>
    <circle cx="19.444444444444443" cy="33.333333333333336" r="1" fill="black"></circle>
    <circle cx="30.555555555555557" cy="20.83333333333335" r="1" fill="black"></circle>
    <circle cx="8.333333333333325" cy="41.66666666666667" r="1" fill="black"></circle>
    <circle cx="19.444444444444443" cy="41.66666666666667" r="1" fill="black"></circle>
    <circle cx="2.77777777777779" cy="62.500000000000014" r="1" fill="black"></circle>
    <circle cx="16.666666666666675" cy="54.16666666666667" r="1" fill="black"></circle>
    <circle cx="30.555555555555557" cy="29.166666666666675" r="1" fill="black"></circle>
    <circle cx="13.888888888888884" cy="41.66666666666667" r="1" fill="black"></circle>
    <circle cx="13.888888888888884" cy="58.333333333333336" r="1" fill="black"></circle>
    <circle cx="0" cy="58.333333333333336" r="1" fill="black"></circle>
    <circle cx="41.666666666666664" cy="16.666666666666675" r="1" fill="black"></circle>
    <circle cx="38.88888888888889" cy="0" r="1" fill="black"></circle>
    <circle cx="30.555555555555557" cy="20.83333333333335" r="1" fill="black"></circle>
    <circle cx="22.22222222222221" cy="37.500000000000014" r="1" fill="black"></circle>
    <circle cx="38.88888888888889" cy="25.00000000000002" r="1" fill="black"></circle>
    <circle cx="22.22222222222221" cy="25.00000000000002" r="1" fill="black"></circle>
    <circle cx="30.555555555555557" cy="41.66666666666667" r="1" fill="black"></circle>
    <circle cx="22.22222222222221" cy="29.166666666666675" r="1" fill="black"></circle>
    <circle cx="8.333333333333325" cy="33.333333333333336" r="1" fill="black"></circle>
    <circle cx="22.22222222222221" cy="45.83333333333335" r="1" fill="black"></circle>
    <circle cx="13.888888888888884" cy="41.66666666666667" r="1" fill="black"></circle>
    <circle cx="19.444444444444443" cy="58.333333333333336" r="1" fill="black"></circle>
    <circle cx="19.444444444444443" cy="41.66666666666667" r="1" fill="black"></circle>
    <circle cx="25" cy="37.500000000000014" r="1" fill="black"></circle>
    <circle cx="25" cy="41.66666666666667" r="1" fill="black"></circle>
    <circle cx="11.111111111111116" cy="50" r="1" fill="black"></circle>
    <circle cx="13.888888888888884" cy="54.16666666666667" r="1" fill="black"></circle>
    <circle cx="30.555555555555557" cy="41.66666666666667" r="1" fill="black"></circle>
    <circle cx="25" cy="12.500000000000021" r="1" fill="black"></circle>
    <circle cx="33.33333333333333" cy="8.333333333333337" r="1" fill="black"></circle>
    <circle cx="16.666666666666675" cy="54.16666666666667" r="1" fill="black"></circle>
    <circle cx="19.444444444444443" cy="50" r="1" fill="black"></circle>
    <circle cx="33.33333333333333" cy="37.500000000000014" r="1" fill="black"></circle>
    <circle cx="16.666666666666675" cy="54.16666666666667" r="1" fill="black"></circle>
    <circle cx="2.77777777777779" cy="58.333333333333336" r="1" fill="black"></circle>
    <circle cx="22.22222222222221" cy="41.66666666666667" r="1" fill="black"></circle>
    <circle cx="19.444444444444443" cy="37.500000000000014" r="1" fill="black"></circle>
    <circle cx="5.555555555555558" cy="87.50000000000001" r="1" fill="black"></circle>
    <circle cx="2.77777777777779" cy="50" r="1" fill="black"></circle>
    <circle cx="19.444444444444443" cy="37.500000000000014" r="1" fill="black"></circle>
    <circle cx="22.22222222222221" cy="25.00000000000002" r="1" fill="black"></circle>
    <circle cx="13.888888888888884" cy="58.333333333333336" r="1" fill="black"></circle>
    <circle cx="22.22222222222221" cy="25.00000000000002" r="1" fill="black"></circle>
    <circle cx="8.333333333333325" cy="50" r="1" fill="black"></circle>
    <circle cx="27.777777777777768" cy="29.166666666666675" r="1" fill="black"></circle>
    <circle cx="19.444444444444443" cy="45.83333333333335" r="1" fill="black"></circle>
    <circle cx="16.666666666666675" cy="83.33333333333334" r="1" fill="black"></circle>
    <circle cx="30.555555555555557" cy="58.333333333333336" r="1" fill="black"></circle>
    <circle cx="16.666666666666675" cy="79.16666666666667" r="1" fill="black"></circle>
    <circle cx="74.99999999999999" cy="50" r="1" fill="green"></circle>
    <circle cx="58.333333333333336" cy="50" r="1" fill="green"></circle>
    <circle cx="72.22222222222221" cy="54.16666666666667" r="1" fill="green"></circle>
    <circle cx="61.11111111111111" cy="66.66666666666667" r="1" fill="green"></circle>
    <circle cx="55.55555555555555" cy="45.83333333333335" r="1" fill="green"></circle>
    <circle cx="63.88888888888887" cy="62.500000000000014" r="1" fill="green"></circle>
    <circle cx="66.66666666666666" cy="54.16666666666667" r="1" fill="green"></circle>
    <circle cx="58.333333333333336" cy="62.500000000000014" r="1" fill="green"></circle>
    <circle cx="63.88888888888887" cy="58.333333333333336" r="1" fill="green"></circle>
    <circle cx="69.44444444444443" cy="66.66666666666667" r="1" fill="green"></circle>
    <circle cx="66.66666666666666" cy="58.333333333333336" r="1" fill="green"></circle>
    <circle cx="66.66666666666666" cy="54.16666666666667" r="1" fill="green"></circle>
    <circle cx="55.55555555555555" cy="45.83333333333335" r="1" fill="green"></circle>
    <circle cx="77.77777777777776" cy="58.333333333333336" r="1" fill="green"></circle>
    <circle cx="61.11111111111111" cy="58.333333333333336" r="1" fill="green"></circle>
    <circle cx="91.66666666666666" cy="58.333333333333336" r="1" fill="green"></circle>
    <circle cx="83.33333333333333" cy="62.500000000000014" r="1" fill="green"></circle>
    <circle cx="66.66666666666666" cy="79.16666666666667" r="1" fill="green"></circle>
    <circle cx="80.55555555555556" cy="33.333333333333336" r="1" fill="green"></circle>
    <circle cx="61.11111111111111" cy="50" r="1" fill="green"></circle>
    <circle cx="69.44444444444443" cy="58.333333333333336" r="1" fill="green"></circle>
    <circle cx="58.333333333333336" cy="50" r="1" fill="green"></circle>
    <circle cx="61.11111111111111" cy="58.333333333333336" r="1" fill="green"></circle>
    <circle cx="94.44444444444444" cy="25.00000000000002" r="1" fill="green"></circle>
    <circle cx="94.44444444444444" cy="75" r="1" fill="green"></circle>
    <circle cx="72.22222222222221" cy="50" r="1" fill="green"></circle>
    <circle cx="94.44444444444444" cy="66.66666666666667" r="1" fill="green"></circle>
    <circle cx="66.66666666666666" cy="45.83333333333335" r="1" fill="green"></circle>
    <circle cx="80.55555555555556" cy="50" r="1" fill="green"></circle>
    <circle cx="80.55555555555556" cy="58.333333333333336" r="1" fill="green"></circle>
    <circle cx="86.11111111111111" cy="66.66666666666667" r="1" fill="green"></circle>
    <circle cx="100" cy="25.00000000000002" r="1" fill="green"></circle>
    <circle cx="94.44444444444444" cy="58.333333333333336" r="1" fill="green"></circle>
    <circle cx="55.55555555555555" cy="41.66666666666667" r="1" fill="green"></circle>
    <circle cx="58.333333333333336" cy="54.16666666666667" r="1" fill="green"></circle>
    <circle cx="72.22222222222221" cy="54.16666666666667" r="1" fill="green"></circle>
    <circle cx="66.66666666666666" cy="54.16666666666667" r="1" fill="green"></circle>
    <circle cx="72.22222222222221" cy="54.16666666666667" r="1" fill="green"></circle>
    <circle cx="69.44444444444443" cy="50" r="1" fill="green"></circle>
    <circle cx="66.66666666666666" cy="45.83333333333335" r="1" fill="green"></circle>
    <circle cx="66.66666666666666" cy="58.333333333333336" r="1" fill="green"></circle>
    <circle cx="61.11111111111111" cy="58.333333333333336" r="1" fill="green"></circle>
    <circle cx="52.77777777777778" cy="41.66666666666667" r="1" fill="green"></circle>
    <circle cx="33.33333333333333" cy="87.50000000000001" r="1" fill="blue"></circle>
    <circle cx="38.88888888888889" cy="66.66666666666667" r="1" fill="blue"></circle>
    <circle cx="25" cy="70.83333333333333" r="1" fill="blue"></circle>
    <circle cx="19.444444444444443" cy="100" r="1" fill="blue"></circle>
    <circle cx="44.44444444444445" cy="58.333333333333336" r="1" fill="blue"></circle>
    <circle cx="47.22222222222222" cy="91.66666666666666" r="1" fill="blue"></circle>
    <circle cx="49.999999999999986" cy="62.500000000000014" r="1" fill="blue"></circle>
    <circle cx="36.11111111111109" cy="62.500000000000014" r="1" fill="blue"></circle>
    <circle cx="36.11111111111109" cy="58.333333333333336" r="1" fill="blue"></circle>
    <circle cx="41.666666666666664" cy="70.83333333333333" r="1" fill="blue"></circle>
    <circle cx="52.77777777777778" cy="91.66666666666666" r="1" fill="blue"></circle>
    <circle cx="36.11111111111109" cy="79.16666666666667" r="1" fill="blue"></circle>
    <circle cx="44.44444444444445" cy="50" r="1" fill="blue"></circle>
    <circle cx="49.999999999999986" cy="66.66666666666667" r="1" fill="blue"></circle>
    <circle cx="55.55555555555555" cy="79.16666666666667" r="1" fill="blue"></circle>
    <circle cx="49.999999999999986" cy="66.66666666666667" r="1" fill="blue"></circle>
    <circle cx="47.22222222222222" cy="62.500000000000014" r="1" fill="blue"></circle>
    <circle cx="38.88888888888889" cy="75" r="1" fill="blue"></circle>
    <circle cx="33.33333333333333" cy="83.33333333333334" r="1" fill="blue"></circle>
    <circle cx="33.33333333333333" cy="83.33333333333334" r="1" fill="blue"></circle>
    <circle cx="41.666666666666664" cy="70.83333333333333" r="1" fill="blue"></circle>
    <circle cx="47.22222222222222" cy="70.83333333333333" r="1" fill="blue"></circle>
    <circle cx="47.22222222222222" cy="41.66666666666667" r="1" fill="blue"></circle>
    <circle cx="55.55555555555555" cy="87.50000000000001" r="1" fill="blue"></circle>
    <circle cx="36.11111111111109" cy="58.333333333333336" r="1" fill="blue"></circle>
    <circle cx="33.33333333333333" cy="79.16666666666667" r="1" fill="blue"></circle>
    <circle cx="33.33333333333333" cy="75" r="1" fill="blue"></circle>
    <circle cx="49.999999999999986" cy="58.333333333333336" r="1" fill="blue"></circle>
    <circle cx="41.666666666666664" cy="75" r="1" fill="blue"></circle>
    <circle cx="19.444444444444443" cy="87.50000000000001" r="1" fill="blue"></circle>
    <circle cx="36.11111111111109" cy="70.83333333333333" r="1" fill="blue"></circle>
    <circle cx="38.88888888888889" cy="58.333333333333336" r="1" fill="blue"></circle>
    <circle cx="38.88888888888889" cy="62.500000000000014" r="1" fill="blue"></circle>
    <circle cx="52.77777777777778" cy="62.500000000000014" r="1" fill="blue"></circle>
    <circle cx="22.22222222222221" cy="79.16666666666667" r="1" fill="blue"></circle>
    <circle cx="38.88888888888889" cy="66.66666666666667" r="1" fill="blue"></circle>
    <circle cx="41.666666666666664" cy="70.83333333333333" r="1" fill="blue"></circle>
    <circle cx="55.55555555555555" cy="62.500000000000014" r="1" fill="blue"></circle>
    <circle cx="58.333333333333336" cy="70.83333333333333" r="1" fill="blue"></circle>
    <circle cx="38.88888888888889" cy="79.16666666666667" r="1" fill="blue"></circle>
    <circle cx="41.666666666666664" cy="66.66666666666667" r="1" fill="blue"></circle>
    <circle cx="47.22222222222222" cy="91.66666666666666" r="1" fill="blue"></circle>
    <circle cx="36.11111111111109" cy="66.66666666666667" r="1" fill="blue"></circle>
    <circle cx="55.55555555555555" cy="70.83333333333333" r="1" fill="blue"></circle>
    <circle cx="52.77777777777778" cy="66.66666666666667" r="1" fill="blue"></circle>
    <circle cx="49.999999999999986" cy="58.333333333333336" r="1" fill="blue"></circle>
    <circle cx="58.333333333333336" cy="66.66666666666667" r="1" fill="blue"></circle>
    <circle cx="58.333333333333336" cy="66.66666666666667" r="1" fill="blue"></circle>
    <circle cx="55.55555555555555" cy="66.66666666666667" r="1" fill="blue"></circle>
    <circle cx="49.999999999999986" cy="75" r="1" fill="blue"></circle>
    <circle cx="47.22222222222222" cy="58.333333333333336" r="1" fill="blue"></circle>
    <circle cx="41.666666666666664" cy="70.83333333333333" r="1" fill="blue"></circle>
    <circle cx="55.55555555555555" cy="79.16666666666667" r="1" fill="blue"></circle>
    <circle cx="44.44444444444445" cy="58.333333333333336" r="1" fill="blue"></circle>
    <circle class="cluster_brush cluster_brush_c2" cx="19.70649895178194" cy="42.76729559748426" r="19.5" style="fill: #fdbb84;"></circle>
    <circle class="cluster_brush cluster_brush_c1" cx="19.70649895178194" cy="42.76729559748426" r="10" style="fill: white;"></circle>
    <circle class="cluster_brush_handle cbhandle_0_0" cx="29.70649895178194" cy="42.76729559748426" r="3"></circle>
    <circle class="cluster_brush_handle cbhandle_0_1" cx="36.70649895178194" cy="50.76729559748426" r="3"></circle>

    <circle class="cluster_brush cluster_brush_c2" cx="70.93023255813948" cy="54.1666666666667" r="19.5" style="fill: #fdbb84;"></circle>
    <circle class="cluster_brush cluster_brush_c1" cx="70.93023255813948" cy="54.1666666666667" r="10" style="fill: white;"></circle>
    <circle class="cluster_brush_handle cbhandle_1_0" cx="80.93023255813948" cy="54.1666666666667" r="3"></circle>
    <circle class="cluster_brush_handle cbhandle_1_1" cx="87.93023255813948" cy="62.1666666666667" r="3"></circle>

    <circle class="cluster_brush cluster_brush_c2" cx="43.26131687242799" cy="70.67901234567901" r="19.5" style="fill: #fdbb84;"></circle>
    <circle class="cluster_brush cluster_brush_c1" cx="43.26131687242799" cy="70.67901234567901" r="10" style="fill: white;"></circle>
    <circle class="cluster_brush_handle cbhandle_2_0" cx="53.26131687242799" cy="70.67901234567901" r="3"></circle>
    <circle class="cluster_brush_handle cbhandle_2_1" cx="60.26131687242799" cy="78.67901234567901" r="3"></circle>

  </g>



</svg>
