<svg id="mainsvg" xmlns="http://www.w3.org/2000/svg" xmlns:xlink="http://www.w3.org/1999/xlink" height="145"
     width="380pt">
  <defs>

    <marker id="arrow" viewBox="0 -5 10 10" refX="5" refY="0" markerWidth="8" markerHeight="8" orient="auto">
      <path d="M0,-5L10,0L0,5" class="arrowHead"></path>
    </marker>

  <clipPath id="pe49ae0eb02">
    <rect height="266.112" width="357.12" x="57.6" y="41.472"></rect>
  </clipPath>

  <style type="text/css">
    * {
    stroke-linecap: butt;
    stroke-linejoin: round;
    }

  <![CDATA[

    svg {
      font: 10px sans-serif;
    }

    .background path {
      fill: none;
      stroke: #ddd;
      shape-rendering: crispEdges;
    }

    .foreground path {
      fill: none;
      stroke: steelblue;
    }

    .brush .extent {
      fill-opacity: .3;
      stroke: #fff;
      shape-rendering: crispEdges;
    }

    .clusterbrush_panel {
      background-color: #f8efc0;
    }

    .axis line,
    .axis path {
      fill: none;
      stroke: #000;
      shape-rendering: crispEdges;
    }

    .axis text {
      text-shadow: 0 1px 0 #fff, 1px 0 0 #fff, 0 -1px 0 #fff, -1px 0 0 #fff;
      cursor: move;
    }

    .cluster_brush_c2 {
      opacity: 0.6;
      fill: green;
      background-color: #f8efc0;
    }

    .cluster_brush_c1 {
      opacity: 0.8;
      fill: green;
      background-color: #f8efc0;
    }

    .radial_brush_b {
      opacity: 0.2;
      background-color: #f8efc0;
      fill: green;
    }

    .radial_brush_h2 {
      opacity: 0.2;
      fill: green;
      background-color: #f8efc0;

    }

    .radial_brush_h1 {
      opacity: 0.2;
      fill: green;
      background-color: #f8efc0;

    }

    .ss_point_active {
      background-color: red;
      fill: red !important;
    }

    .OA_buttons {
      height: 30px;
      background-color: #f8efc0;
      -moz-border-radius: 20px;
      -webkit-border-radius: 20px;
      -khtml-border-radius: 20px;
      border-radius: 20px;
      margin-bottom: 10px;
      overflow: hidden;
    }

    .OA_button {
      display: table;
      margin: 3px;

    }

    .OA_twowayselect_container {
      display: flex;
    }

    .OA_twowayselect_container > div {
      flex: 1;
    }

    .OA_twowayselect_left {
      width: 150px !important;
      min-width: 150px;

    }

    .OA_twowayselect_right {
      width: 150px !important;
      min-width: 150px;

    }

    .OA_twowayselect_middle {
      width: 30px !important;
      max-width: 30px;
      margin: auto;
    }

    .debrmanager_dialog_q {
      margin-top: 30px;
    }

    .debrmanager_dialog_q_text {
      font-weight: bold;
      font-size: 14px;
    }

    .debrmanager_dialog_q_choice {
      margin-top: 7px;
    }

    .debrmanager_dialog_container {
      background-color: #f8efc0;
    }

    .sslmanager_dialog_container {
      background-color: #f8efc0;
    }

    .sslmanager_dialog_q {
      margin-top: 30px;
    }

    .sslmanager_dialog_q_text {
      font-weight: bold;
      font-size: 14px;
    }

    .sslmanager_dialog_q_choice {
      margin-top: 7px;
    }

    .corrbrush_panel .extent {
      fill: #d95f0e;

      opacity: 0.8;
    }

    .body_ {
      width: 150px;
      height: 150px;

    }

    .panelbackground {
      fill: #ffffbf;
    }

    .ellipseline {
      stroke: #fc8d59;
      stroke-width: 1.5px;
    }

    .arrow {
      stroke-width: 0.5;
      stroke: #000;

    }

    #arrow {
      stroke-width: 0.5;
    }

    .gaussianline {
      stroke: #00f;
      fill: none;
    }

    .gmmline {
      stroke: #00f;
      fill: none;
    }

    .gmmbrushpanel {
      fill:#fff7bc ;

    }

    .gmmbrushrect {
      opacity:0.4;
      fill:#e34a33;
    }

      ]]>
</style>
  </defs>

  <g id="figure_1" transform="translate(0,0)scale(0.4,0.4)">
    <g id="patch_1">
      <path d="M 0 345.6  L 460.8 345.6  L 460.8 0  L 0 0  z " style="fill:#ffffff;"></path>
    </g>
    <g id="axes_1">
      <g id="patch_2">
        <path d="M 57.6 307.584  L 414.72 307.584  L 414.72 41.472  L 57.6 41.472  z " style="fill:#ffffff;"></path>
      </g>


      <g id="matplotlib.axis_1">
        <g id="xtick_1">
          <g id="line2d_1">
            <defs>
              <path d="M 0 0  L 0 3.5  " id="m2a25023301" style="stroke:#000000;stroke-width:0.8;"></path>
            </defs>
            <g>
              <use style="stroke:#000000;stroke-width:0.8;" x="66.664291" xmlns:xlink="http://www.w3.org/1999/xlink"
                   xlink:href="#m2a25023301" y="307.584"></use>
            </g>
          </g>
          <g id="text_1">
            <!-- −5 -->
            <defs>
              <path d="M 10.59375 35.5  L 73.1875 35.5  L 73.1875 27.203125  L 10.59375 27.203125  z "
                    id="DejaVuSans-2212"></path>
              <path
                d="M 10.796875 72.90625  L 49.515625 72.90625  L 49.515625 64.59375  L 19.828125 64.59375  L 19.828125 46.734375  Q 21.96875 47.46875 24.109375 47.828125  Q 26.265625 48.1875 28.421875 48.1875  Q 40.625 48.1875 47.75 41.5  Q 54.890625 34.8125 54.890625 23.390625  Q 54.890625 11.625 47.5625 5.09375  Q 40.234375 -1.421875 26.90625 -1.421875  Q 22.3125 -1.421875 17.546875 -0.640625  Q 12.796875 0.140625 7.71875 1.703125  L 7.71875 11.625  Q 12.109375 9.234375 16.796875 8.0625  Q 21.484375 6.890625 26.703125 6.890625  Q 35.15625 6.890625 40.078125 11.328125  Q 45.015625 15.765625 45.015625 23.390625  Q 45.015625 31 40.078125 35.4375  Q 35.15625 39.890625 26.703125 39.890625  Q 22.75 39.890625 18.8125 39.015625  Q 14.890625 38.140625 10.796875 36.28125  z "
                id="DejaVuSans-35"></path>
            </defs>
            <g transform="translate(59.293197 322.182437)scale(0.1 -0.1)">
              <use xmlns:xlink="http://www.w3.org/1999/xlink" xlink:href="#DejaVuSans-2212"></use>
              <use x="83.789062" xmlns:xlink="http://www.w3.org/1999/xlink" xlink:href="#DejaVuSans-35"></use>
            </g>
          </g>
        </g>
        <g id="xtick_2">
          <g id="line2d_2">
            <g>
              <use style="stroke:#000000;stroke-width:0.8;" x="111.551582" xmlns:xlink="http://www.w3.org/1999/xlink"
                   xlink:href="#m2a25023301" y="307.584"></use>
            </g>
          </g>
          <g id="text_2">
            <!-- 0 -->
            <defs>
              <path
                d="M 31.78125 66.40625  Q 24.171875 66.40625 20.328125 58.90625  Q 16.5 51.421875 16.5 36.375  Q 16.5 21.390625 20.328125 13.890625  Q 24.171875 6.390625 31.78125 6.390625  Q 39.453125 6.390625 43.28125 13.890625  Q 47.125 21.390625 47.125 36.375  Q 47.125 51.421875 43.28125 58.90625  Q 39.453125 66.40625 31.78125 66.40625  M 31.78125 74.21875  Q 44.046875 74.21875 50.515625 64.515625  Q 56.984375 54.828125 56.984375 36.375  Q 56.984375 17.96875 50.515625 8.265625  Q 44.046875 -1.421875 31.78125 -1.421875  Q 19.53125 -1.421875 13.0625 8.265625  Q 6.59375 17.96875 6.59375 36.375  Q 6.59375 54.828125 13.0625 64.515625  Q 19.53125 74.21875 31.78125 74.21875  "
                id="DejaVuSans-30"></path>
            </defs>
            <g transform="translate(108.370332 322.182437)scale(0.1 -0.1)">
              <use xmlns:xlink="http://www.w3.org/1999/xlink" xlink:href="#DejaVuSans-30"></use>
            </g>
          </g>
        </g>
        <g id="xtick_3">
          <g id="line2d_3">
            <g>
              <use style="stroke:#000000;stroke-width:0.8;" x="156.438874" xmlns:xlink="http://www.w3.org/1999/xlink"
                   xlink:href="#m2a25023301" y="307.584"></use>
            </g>
          </g>
          <g id="text_3">
            <!-- 5 -->
            <g transform="translate(153.257624 322.182437)scale(0.1 -0.1)">
              <use xmlns:xlink="http://www.w3.org/1999/xlink" xlink:href="#DejaVuSans-35"></use>
            </g>
          </g>
        </g>
        <g id="xtick_4">
          <g id="line2d_4">
            <g>
              <use style="stroke:#000000;stroke-width:0.8;" x="201.326166" xmlns:xlink="http://www.w3.org/1999/xlink"
                   xlink:href="#m2a25023301" y="307.584"></use>
            </g>
          </g>
          <g id="text_4">
            <!-- 10 -->
            <defs>
              <path
                d="M 12.40625 8.296875  L 28.515625 8.296875  L 28.515625 63.921875  L 10.984375 60.40625  L 10.984375 69.390625  L 28.421875 72.90625  L 38.28125 72.90625  L 38.28125 8.296875  L 54.390625 8.296875  L 54.390625 0  L 12.40625 0  z "
                id="DejaVuSans-31"></path>
            </defs>
            <g transform="translate(194.963666 322.182437)scale(0.1 -0.1)">
              <use xmlns:xlink="http://www.w3.org/1999/xlink" xlink:href="#DejaVuSans-31"></use>
              <use x="63.623047" xmlns:xlink="http://www.w3.org/1999/xlink" xlink:href="#DejaVuSans-30"></use>
            </g>
          </g>
        </g>
        <g id="xtick_5">
          <g id="line2d_5">
            <g>
              <use style="stroke:#000000;stroke-width:0.8;" x="246.213458" xmlns:xlink="http://www.w3.org/1999/xlink"
                   xlink:href="#m2a25023301" y="307.584"></use>
            </g>
          </g>
          <g id="text_5">
            <!-- 15 -->
            <g transform="translate(239.850958 322.182437)scale(0.1 -0.1)">
              <use xmlns:xlink="http://www.w3.org/1999/xlink" xlink:href="#DejaVuSans-31"></use>
              <use x="63.623047" xmlns:xlink="http://www.w3.org/1999/xlink" xlink:href="#DejaVuSans-35"></use>
            </g>
          </g>
        </g>
        <g id="xtick_6">
          <g id="line2d_6">
            <g>
              <use style="stroke:#000000;stroke-width:0.8;" x="291.100749" xmlns:xlink="http://www.w3.org/1999/xlink"
                   xlink:href="#m2a25023301" y="307.584"></use>
            </g>
          </g>
          <g id="text_6">
            <!-- 20 -->
            <defs>
              <path
                d="M 19.1875 8.296875  L 53.609375 8.296875  L 53.609375 0  L 7.328125 0  L 7.328125 8.296875  Q 12.9375 14.109375 22.625 23.890625  Q 32.328125 33.6875 34.8125 36.53125  Q 39.546875 41.84375 41.421875 45.53125  Q 43.3125 49.21875 43.3125 52.78125  Q 43.3125 58.59375 39.234375 62.25  Q 35.15625 65.921875 28.609375 65.921875  Q 23.96875 65.921875 18.8125 64.3125  Q 13.671875 62.703125 7.8125 59.421875  L 7.8125 69.390625  Q 13.765625 71.78125 18.9375 73  Q 24.125 74.21875 28.421875 74.21875  Q 39.75 74.21875 46.484375 68.546875  Q 53.21875 62.890625 53.21875 53.421875  Q 53.21875 48.921875 51.53125 44.890625  Q 49.859375 40.875 45.40625 35.40625  Q 44.1875 33.984375 37.640625 27.21875  Q 31.109375 20.453125 19.1875 8.296875  "
                id="DejaVuSans-32"></path>
            </defs>
            <g transform="translate(284.738249 322.182437)scale(0.1 -0.1)">
              <use xmlns:xlink="http://www.w3.org/1999/xlink" xlink:href="#DejaVuSans-32"></use>
              <use x="63.623047" xmlns:xlink="http://www.w3.org/1999/xlink" xlink:href="#DejaVuSans-30"></use>
            </g>
          </g>
        </g>
        <g id="xtick_7">
          <g id="line2d_7">
            <g>
              <use style="stroke:#000000;stroke-width:0.8;" x="335.988041" xmlns:xlink="http://www.w3.org/1999/xlink"
                   xlink:href="#m2a25023301" y="307.584"></use>
            </g>
          </g>
          <g id="text_7">
            <!-- 25 -->
            <g transform="translate(329.625541 322.182437)scale(0.1 -0.1)">
              <use xmlns:xlink="http://www.w3.org/1999/xlink" xlink:href="#DejaVuSans-32"></use>
              <use x="63.623047" xmlns:xlink="http://www.w3.org/1999/xlink" xlink:href="#DejaVuSans-35"></use>
            </g>
          </g>
        </g>
        <g id="xtick_8">
          <g id="line2d_8">
            <g>
              <use style="stroke:#000000;stroke-width:0.8;" x="380.875333" xmlns:xlink="http://www.w3.org/1999/xlink"
                   xlink:href="#m2a25023301" y="307.584"></use>
            </g>
          </g>
          <g id="text_8">
            <!-- 30 -->
            <defs>
              <path
                d="M 40.578125 39.3125  Q 47.65625 37.796875 51.625 33  Q 55.609375 28.21875 55.609375 21.1875  Q 55.609375 10.40625 48.1875 4.484375  Q 40.765625 -1.421875 27.09375 -1.421875  Q 22.515625 -1.421875 17.65625 -0.515625  Q 12.796875 0.390625 7.625 2.203125  L 7.625 11.71875  Q 11.71875 9.328125 16.59375 8.109375  Q 21.484375 6.890625 26.8125 6.890625  Q 36.078125 6.890625 40.9375 10.546875  Q 45.796875 14.203125 45.796875 21.1875  Q 45.796875 27.640625 41.28125 31.265625  Q 36.765625 34.90625 28.71875 34.90625  L 20.21875 34.90625  L 20.21875 43.015625  L 29.109375 43.015625  Q 36.375 43.015625 40.234375 45.921875  Q 44.09375 48.828125 44.09375 54.296875  Q 44.09375 59.90625 40.109375 62.90625  Q 36.140625 65.921875 28.71875 65.921875  Q 24.65625 65.921875 20.015625 65.03125  Q 15.375 64.15625 9.8125 62.3125  L 9.8125 71.09375  Q 15.4375 72.65625 20.34375 73.4375  Q 25.25 74.21875 29.59375 74.21875  Q 40.828125 74.21875 47.359375 69.109375  Q 53.90625 64.015625 53.90625 55.328125  Q 53.90625 49.265625 50.4375 45.09375  Q 46.96875 40.921875 40.578125 39.3125  "
                id="DejaVuSans-33"></path>
            </defs>
            <g transform="translate(374.512833 322.182437)scale(0.1 -0.1)">
              <use xmlns:xlink="http://www.w3.org/1999/xlink" xlink:href="#DejaVuSans-33"></use>
              <use x="63.623047" xmlns:xlink="http://www.w3.org/1999/xlink" xlink:href="#DejaVuSans-30"></use>
            </g>
          </g>
        </g>
      </g>
      <g id="matplotlib.axis_2">
        <g id="ytick_1">
          <g id="line2d_9">
            <defs>
              <path d="M 0 0  L -3.5 0  " id="m04394293c8" style="stroke:#000000;stroke-width:0.8;"></path>
            </defs>
            <g>
              <use style="stroke:#000000;stroke-width:0.8;" x="57.6" xmlns:xlink="http://www.w3.org/1999/xlink"
                   xlink:href="#m04394293c8" y="280.9728"></use>
            </g>
          </g>
          <g id="text_9">
            <!-- −0.2 -->
            <defs>
              <path d="M 10.6875 12.40625  L 21 12.40625  L 21 0  L 10.6875 0  z " id="DejaVuSans-2e"></path>
            </defs>
            <g transform="translate(26.317187 284.772019)scale(0.1 -0.1)">
              <use xmlns:xlink="http://www.w3.org/1999/xlink" xlink:href="#DejaVuSans-2212"></use>
              <use x="83.789062" xmlns:xlink="http://www.w3.org/1999/xlink" xlink:href="#DejaVuSans-30"></use>
              <use x="147.412109" xmlns:xlink="http://www.w3.org/1999/xlink" xlink:href="#DejaVuSans-2e"></use>
              <use x="179.199219" xmlns:xlink="http://www.w3.org/1999/xlink" xlink:href="#DejaVuSans-32"></use>
            </g>
          </g>
        </g>
        <g id="ytick_2">
          <g id="line2d_10">
            <g>
              <use style="stroke:#000000;stroke-width:0.8;" x="57.6" xmlns:xlink="http://www.w3.org/1999/xlink"
                   xlink:href="#m04394293c8" y="227.7504"></use>
            </g>
          </g>
          <g id="text_10">
            <!-- −0.1 -->
            <g transform="translate(26.317187 231.549619)scale(0.1 -0.1)">
              <use xmlns:xlink="http://www.w3.org/1999/xlink" xlink:href="#DejaVuSans-2212"></use>
              <use x="83.789062" xmlns:xlink="http://www.w3.org/1999/xlink" xlink:href="#DejaVuSans-30"></use>
              <use x="147.412109" xmlns:xlink="http://www.w3.org/1999/xlink" xlink:href="#DejaVuSans-2e"></use>
              <use x="179.199219" xmlns:xlink="http://www.w3.org/1999/xlink" xlink:href="#DejaVuSans-31"></use>
            </g>
          </g>
        </g>
        <g id="ytick_3">
          <g id="line2d_11">
            <g>
              <use style="stroke:#000000;stroke-width:0.8;" x="57.6" xmlns:xlink="http://www.w3.org/1999/xlink"
                   xlink:href="#m04394293c8" y="174.528"></use>
            </g>
          </g>
          <g id="text_11">
            <!-- 0.0 -->
            <g transform="translate(34.696875 178.327219)scale(0.1 -0.1)">
              <use xmlns:xlink="http://www.w3.org/1999/xlink" xlink:href="#DejaVuSans-30"></use>
              <use x="63.623047" xmlns:xlink="http://www.w3.org/1999/xlink" xlink:href="#DejaVuSans-2e"></use>
              <use x="95.410156" xmlns:xlink="http://www.w3.org/1999/xlink" xlink:href="#DejaVuSans-30"></use>
            </g>
          </g>
        </g>
        <g id="ytick_4">
          <g id="line2d_12">
            <g>
              <use style="stroke:#000000;stroke-width:0.8;" x="57.6" xmlns:xlink="http://www.w3.org/1999/xlink"
                   xlink:href="#m04394293c8" y="121.3056"></use>
            </g>
          </g>
          <g id="text_12">
            <!-- 0.1 -->
            <g transform="translate(34.696875 125.104819)scale(0.1 -0.1)">
              <use xmlns:xlink="http://www.w3.org/1999/xlink" xlink:href="#DejaVuSans-30"></use>
              <use x="63.623047" xmlns:xlink="http://www.w3.org/1999/xlink" xlink:href="#DejaVuSans-2e"></use>
              <use x="95.410156" xmlns:xlink="http://www.w3.org/1999/xlink" xlink:href="#DejaVuSans-31"></use>
            </g>
          </g>
        </g>
        <g id="ytick_5">
          <g id="line2d_13">
            <g>
              <use style="stroke:#000000;stroke-width:0.8;" x="57.6" xmlns:xlink="http://www.w3.org/1999/xlink"
                   xlink:href="#m04394293c8" y="68.0832"></use>
            </g>
          </g>
          <g id="text_13">
            <!-- 0.2 -->
            <g transform="translate(34.696875 71.882419)scale(0.1 -0.1)">
              <use xmlns:xlink="http://www.w3.org/1999/xlink" xlink:href="#DejaVuSans-30"></use>
              <use x="63.623047" xmlns:xlink="http://www.w3.org/1999/xlink" xlink:href="#DejaVuSans-2e"></use>
              <use x="95.410156" xmlns:xlink="http://www.w3.org/1999/xlink" xlink:href="#DejaVuSans-32"></use>
            </g>
          </g>
        </g>
      </g>
      <g id="line2d_14">
        <path clip-path="url(#pe4e18d7bac)"
              d="M 73.832727 174.527687  L 77.112066 174.526611  L 80.391405 174.52294  L 83.670744 174.512713  L 86.950083 174.489089  L 90.229421 174.44278  L 93.50876 174.362969  L 96.788099 174.236325  L 100.067438 174.042808  L 103.346777 173.750835  L 106.626116 173.315794  L 109.905455 172.68241  L 113.184793 171.789206  L 116.464132 170.576477  L 119.743471 168.998046  L 123.02281 167.027664  L 126.302149 164.653765  L 129.581488 161.878142  L 132.860826 158.736076  L 136.140165 155.321104  L 139.419504 151.782799  L 142.698843 148.304476  L 145.978182 145.095558  L 149.257521 142.39348  L 152.53686 140.429262  L 155.816198 139.35851  L 159.095537 139.224731  L 162.374876 139.976476  L 165.654215 141.481339  L 168.933554 143.52138  L 172.212893 145.824208  L 175.492231 148.130362  L 178.77157 150.234411  L 182.050909 151.98976  L 185.330248 153.312987  L 188.609587 154.183254  L 191.888926 154.617546  L 195.168264 154.641688  L 198.447603 154.279014  L 201.726942 153.553886  L 205.006281 152.513033  L 208.28562 151.260082  L 211.564959 149.959842  L 214.844298 148.783082  L 218.123636 147.835718  L 221.402975 147.138436  L 224.682314 146.661426  L 227.961653 146.364297  L 231.240992 146.204517  L 234.520331 146.126457  L 237.799669 146.065711  L 241.079008 145.97754  L 244.358347 145.861298  L 247.637686 145.75835  L 250.917025 145.734885  L 254.196364 145.860498  L 257.475702 146.173743  L 260.755041 146.649134  L 264.03438 147.204635  L 267.313719 147.749182  L 270.593058 148.232497  L 273.872397 148.68063  L 277.151736 149.205163  L 280.431074 149.952737  L 283.710413 151.010949  L 286.989752 152.362295  L 290.269091 153.933803  L 293.54843 155.670974  L 296.827769 157.548489  L 300.107107 159.525416  L 303.386446 161.514694  L 306.665785 163.405693  L 309.945124 165.116933  L 313.224463 166.627881  L 316.503802 167.961379  L 319.78314 169.139749  L 323.062479 170.163456  L 326.341818 171.02824  L 329.621157 171.747462  L 332.900496 172.347439  L 336.179835 172.847155  L 339.459174 173.252653  L 342.738512 173.569259  L 346.017851 173.810647  L 349.29719 173.994405  L 352.576529 174.133827  L 355.855868 174.236942  L 359.135207 174.311478  L 362.414545 174.367101  L 365.693884 174.411814  L 368.973223 174.448446  L 372.252562 174.476317  L 375.531901 174.495365  L 378.81124 174.507635  L 382.090579 174.515736  L 385.369917 174.521257  L 388.649256 174.524795  L 391.928595 174.526731  L 395.207934 174.52759  L 398.487273 174.527893  "
              style="fill:none;stroke:#d95f02;stroke-linecap:square;stroke-width:1.5;"></path>
      </g>
      <g id="line2d_15">
        <path clip-path="url(#pe4e18d7bac)"
              d="M 85.80693 174.526989  L 87.271147 174.523369  L 88.735364 174.511175  L 90.199581 174.478977  L 91.663798 174.411944  L 93.128015 174.301238  L 94.592232 174.154739  L 96.056449 173.994374  L 97.520666 173.833853  L 98.984883 173.658598  L 100.4491 173.440619  L 101.913317 173.176923  L 103.377533 172.888452  L 104.84175 172.561875  L 106.305967 172.122514  L 107.770184 171.503844  L 109.234401 170.720596  L 110.698618 169.829969  L 112.162835 168.846448  L 113.627052 167.733248  L 115.091269 166.435822  L 116.555486 164.884493  L 118.019703 163.007698  L 119.48392 160.77389  L 120.948137 158.195023  L 122.412354 155.308793  L 123.876571 152.224977  L 125.340788 149.142877  L 126.805005 146.157947  L 128.269222 143.040265  L 129.733439 139.394413  L 131.197656 135.076009  L 132.661873 130.286897  L 134.12609 125.27099  L 135.590307 120.113429  L 137.054524 114.855149  L 138.518741 109.621842  L 139.982958 104.56227  L 141.447175 99.756817  L 142.911392 95.232812  L 144.375609 90.937036  L 145.839826 86.631377  L 147.304043 82.050364  L 148.76826 77.352898  L 150.232477 73.224203  L 151.696694 70.31825  L 153.160911 68.751228  L 154.625128 68.285635  L 156.089345 68.732876  L 157.553562 69.877282  L 159.017779 71.227578  L 160.481996 72.323091  L 161.946213 73.39661  L 163.41043 75.398658  L 164.874647 79.088654  L 166.338864 84.241778  L 167.803081 89.934483  L 169.267298 95.383904  L 170.731515 100.287124  L 172.195732 104.635229  L 173.659949 108.61415  L 175.124166 112.662367  L 176.588383 117.280865  L 178.0526 122.594464  L 179.516817 128.203842  L 180.981034 133.552481  L 182.445251 138.316083  L 183.909468 142.409982  L 185.373685 145.870461  L 186.837902 148.894884  L 188.302119 151.828361  L 189.766336 154.895906  L 191.230553 157.965807  L 192.69477 160.696365  L 194.158987 162.908341  L 195.623204 164.720925  L 197.087421 166.337943  L 198.551638 167.820066  L 200.015855 169.100094  L 201.480072 170.130291  L 202.944289 170.950116  L 204.408506 171.63755  L 205.872723 172.238968  L 207.33694 172.751495  L 208.801157 173.155131  L 210.265374 173.451311  L 211.729591 173.671562  L 213.193808 173.854709  L 214.658025 174.021956  L 216.122242 174.170794  L 217.586459 174.283981  L 219.050676 174.347306  L 220.514893 174.368517  L 221.97911 174.377588  L 223.443327 174.401595  L 224.907544 174.442259  L 226.371761 174.482713  L 227.835978 174.509587  L 229.300195 174.522258  L 230.764412 174.526628  "
              style="fill:none;stroke:#7570b3;stroke-linecap:square;stroke-width:1.5;"></path>
      </g>
      <g id="line2d_16">
        <path clip-path="url(#pe4e18d7bac)"
              d="M 101.072506 174.527504  L 103.417439 174.525783  L 105.762371 174.520667  L 108.107304 174.510013  L 110.452237 174.495077  L 112.79717 174.482047  L 115.142102 174.475565  L 117.487035 174.469718  L 119.831968 174.450134  L 122.1769 174.405725  L 124.521833 174.335693  L 126.866766 174.248378  L 129.211699 174.156886  L 131.556631 174.070384  L 133.901564 173.983172  L 136.246497 173.873658  L 138.59143 173.717076  L 140.936362 173.495604  L 143.281295 173.192168  L 145.626228 172.781268  L 147.97116 172.239342  L 150.316093 171.566902  L 152.661026 170.785149  L 155.005959 169.895315  L 157.350891 168.85243  L 159.695824 167.612735  L 162.040757 166.208724  L 164.38569 164.724336  L 166.730622 163.177472  L 169.075555 161.502355  L 171.420488 159.674242  L 173.76542 157.715312  L 176.110353 155.522301  L 178.455286 152.867703  L 180.800219 149.657899  L 183.145151 146.081595  L 185.490084 142.472824  L 187.835017 139.052401  L 190.179949 135.773506  L 192.524882 132.438014  L 194.869815 128.985953  L 197.214748 125.602972  L 199.55968 122.508583  L 201.904613 119.680985  L 204.249546 116.83264  L 206.594479 113.720024  L 208.939411 110.475408  L 211.284344 107.51409  L 213.629277 105.160034  L 215.974209 103.549836  L 218.319142 102.784745  L 220.664075 102.885102  L 223.009008 103.664249  L 225.35394 104.89863  L 227.698873 106.580956  L 230.043806 108.861566  L 232.388739 111.797945  L 234.733671 115.231357  L 237.078604 118.858348  L 239.423537 122.402303  L 241.768469 125.743631  L 244.113402 128.898555  L 246.458335 131.919679  L 248.803268 134.859434  L 251.1482 137.803829  L 253.493133 140.890247  L 255.838066 144.220947  L 258.182999 147.71518  L 260.527931 151.128412  L 262.872864 154.284215  L 265.217797 157.196327  L 267.562729 159.92223  L 269.907662 162.407131  L 272.252595 164.522091  L 274.597528 166.19012  L 276.94246 167.444936  L 279.287393 168.418413  L 281.632326 169.289413  L 283.977258 170.179614  L 286.322191 171.067926  L 288.667124 171.847578  L 291.012057 172.460869  L 293.356989 172.928548  L 295.701922 173.280364  L 298.046855 173.531372  L 300.391788 173.711466  L 302.73672 173.858448  L 305.081653 173.98754  L 307.426586 174.10002  L 309.771518 174.204526  L 312.116451 174.305651  L 314.461384 174.389874  L 316.806317 174.441935  L 319.151249 174.465836  L 321.496182 174.479467  L 323.841115 174.49456  L 326.186048 174.509935  L 328.53098 174.520658  L 330.875913 174.525782  L 333.220846 174.527504  "
              style="fill:none;stroke:#7570b3;stroke-linecap:square;stroke-width:1.5;"></path>
      </g>
      <g id="line2d_17">
        <path clip-path="url(#pe4e18d7bac)"
              d="M 147.898115 174.527503  L 150.351746 174.525634  L 152.805378 174.51991  L 155.259009 174.508133  L 157.712641 174.492964  L 160.166273 174.483629  L 162.619904 174.48762  L 165.073536 174.501413  L 167.527167 174.514341  L 169.980799 174.51863  L 172.43443 174.511627  L 174.888062 174.493203  L 177.341694 174.463992  L 179.795325 174.420183  L 182.248957 174.348442  L 184.702588 174.232108  L 187.15622 174.063852  L 189.609851 173.856423  L 192.063483 173.642528  L 194.517115 173.439865  L 196.970746 173.207979  L 199.424378 172.864953  L 201.878009 172.336414  L 204.331641 171.572288  L 206.785272 170.56554  L 209.238904 169.394393  L 211.692536 168.214025  L 214.146167 167.141118  L 216.599799 166.098565  L 219.05343 164.82265  L 221.507062 163.116029  L 223.960694 161.039317  L 226.414325 158.73773  L 228.867957 156.183845  L 231.321588 153.261363  L 233.77522 149.985755  L 236.228851 146.454493  L 238.682483 142.700899  L 241.136115 138.78702  L 243.589746 134.925738  L 246.043378 131.320149  L 248.497009 127.931569  L 250.950641 124.552162  L 253.404272 121.148632  L 255.857904 118.043057  L 258.311536 115.598141  L 260.765167 113.750998  L 263.218799 112.100036  L 265.67243 110.456668  L 268.126062 108.96594  L 270.579694 107.658998  L 273.033325 106.333079  L 275.486957 105.001849  L 277.940588 104.178507  L 280.39422 104.532661  L 282.847851 106.237921  L 285.301483 108.796699  L 287.755115 111.605883  L 290.208746 114.481351  L 292.662378 117.595941  L 295.116009 121.181802  L 297.569641 125.348554  L 300.023272 130.003434  L 302.476904 134.862197  L 304.930536 139.576772  L 307.384167 143.845746  L 309.837799 147.481605  L 312.29143 150.544088  L 314.745062 153.336439  L 317.198693 156.117149  L 319.652325 158.874922  L 322.105957 161.401515  L 324.559588 163.493625  L 327.01322 165.122972  L 329.466851 166.47279  L 331.920483 167.764508  L 334.374115 169.041316  L 336.827746 170.177715  L 339.281378 171.069953  L 341.735009 171.734726  L 344.188641 172.246346  L 346.642272 172.666708  L 349.095904 173.037734  L 351.549536 173.37458  L 354.003167 173.65264  L 356.456799 173.83728  L 358.91043 173.93758  L 361.364062 174.011139  L 363.817693 174.107728  L 366.271325 174.225479  L 368.724957 174.330756  L 371.178588 174.401571  L 373.63222 174.439727  L 376.085851 174.458578  L 378.539483 174.472664  L 380.993114 174.489809  L 383.446746 174.50746  L 385.900378 174.519805  L 388.354009 174.525622  L 390.807641 174.527502  "
              style="fill:none;stroke:#7570b3;stroke-linecap:square;stroke-width:1.5;"></path>
      </g>
      <g id="line2d_18">
        <path clip-path="url(#pe4e18d7bac)" d="M 102.574124 201.1392  L 210.303624 201.1392  "
              style="fill:none;stroke:#1b9e77;stroke-linecap:square;"></path>
      </g>
      <g id="line2d_19">
        <path clip-path="url(#pe4e18d7bac)" d="M 138.483957 217.10592  L 300.078208 217.10592  "
              style="fill:none;stroke:#1b9e77;stroke-linecap:square;"></path>
      </g>
      <g id="line2d_20">
        <path clip-path="url(#pe4e18d7bac)" d="M 192.348708 233.07264  L 353.942958 233.07264  "
              style="fill:none;stroke:#1b9e77;stroke-linecap:square;"></path>
      </g>
      <g id="patch_6">
        <path d="M 57.6 307.584  L 57.6 41.472  "
              style="fill:none;stroke:#000000;stroke-linecap:square;stroke-linejoin:miter;stroke-width:0.8;"></path>
      </g>

      <g id="patch_8">
        <path d="M 57.6 307.584  L 414.72 307.584  "
              style="fill:none;stroke:#000000;stroke-linecap:square;stroke-linejoin:miter;stroke-width:0.8;"></path>
      </g>

      <g id="text_14">
        <!-- $\mathcal{N}_1$ -->
        <defs>
          <path
            d="M 67.09375 12.5  L 67.203125 12.5  Q 82.703125 63.59375 84.5 68.40625  Q 85.5 70.90625 86.296875 72.09375  Q 91.09375 79.5 97.703125 79.5  Q 101.40625 79.5 103.90625 77.046875  Q 106.40625 74.59375 106.40625 71.09375  Q 106.40625 68.40625 105 66.75  Q 103.59375 65.09375 101.09375 65.09375  Q 99.5 65.09375 98.390625 66  Q 97.296875 66.90625 96.84375 67.953125  Q 96.40625 69 95.59375 69.890625  Q 94.796875 70.796875 93.796875 70.796875  Q 92.796875 70.796875 91.890625 70.4375  Q 91 70.09375 90.390625 69.640625  Q 89.796875 69.203125 89.140625 68.296875  Q 88.5 67.40625 88.09375 66.796875  Q 87.703125 66.203125 87.25 65.046875  Q 86.796875 63.90625 86.640625 63.40625  Q 86.5 62.90625 86.09375 61.75  Q 85.703125 60.59375 85.703125 60.40625  L 66.59375 -2.40625  L 64.59375 -2.40625  Q 48.09375 20 38.796875 45.203125  L 38.59375 45.203125  Q 37.59375 40.296875 36.84375 36.890625  Q 36.09375 33.5 34.59375 28  Q 33.09375 22.5 31.6875 18.59375  Q 30.296875 14.703125 28.1875 10.203125  Q 26.09375 5.703125 23.890625 2.890625  Q 21.703125 0.09375 18.796875 -1.796875  Q 15.90625 -3.703125 12.703125 -3.703125  Q 9 -3.703125 6.5 -1.25  Q 4 1.203125 4 4.703125  Q 4 7.40625 5.390625 9.046875  Q 6.796875 10.703125 9.296875 10.703125  Q 10.90625 10.703125 12 9.796875  Q 13.09375 8.90625 13.546875 7.84375  Q 14 6.796875 14.796875 5.890625  Q 15.59375 5 16.59375 5  Q 19.09375 5 21.390625 7.5  Q 23.703125 10 25.59375 14.5  Q 27.5 19 29.09375 24.09375  Q 30.703125 29.203125 32.140625 35.75  Q 33.59375 42.296875 34.59375 47.390625  Q 35.59375 52.5 36.6875 58.453125  Q 37.796875 64.40625 38.40625 67.09375  L 41.09375 67.09375  Q 41.90625 65.09375 44.90625 57.5  Q 47.90625 49.90625 49.09375 47  Q 50.296875 44.09375 53 37.84375  Q 55.703125 31.59375 57.546875 28.09375  Q 59.40625 24.59375 62 20.1875  Q 64.59375 15.796875 67.09375 12.5  "
            id="STIXNonUnicode-Italic-e23a"></path>
        </defs>
        <g transform="translate(84.619207 201.1392)scale(0.1 -0.1)">
          <use transform="translate(0 0.5)" xmlns:xlink="http://www.w3.org/1999/xlink"
               xlink:href="#STIXNonUnicode-Italic-e23a"></use>
          <use transform="translate(96.657013 -15.90625)scale(0.7)" xmlns:xlink="http://www.w3.org/1999/xlink"
               xlink:href="#DejaVuSans-31"></use>
        </g>
      </g>
      <g id="text_15">
        <!-- $\mathcal{N}_2$ -->
        <g transform="translate(120.529041 217.10592)scale(0.1 -0.1)">
          <use transform="translate(0 0.5)" xmlns:xlink="http://www.w3.org/1999/xlink"
               xlink:href="#STIXNonUnicode-Italic-e23a"></use>
          <use transform="translate(96.657013 -15.90625)scale(0.7)" xmlns:xlink="http://www.w3.org/1999/xlink"
               xlink:href="#DejaVuSans-32"></use>
        </g>
      </g>
      <g id="text_16">
        <!-- $\mathcal{N}_3$ -->
        <g transform="translate(174.393791 233.07264)scale(0.1 -0.1)">
          <use transform="translate(0 0.5)" xmlns:xlink="http://www.w3.org/1999/xlink"
               xlink:href="#STIXNonUnicode-Italic-e23a"></use>
          <use transform="translate(96.657013 -15.90625)scale(0.7)" xmlns:xlink="http://www.w3.org/1999/xlink"
               xlink:href="#DejaVuSans-33"></use>
        </g>
      </g>
    </g>
  </g>
  <g id="figure_2" transform="translate(170,0)scale(0.4,0.4)">
    <g id="patch_1">
      <path d="M 0 345.6  L 460.8 345.6  L 460.8 0  L 0 0  z " style="fill:#ffffff;"></path>
    </g>
    <g id="axes_1">
      <g id="patch_2">
        <path d="M 57.6 307.584  L 414.72 307.584  L 414.72 41.472  L 57.6 41.472  z " style="fill:#ffffff;"></path>
      </g>


      <g id="matplotlib.axis_1">
        <g id="xtick_1">
          <g id="line2d_1">
            <defs>
              <path d="M 0 0  L 0 3.5  " id="m391c3a82b2" style="stroke:#000000;stroke-width:0.8;"></path>
            </defs>
            <g>
              <use style="stroke:#000000;stroke-width:0.8;" x="73.750767" xlink:href="#m391c3a82b2" y="307.584"></use>
            </g>
          </g>
          <g id="text_1">
            <!-- −5 -->
            <defs>
              <path d="M 10.59375 35.5  L 73.1875 35.5  L 73.1875 27.203125  L 10.59375 27.203125  z "
                    id="DejaVuSans-2212"></path>
              <path
                d="M 10.796875 72.90625  L 49.515625 72.90625  L 49.515625 64.59375  L 19.828125 64.59375  L 19.828125 46.734375  Q 21.96875 47.46875 24.109375 47.828125  Q 26.265625 48.1875 28.421875 48.1875  Q 40.625 48.1875 47.75 41.5  Q 54.890625 34.8125 54.890625 23.390625  Q 54.890625 11.625 47.5625 5.09375  Q 40.234375 -1.421875 26.90625 -1.421875  Q 22.3125 -1.421875 17.546875 -0.640625  Q 12.796875 0.140625 7.71875 1.703125  L 7.71875 11.625  Q 12.109375 9.234375 16.796875 8.0625  Q 21.484375 6.890625 26.703125 6.890625  Q 35.15625 6.890625 40.078125 11.328125  Q 45.015625 15.765625 45.015625 23.390625  Q 45.015625 31 40.078125 35.4375  Q 35.15625 39.890625 26.703125 39.890625  Q 22.75 39.890625 18.8125 39.015625  Q 14.890625 38.140625 10.796875 36.28125  z "
                id="DejaVuSans-35"></path>
            </defs>
            <g transform="translate(66.379673 322.182437)scale(0.1 -0.1)">
              <use xlink:href="#DejaVuSans-2212"></use>
              <use x="83.789062" xlink:href="#DejaVuSans-35"></use>
            </g>
          </g>
        </g>
        <g id="xtick_2">
          <g id="line2d_2">
            <g>
              <use style="stroke:#000000;stroke-width:0.8;" x="119.167205" xlink:href="#m391c3a82b2" y="307.584"></use>
            </g>
          </g>
          <g id="text_2">
            <!-- 0 -->
            <defs>
              <path
                d="M 31.78125 66.40625  Q 24.171875 66.40625 20.328125 58.90625  Q 16.5 51.421875 16.5 36.375  Q 16.5 21.390625 20.328125 13.890625  Q 24.171875 6.390625 31.78125 6.390625  Q 39.453125 6.390625 43.28125 13.890625  Q 47.125 21.390625 47.125 36.375  Q 47.125 51.421875 43.28125 58.90625  Q 39.453125 66.40625 31.78125 66.40625  M 31.78125 74.21875  Q 44.046875 74.21875 50.515625 64.515625  Q 56.984375 54.828125 56.984375 36.375  Q 56.984375 17.96875 50.515625 8.265625  Q 44.046875 -1.421875 31.78125 -1.421875  Q 19.53125 -1.421875 13.0625 8.265625  Q 6.59375 17.96875 6.59375 36.375  Q 6.59375 54.828125 13.0625 64.515625  Q 19.53125 74.21875 31.78125 74.21875  "
                id="DejaVuSans-30"></path>
            </defs>
            <g transform="translate(115.985955 322.182437)scale(0.1 -0.1)">
              <use xlink:href="#DejaVuSans-30"></use>
            </g>
          </g>
        </g>
        <g id="xtick_3">
          <g id="line2d_3">
            <g>
              <use style="stroke:#000000;stroke-width:0.8;" x="164.583643" xlink:href="#m391c3a82b2" y="307.584"></use>
            </g>
          </g>
          <g id="text_3">
            <!-- 5 -->
            <g transform="translate(161.402393 322.182437)scale(0.1 -0.1)">
              <use xlink:href="#DejaVuSans-35"></use>
            </g>
          </g>
        </g>
        <g id="xtick_4">
          <g id="line2d_4">
            <g>
              <use style="stroke:#000000;stroke-width:0.8;" x="210.000081" xlink:href="#m391c3a82b2" y="307.584"></use>
            </g>
          </g>
          <g id="text_4">
            <!-- 10 -->
            <defs>
              <path
                d="M 12.40625 8.296875  L 28.515625 8.296875  L 28.515625 63.921875  L 10.984375 60.40625  L 10.984375 69.390625  L 28.421875 72.90625  L 38.28125 72.90625  L 38.28125 8.296875  L 54.390625 8.296875  L 54.390625 0  L 12.40625 0  z "
                id="DejaVuSans-31"></path>
            </defs>
            <g transform="translate(203.637581 322.182437)scale(0.1 -0.1)">
              <use xlink:href="#DejaVuSans-31"></use>
              <use x="63.623047" xlink:href="#DejaVuSans-30"></use>
            </g>
          </g>
        </g>
        <g id="xtick_5">
          <g id="line2d_5">
            <g>
              <use style="stroke:#000000;stroke-width:0.8;" x="255.416519" xlink:href="#m391c3a82b2" y="307.584"></use>
            </g>
          </g>
          <g id="text_5">
            <!-- 15 -->
            <g transform="translate(249.054019 322.182437)scale(0.1 -0.1)">
              <use xlink:href="#DejaVuSans-31"></use>
              <use x="63.623047" xlink:href="#DejaVuSans-35"></use>
            </g>
          </g>
        </g>
        <g id="xtick_6">
          <g id="line2d_6">
            <g>
              <use style="stroke:#000000;stroke-width:0.8;" x="300.832957" xlink:href="#m391c3a82b2" y="307.584"></use>
            </g>
          </g>
          <g id="text_6">
            <!-- 20 -->
            <defs>
              <path
                d="M 19.1875 8.296875  L 53.609375 8.296875  L 53.609375 0  L 7.328125 0  L 7.328125 8.296875  Q 12.9375 14.109375 22.625 23.890625  Q 32.328125 33.6875 34.8125 36.53125  Q 39.546875 41.84375 41.421875 45.53125  Q 43.3125 49.21875 43.3125 52.78125  Q 43.3125 58.59375 39.234375 62.25  Q 35.15625 65.921875 28.609375 65.921875  Q 23.96875 65.921875 18.8125 64.3125  Q 13.671875 62.703125 7.8125 59.421875  L 7.8125 69.390625  Q 13.765625 71.78125 18.9375 73  Q 24.125 74.21875 28.421875 74.21875  Q 39.75 74.21875 46.484375 68.546875  Q 53.21875 62.890625 53.21875 53.421875  Q 53.21875 48.921875 51.53125 44.890625  Q 49.859375 40.875 45.40625 35.40625  Q 44.1875 33.984375 37.640625 27.21875  Q 31.109375 20.453125 19.1875 8.296875  "
                id="DejaVuSans-32"></path>
            </defs>
            <g transform="translate(294.470457 322.182437)scale(0.1 -0.1)">
              <use xlink:href="#DejaVuSans-32"></use>
              <use x="63.623047" xlink:href="#DejaVuSans-30"></use>
            </g>
          </g>
        </g>
        <g id="xtick_7">
          <g id="line2d_7">
            <g>
              <use style="stroke:#000000;stroke-width:0.8;" x="346.249395" xlink:href="#m391c3a82b2" y="307.584"></use>
            </g>
          </g>
          <g id="text_7">
            <!-- 25 -->
            <g transform="translate(339.886895 322.182437)scale(0.1 -0.1)">
              <use xlink:href="#DejaVuSans-32"></use>
              <use x="63.623047" xlink:href="#DejaVuSans-35"></use>
            </g>
          </g>
        </g>
        <g id="xtick_8">
          <g id="line2d_8">
            <g>
              <use style="stroke:#000000;stroke-width:0.8;" x="391.665833" xlink:href="#m391c3a82b2" y="307.584"></use>
            </g>
          </g>
          <g id="text_8">
            <!-- 30 -->
            <defs>
              <path
                d="M 40.578125 39.3125  Q 47.65625 37.796875 51.625 33  Q 55.609375 28.21875 55.609375 21.1875  Q 55.609375 10.40625 48.1875 4.484375  Q 40.765625 -1.421875 27.09375 -1.421875  Q 22.515625 -1.421875 17.65625 -0.515625  Q 12.796875 0.390625 7.625 2.203125  L 7.625 11.71875  Q 11.71875 9.328125 16.59375 8.109375  Q 21.484375 6.890625 26.8125 6.890625  Q 36.078125 6.890625 40.9375 10.546875  Q 45.796875 14.203125 45.796875 21.1875  Q 45.796875 27.640625 41.28125 31.265625  Q 36.765625 34.90625 28.71875 34.90625  L 20.21875 34.90625  L 20.21875 43.015625  L 29.109375 43.015625  Q 36.375 43.015625 40.234375 45.921875  Q 44.09375 48.828125 44.09375 54.296875  Q 44.09375 59.90625 40.109375 62.90625  Q 36.140625 65.921875 28.71875 65.921875  Q 24.65625 65.921875 20.015625 65.03125  Q 15.375 64.15625 9.8125 62.3125  L 9.8125 71.09375  Q 15.4375 72.65625 20.34375 73.4375  Q 25.25 74.21875 29.59375 74.21875  Q 40.828125 74.21875 47.359375 69.109375  Q 53.90625 64.015625 53.90625 55.328125  Q 53.90625 49.265625 50.4375 45.09375  Q 46.96875 40.921875 40.578125 39.3125  "
                id="DejaVuSans-33"></path>
            </defs>
            <g transform="translate(385.303333 322.182437)scale(0.1 -0.1)">
              <use xlink:href="#DejaVuSans-33"></use>
              <use x="63.623047" xlink:href="#DejaVuSans-30"></use>
            </g>
          </g>
        </g>
      </g>
      <g id="matplotlib.axis_2">
        <g id="ytick_1">
          <g id="line2d_9">
            <defs>
              <path d="M 0 0  L -3.5 0  " id="m685bd198e0" style="stroke:#000000;stroke-width:0.8;"></path>
            </defs>
            <g>
              <use style="stroke:#000000;stroke-width:0.8;" x="57.6" xlink:href="#m685bd198e0" y="280.9728"></use>
            </g>
          </g>
          <g id="text_9">
            <!-- −0.2 -->
            <defs>
              <path d="M 10.6875 12.40625  L 21 12.40625  L 21 0  L 10.6875 0  z " id="DejaVuSans-2e"></path>
            </defs>
            <g transform="translate(26.317187 284.772019)scale(0.1 -0.1)">
              <use xlink:href="#DejaVuSans-2212"></use>
              <use x="83.789062" xlink:href="#DejaVuSans-30"></use>
              <use x="147.412109" xlink:href="#DejaVuSans-2e"></use>
              <use x="179.199219" xlink:href="#DejaVuSans-32"></use>
            </g>
          </g>
        </g>
        <g id="ytick_2">
          <g id="line2d_10">
            <g>
              <use style="stroke:#000000;stroke-width:0.8;" x="57.6" xlink:href="#m685bd198e0" y="227.7504"></use>
            </g>
          </g>
          <g id="text_10">
            <!-- −0.1 -->
            <g transform="translate(26.317187 231.549619)scale(0.1 -0.1)">
              <use xlink:href="#DejaVuSans-2212"></use>
              <use x="83.789062" xlink:href="#DejaVuSans-30"></use>
              <use x="147.412109" xlink:href="#DejaVuSans-2e"></use>
              <use x="179.199219" xlink:href="#DejaVuSans-31"></use>
            </g>
          </g>
        </g>
        <g id="ytick_3">
          <g id="line2d_11">
            <g>
              <use style="stroke:#000000;stroke-width:0.8;" x="57.6" xlink:href="#m685bd198e0" y="174.528"></use>
            </g>
          </g>
          <g id="text_11">
            <!-- 0.0 -->
            <g transform="translate(34.696875 178.327219)scale(0.1 -0.1)">
              <use xlink:href="#DejaVuSans-30"></use>
              <use x="63.623047" xlink:href="#DejaVuSans-2e"></use>
              <use x="95.410156" xlink:href="#DejaVuSans-30"></use>
            </g>
          </g>
        </g>
        <g id="ytick_4">
          <g id="line2d_12">
            <g>
              <use style="stroke:#000000;stroke-width:0.8;" x="57.6" xlink:href="#m685bd198e0" y="121.3056"></use>
            </g>
          </g>
          <g id="text_12">
            <!-- 0.1 -->
            <g transform="translate(34.696875 125.104819)scale(0.1 -0.1)">
              <use xlink:href="#DejaVuSans-30"></use>
              <use x="63.623047" xlink:href="#DejaVuSans-2e"></use>
              <use x="95.410156" xlink:href="#DejaVuSans-31"></use>
            </g>
          </g>
        </g>
        <g id="ytick_5">
          <g id="line2d_13">
            <g>
              <use style="stroke:#000000;stroke-width:0.8;" x="57.6" xlink:href="#m685bd198e0" y="68.0832"></use>
            </g>
          </g>
          <g id="text_13">
            <!-- 0.2 -->
            <g transform="translate(34.696875 71.882419)scale(0.1 -0.1)">
              <use xlink:href="#DejaVuSans-30"></use>
              <use x="63.623047" xlink:href="#DejaVuSans-2e"></use>
              <use x="95.410156" xlink:href="#DejaVuSans-32"></use>
            </g>
          </g>
        </g>
      </g>
      <g id="line2d_14">
        <path clip-path="url(#pe49ae0eb02)"
              d="M 73.832727 174.527796  L 77.112066 174.527219  L 80.391405 174.525585  L 83.670744 174.521866  L 86.950083 174.514717  L 90.229421 174.501932  L 93.50876 174.478318  L 96.788099 174.433263  L 100.067438 174.351828  L 103.346777 174.220428  L 106.626116 174.030684  L 109.905455 173.773856  L 113.184793 173.427687  L 116.464132 172.946538  L 119.743471 172.263331  L 123.02281 171.303046  L 126.302149 170.003834  L 129.581488 168.341442  L 132.860826 166.34418  L 136.140165 164.079529  L 139.419504 161.616976  L 142.698843 159.005979  L 145.978182 156.2931  L 149.257521 153.550132  L 152.53686 150.881488  L 155.816198 148.422624  L 159.095537 146.337402  L 162.374876 144.784055  L 165.654215 143.852493  L 168.933554 143.540968  L 172.212893 143.802565  L 175.492231 144.595055  L 178.77157 145.869891  L 182.050909 147.529475  L 185.330248 149.417813  L 188.609587 151.349221  L 191.888926 153.133455  L 195.168264 154.583292  L 198.447603 155.526672  L 201.726942 155.841089  L 205.006281 155.500745  L 208.28562 154.59765  L 211.564959 153.299846  L 214.844298 151.766064  L 218.123636 150.088437  L 221.402975 148.313012  L 224.682314 146.513084  L 227.961653 144.84233  L 231.240992 143.515756  L 234.520331 142.727591  L 237.799669 142.559256  L 241.079008 142.932849  L 244.358347 143.637673  L 247.637686 144.416035  L 250.917025 145.061489  L 254.196364 145.480167  L 257.475702 145.693258  L 260.755041 145.791106  L 264.03438 145.867534  L 267.313719 145.971945  L 270.593058 146.110808  L 273.872397 146.287286  L 277.151736 146.527898  L 280.431074 146.871788  L 283.710413 147.346926  L 286.989752 147.958285  L 290.269091 148.695296  L 293.54843 149.560602  L 296.827769 150.600026  L 300.107107 151.892513  L 303.386446 153.496679  L 306.665785 155.405349  L 309.945124 157.540115  L 313.224463 159.766704  L 316.503802 161.922668  L 319.78314 163.871243  L 323.062479 165.557143  L 326.341818 167.011765  L 329.621157 168.300857  L 332.900496 169.465118  L 336.179835 170.50279  L 339.459174 171.39507  L 342.738512 172.136008  L 346.017851 172.736341  L 349.29719 173.209798  L 352.576529 173.568566  L 355.855868 173.831684  L 359.135207 174.026886  L 362.414545 174.178647  L 365.693884 174.297813  L 368.973223 174.385016  L 372.252562 174.441387  L 375.531901 174.474067  L 378.81124 174.493164  L 382.090579 174.506104  L 385.369917 174.515679  L 388.649256 174.522137  L 391.928595 174.525711  L 395.207934 174.527277  L 398.487273 174.527816  "
              style="fill:none;stroke:#d95f02;stroke-linecap:square;stroke-width:1.5;"></path>
      </g>
      <g id="line2d_15">
        <path clip-path="url(#pe49ae0eb02)"
              d="M 84.926653 174.526734  L 86.609649 174.52245  L 88.292646 174.509746  L 89.975642 174.482951  L 91.658638 174.444541  L 93.341634 174.411613  L 95.02463 174.404051  L 96.707626 174.419327  L 98.390622 174.423191  L 100.073618 174.366628  L 101.756615 174.210736  L 103.439611 173.947393  L 105.122607 173.608031  L 106.805603 173.241463  L 108.488599 172.870554  L 110.171595 172.48437  L 111.854591 172.078165  L 113.537587 171.662707  L 115.220584 171.211461  L 116.90358 170.640147  L 118.586576 169.86898  L 120.269572 168.87148  L 121.952568 167.641674  L 123.635564 166.15064  L 125.31856 164.35777  L 127.001557 162.231903  L 128.684553 159.725813  L 130.367549 156.751493  L 132.050545 153.247515  L 133.733541 149.310327  L 135.416537 145.237564  L 137.099533 141.366537  L 138.782529 137.794227  L 140.465526 134.283742  L 142.148522 130.500563  L 143.831518 126.27776  L 145.514514 121.642442  L 147.19751 116.76194  L 148.880506 111.942565  L 150.563502 107.506966  L 152.246498 103.534117  L 153.929495 99.76992  L 155.612491 95.833284  L 157.295487 91.532831  L 158.978483 87.154187  L 160.661479 83.485481  L 162.344475 81.261506  L 164.027471 80.453944  L 165.710467 80.378579  L 167.393464 80.515765  L 169.07646 80.863699  L 170.759456 81.522789  L 172.442452 82.425244  L 174.125448 83.589462  L 175.808444 85.316827  L 177.49144 88.016579  L 179.174437 91.892093  L 180.857433 96.713968  L 182.540429 101.865103  L 184.223425 106.75255  L 185.906421 111.264953  L 187.589417 115.757376  L 189.272413 120.554031  L 190.955409 125.578514  L 192.638406 130.522752  L 194.321402 135.214952  L 196.004398 139.666652  L 197.687394 143.854964  L 199.37039 147.653486  L 201.053386 150.992332  L 202.736382 153.968705  L 204.419378 156.745097  L 206.102375 159.365693  L 207.785371 161.710956  L 209.468367 163.646949  L 211.151363 165.200823  L 212.834359 166.552964  L 214.517355 167.862085  L 216.200351 169.15547  L 217.883348 170.381597  L 219.566344 171.479797  L 221.24934 172.388107  L 222.932336 173.061818  L 224.615332 173.509213  L 226.298328 173.784304  L 227.981324 173.951375  L 229.66432 174.066175  L 231.347317 174.167228  L 233.030313 174.267195  L 234.713309 174.35748  L 236.396305 174.423675  L 238.079301 174.457842  L 239.762297 174.465151  L 241.445293 174.462944  L 243.128289 174.468392  L 244.811286 174.485134  L 246.494282 174.504614  L 248.177278 174.518403  L 249.860274 174.525044  L 251.54327 174.527317  "
              style="fill:none;stroke:#7570b3;stroke-linecap:square;stroke-width:1.5;"></path>
      </g>
      <g id="line2d_16">
        <path clip-path="url(#pe49ae0eb02)"
              d="M 133.843317 174.527393  L 135.742852 174.525365  L 137.642387 174.519355  L 139.541922 174.506409  L 141.441457 174.48638  L 143.340992 174.464526  L 145.240526 174.448452  L 147.140061 174.442189  L 149.039596 174.443823  L 150.939131 174.444024  L 152.838666 174.424938  L 154.738201 174.370603  L 156.637736 174.284162  L 158.53727 174.183133  L 160.436805 174.071501  L 162.33634 173.931052  L 164.235875 173.742111  L 166.13541 173.491675  L 168.034945 173.165819  L 169.93448 172.759421  L 171.834014 172.281241  L 173.733549 171.723329  L 175.633084 171.031348  L 177.532619 170.116415  L 179.432154 168.908225  L 181.331689 167.423064  L 183.231224 165.783363  L 185.130758 164.144936  L 187.030293 162.588287  L 188.929828 161.064126  L 190.829363 159.410976  L 192.728898 157.444976  L 194.628433 155.117654  L 196.527968 152.586469  L 198.427502 150.028449  L 200.327037 147.349696  L 202.226572 144.153485  L 204.126107 140.088606  L 206.025642 135.241546  L 207.925177 130.108638  L 209.824712 125.186425  L 211.724246 120.686192  L 213.623781 116.600836  L 215.523316 112.858748  L 217.422851 109.335606  L 219.322386 105.842022  L 221.221921 102.226207  L 223.121456 98.463626  L 225.02099 94.649349  L 226.920525 91.004112  L 228.82006 87.862399  L 230.719595 85.551158  L 232.61913 84.307995  L 234.518665 84.32059  L 236.4182 85.679764  L 238.317734 88.222451  L 240.217269 91.565568  L 242.116804 95.357546  L 244.016339 99.410923  L 245.915874 103.630385  L 247.815409 107.916063  L 249.714944 112.110805  L 251.614478 116.071361  L 253.514013 119.844187  L 255.413548 123.615928  L 257.313083 127.418063  L 259.212618 131.092153  L 261.112153 134.612615  L 263.011688 138.19681  L 264.911222 141.996534  L 266.810757 145.868289  L 268.710292 149.516151  L 270.609827 152.753825  L 272.509362 155.597732  L 274.408897 158.135908  L 276.308432 160.373532  L 278.207966 162.292145  L 280.107501 163.976581  L 282.007036 165.539529  L 283.906571 166.996455  L 285.806106 168.32196  L 287.705641 169.534942  L 289.605176 170.649661  L 291.50471 171.613085  L 293.404245 172.343893  L 295.30378 172.814485  L 297.203315 173.080707  L 299.10285 173.242176  L 301.002385 173.384941  L 302.90192 173.552266  L 304.801454 173.742816  L 306.700989 173.927547  L 308.600524 174.082865  L 310.500059 174.210574  L 312.399594 174.321427  L 314.299129 174.413198  L 316.198663 174.476183  L 318.098198 174.509568  L 319.997733 174.522919  L 321.897268 174.526925  "
              style="fill:none;stroke:#7570b3;stroke-linecap:square;stroke-width:1.5;"></path>
      </g>
      <g id="line2d_17">
        <path clip-path="url(#pe49ae0eb02)"
              d="M 156.346804 174.527451  L 158.704908 174.525209  L 161.063011 174.517961  L 163.421115 174.502149  L 165.779219 174.47923  L 168.137322 174.458102  L 170.495426 174.448698  L 172.85353 174.455197  L 175.211634 174.474727  L 177.569737 174.497983  L 179.927841 174.514521  L 182.285945 174.519341  L 184.644048 174.512201  L 187.002152 174.496306  L 189.360256 174.481287  L 191.71836 174.477918  L 194.076463 174.483267  L 196.434567 174.479528  L 198.792671 174.45228  L 201.150774 174.402724  L 203.508878 174.339006  L 205.866982 174.258669  L 208.225085 174.138368  L 210.583189 173.936524  L 212.941293 173.608674  L 215.299397 173.134222  L 217.6575 172.542567  L 220.015604 171.904176  L 222.373708 171.272919  L 224.731811 170.631723  L 227.089915 169.897469  L 229.448019 168.950651  L 231.806123 167.638796  L 234.164226 165.84778  L 236.52233 163.669469  L 238.880434 161.38469  L 241.238537 159.176078  L 243.596641 156.947749  L 245.954745 154.452901  L 248.312848 151.502494  L 250.670952 148.017977  L 253.029056 144.002549  L 255.38716 139.561454  L 257.745263 134.859626  L 260.103367 130.028905  L 262.461471 125.246492  L 264.819574 120.807245  L 267.177678 116.833974  L 269.535782 113.082549  L 271.893886 109.41756  L 274.251989 106.199652  L 276.610093 103.794738  L 278.968197 102.099427  L 281.3263 100.845652  L 283.684404 99.990734  L 286.042508 99.653621  L 288.400611 99.868966  L 290.758715 100.506691  L 293.116819 101.364784  L 295.474923 102.341932  L 297.833026 103.700017  L 300.19113 106.003406  L 302.549234 109.450415  L 304.907337 113.556955  L 307.265441 117.851085  L 309.623545 122.478666  L 311.981649 127.749798  L 314.339752 133.386424  L 316.697856 138.641471  L 319.05596 143.034995  L 321.414063 146.605331  L 323.772167 149.584299  L 326.130271 152.219622  L 328.488374 154.796033  L 330.846478 157.482926  L 333.204582 160.184069  L 335.562686 162.671717  L 337.920789 164.783811  L 340.278893 166.473687  L 342.636997 167.835816  L 344.9951 169.069646  L 347.353204 170.274737  L 349.711308 171.332503  L 352.069412 172.075953  L 354.427515 172.50736  L 356.785619 172.793866  L 359.143723 173.093981  L 361.501826 173.440214  L 363.85993 173.780682  L 366.218034 174.0643  L 368.576137 174.261914  L 370.934241 174.364277  L 373.292345 174.393128  L 375.650449 174.394421  L 378.008552 174.408187  L 380.366656 174.443973  L 382.72476 174.484435  L 385.082863 174.511715  L 387.440967 174.523667  L 389.799071 174.527185  "
              style="fill:none;stroke:#7570b3;stroke-linecap:square;stroke-width:1.5;"></path>
      </g>
      <g id="line2d_18">
        <path clip-path="url(#pe49ae0eb02)" d="M 108.470094 201.1392  L 225.968841 201.1392  "
              style="fill:none;stroke:#1b9e77;stroke-linecap:square;"></path>
      </g>
      <g id="line2d_19">
        <path clip-path="url(#pe49ae0eb02)" d="M 165.708908 217.10592  L 300.203829 217.10592  "
              style="fill:none;stroke:#1b9e77;stroke-linecap:square;"></path>
      </g>
      <g id="line2d_20">
        <path clip-path="url(#pe49ae0eb02)" d="M 212.959225 233.07264  L 360.252506 233.07264  "
              style="fill:none;stroke:#1b9e77;stroke-linecap:square;"></path>
      </g>
      <g id="patch_6">
        <path d="M 57.6 307.584  L 57.6 41.472  "
              style="fill:none;stroke:#000000;stroke-linecap:square;stroke-linejoin:miter;stroke-width:0.8;"></path>
      </g>
      <g id="patch_7">

      </g>
      <g id="patch_8">
        <path d="M 57.6 307.584  L 414.72 307.584  "
              style="fill:none;stroke:#000000;stroke-linecap:square;stroke-linejoin:miter;stroke-width:0.8;"></path>
      </g>

      <g id="text_14">
        <!-- $\mathcal{N}_1$ -->
        <defs>
          <path
            d="M 67.09375 12.5  L 67.203125 12.5  Q 82.703125 63.59375 84.5 68.40625  Q 85.5 70.90625 86.296875 72.09375  Q 91.09375 79.5 97.703125 79.5  Q 101.40625 79.5 103.90625 77.046875  Q 106.40625 74.59375 106.40625 71.09375  Q 106.40625 68.40625 105 66.75  Q 103.59375 65.09375 101.09375 65.09375  Q 99.5 65.09375 98.390625 66  Q 97.296875 66.90625 96.84375 67.953125  Q 96.40625 69 95.59375 69.890625  Q 94.796875 70.796875 93.796875 70.796875  Q 92.796875 70.796875 91.890625 70.4375  Q 91 70.09375 90.390625 69.640625  Q 89.796875 69.203125 89.140625 68.296875  Q 88.5 67.40625 88.09375 66.796875  Q 87.703125 66.203125 87.25 65.046875  Q 86.796875 63.90625 86.640625 63.40625  Q 86.5 62.90625 86.09375 61.75  Q 85.703125 60.59375 85.703125 60.40625  L 66.59375 -2.40625  L 64.59375 -2.40625  Q 48.09375 20 38.796875 45.203125  L 38.59375 45.203125  Q 37.59375 40.296875 36.84375 36.890625  Q 36.09375 33.5 34.59375 28  Q 33.09375 22.5 31.6875 18.59375  Q 30.296875 14.703125 28.1875 10.203125  Q 26.09375 5.703125 23.890625 2.890625  Q 21.703125 0.09375 18.796875 -1.796875  Q 15.90625 -3.703125 12.703125 -3.703125  Q 9 -3.703125 6.5 -1.25  Q 4 1.203125 4 4.703125  Q 4 7.40625 5.390625 9.046875  Q 6.796875 10.703125 9.296875 10.703125  Q 10.90625 10.703125 12 9.796875  Q 13.09375 8.90625 13.546875 7.84375  Q 14 6.796875 14.796875 5.890625  Q 15.59375 5 16.59375 5  Q 19.09375 5 21.390625 7.5  Q 23.703125 10 25.59375 14.5  Q 27.5 19 29.09375 24.09375  Q 30.703125 29.203125 32.140625 35.75  Q 33.59375 42.296875 34.59375 47.390625  Q 35.59375 52.5 36.6875 58.453125  Q 37.796875 64.40625 38.40625 67.09375  L 41.09375 67.09375  Q 41.90625 65.09375 44.90625 57.5  Q 47.90625 49.90625 49.09375 47  Q 50.296875 44.09375 53 37.84375  Q 55.703125 31.59375 57.546875 28.09375  Q 59.40625 24.59375 62 20.1875  Q 64.59375 15.796875 67.09375 12.5  "
            id="STIXNonUnicode-Italic-e23a"></path>
        </defs>
        <g transform="translate(90.303519 201.1392)scale(0.1 -0.1)">
          <use transform="translate(0 0.5)" xlink:href="#STIXNonUnicode-Italic-e23a"></use>
          <use transform="translate(96.657013 -15.90625)scale(0.7)" xlink:href="#DejaVuSans-31"></use>
        </g>
      </g>
      <g id="text_15">
        <!-- $\mathcal{N}_2$ -->
        <g transform="translate(147.542333 217.10592)scale(0.1 -0.1)">
          <use transform="translate(0 0.5)" xlink:href="#STIXNonUnicode-Italic-e23a"></use>
          <use transform="translate(96.657013 -15.90625)scale(0.7)" xlink:href="#DejaVuSans-32"></use>
        </g>
      </g>
      <g id="text_16">
        <!-- $\mathcal{N}_3$ -->
        <g transform="translate(194.792649 233.07264)scale(0.1 -0.1)">
          <use transform="translate(0 0.5)" xlink:href="#STIXNonUnicode-Italic-e23a"></use>
          <use transform="translate(96.657013 -15.90625)scale(0.7)" xlink:href="#DejaVuSans-33"></use>
        </g>
      </g>
    </g>
  </g>
  <g id="gmmbrushpanel" transform="translate(360,11)scale(1.6,1.6)">
    <rect y="0" width="70" height="70" class="gmmbrushpanel"></rect>

    <g transform="translate(0,0)" width="70" height="70" class="main">
      <line x1="1" y1="30" x2="40" y2="30" stroke="black" stroke-width="1"></line>
      <line x1="20" y1="40" x2="60" y2="40" stroke="black" stroke-width="1"></line>
      <line x1="50" y1="50" x2="70" y2="50" stroke="black" stroke-width="1"></line>
      <rect x="5" y="25" width="10" height="15" class="gmmbrushrect"></rect>
      <rect x="25" y="25" width="10" height="25" class="gmmbrushrect"></rect>
      <rect x="50" y="35" width="10" height="25" class="gmmbrushrect"></rect>
    </g>
  </g>
  <text x="83" y="142" font-weight="bold">(a)</text>
  <text x="258" y="142" font-weight="bold">(b)</text>
  <text x="410" y="142" font-weight="bold">(c)</text>

  </svg>
